Alice-Regular-CYR.ufo
<glyph name="exclam" format="1">
  <advance width="262"/>
  <unicode hex="0021"/>
  <outline>
    <contour>
      <point x="168" y="-12"/>
      <point x="195" y="14"/>
      <point x="195" y="52" type="curve" smooth="yes"/>
      <point x="195" y="87"/>
      <point x="168" y="115"/>
      <point x="131" y="115" type="curve" smooth="yes"/>
      <point x="94" y="115"/>
      <point x="67" y="87"/>
      <point x="67" y="52" type="curve" smooth="yes"/>
      <point x="67" y="14"/>
      <point x="94" y="-12"/>
      <point x="130" y="-12" type="curve" smooth="yes"/>
    </contour>
    <contour>
      <point x="155" y="303"/>
      <point x="185" y="461"/>
      <point x="185" y="570" type="curve" smooth="yes"/>
      <point x="185" y="638"/>
      <point x="172" y="687"/>
      <point x="131" y="687" type="curve"/>
      <point x="90" y="687"/>
      <point x="77" y="638"/>
      <point x="77" y="570" type="curve" smooth="yes"/>
      <point x="77" y="461"/>
      <point x="107" y="303"/>
      <point x="107" y="221" type="curve"/>
      <point x="107" y="212"/>
      <point x="121" y="207"/>
      <point x="131" y="207" type="curve" smooth="yes"/>
      <point x="143" y="207"/>
      <point x="155" y="211"/>
      <point x="155" y="221" type="curve"/>
    </contour>
  </outline>
</glyph>
<glyph name="quotedbl" format="1">
  <advance width="339"/>
  <unicode hex="0022"/>
  <outline>
    <contour>
      <point x="114" y="462"/>
      <point x="140" y="555"/>
      <point x="140" y="618" type="curve" smooth="yes"/>
      <point x="140" y="659"/>
      <point x="129" y="688"/>
      <point x="93" y="688" type="curve" smooth="yes"/>
      <point x="57" y="688"/>
      <point x="45" y="658"/>
      <point x="45" y="617" type="curve" smooth="yes"/>
      <point x="45" y="553"/>
      <point x="72" y="462"/>
      <point x="75" y="408" type="curve" smooth="yes"/>
      <point x="75" y="401"/>
      <point x="85" y="397"/>
      <point x="93" y="397" type="curve" smooth="yes"/>
      <point x="102" y="397"/>
      <point x="111" y="400"/>
      <point x="111" y="408" type="curve" smooth="yes"/>
    </contour>
    <contour>
      <point x="267" y="462"/>
      <point x="293" y="555"/>
      <point x="293" y="618" type="curve" smooth="yes"/>
      <point x="293" y="659"/>
      <point x="282" y="688"/>
      <point x="246" y="688" type="curve" smooth="yes"/>
      <point x="210" y="688"/>
      <point x="198" y="658"/>
      <point x="198" y="617" type="curve" smooth="yes"/>
      <point x="198" y="553"/>
      <point x="225" y="462"/>
      <point x="228" y="408" type="curve" smooth="yes"/>
      <point x="228" y="401"/>
      <point x="238" y="397"/>
      <point x="246" y="397" type="curve" smooth="yes"/>
      <point x="255" y="397"/>
      <point x="264" y="400"/>
      <point x="264" y="408" type="curve" smooth="yes"/>
    </contour>
  </outline>
</glyph>
<glyph name="numbersign" format="1">
  <advance width="616"/>
  <unicode hex="0023"/>
  <outline>
    <contour>
      <point x="403" y="398" type="line"/>
      <point x="369" y="233" type="line"/>
      <point x="214" y="233" type="line"/>
      <point x="249" y="398" type="line"/>
    </contour>
    <contour>
      <point x="413" y="453" type="line"/>
      <point x="260" y="453" type="line"/>
      <point x="294" y="613" type="line"/>
      <point x="293" y="624"/>
      <point x="280" y="631"/>
      <point x="264" y="631" type="curve" smooth="yes"/>
      <point x="254" y="631"/>
      <point x="242" y="624"/>
      <point x="240" y="613" type="curve"/>
      <point x="206" y="453" type="line"/>
      <point x="101" y="453" type="line"/>
      <point x="89" y="452"/>
      <point x="82" y="438"/>
      <point x="82" y="423" type="curve" smooth="yes"/>
      <point x="82" y="411"/>
      <point x="89" y="398"/>
      <point x="101" y="398" type="curve" smooth="yes"/>
      <point x="195" y="398" type="line"/>
      <point x="160" y="233" type="line"/>
      <point x="61" y="233" type="line"/>
      <point x="49" y="232"/>
      <point x="42" y="218"/>
      <point x="42" y="203" type="curve" smooth="yes"/>
      <point x="42" y="191"/>
      <point x="49" y="178"/>
      <point x="61" y="178" type="curve" smooth="yes"/>
      <point x="148" y="178" type="line"/>
      <point x="115" y="19" type="line"/>
      <point x="116" y="7"/>
      <point x="130" y="0"/>
      <point x="145" y="0" type="curve" smooth="yes"/>
      <point x="157" y="0"/>
      <point x="168" y="7"/>
      <point x="170" y="19" type="curve"/>
      <point x="203" y="178" type="line"/>
      <point x="359" y="178" type="line"/>
      <point x="325" y="18" type="line"/>
      <point x="326" y="7"/>
      <point x="339" y="0"/>
      <point x="355" y="0" type="curve" smooth="yes"/>
      <point x="365" y="0"/>
      <point x="377" y="7"/>
      <point x="379" y="18" type="curve" smooth="yes"/>
      <point x="413" y="178" type="line"/>
      <point x="515" y="178" type="line"/>
      <point x="527" y="178"/>
      <point x="534" y="191"/>
      <point x="534" y="203" type="curve" smooth="yes"/>
      <point x="534" y="218"/>
      <point x="527" y="232"/>
      <point x="515" y="233" type="curve"/>
      <point x="423" y="233" type="line"/>
      <point x="458" y="398" type="line"/>
      <point x="555" y="398" type="line"/>
      <point x="567" y="398"/>
      <point x="574" y="411"/>
      <point x="574" y="423" type="curve" smooth="yes"/>
      <point x="574" y="438"/>
      <point x="567" y="452"/>
      <point x="555" y="453" type="curve"/>
      <point x="469" y="453" type="line"/>
      <point x="503" y="612" type="line"/>
      <point x="502" y="624"/>
      <point x="488" y="631"/>
      <point x="474" y="631" type="curve" smooth="yes"/>
      <point x="462" y="631"/>
      <point x="452" y="624"/>
      <point x="449" y="612" type="curve"/>
    </contour>
  </outline>
</glyph>
<glyph name="dollar" format="1">
  <advance width="500"/>
  <unicode hex="0024"/>
  <outline>
    <contour>
      <point x="261" y="-13" type="line"/>
      <point x="385" y="-7"/>
      <point x="451" y="39"/>
      <point x="449" y="151" type="curve" smooth="yes"/>
      <point x="447" y="244"/>
      <point x="343" y="298"/>
      <point x="261" y="330" type="curve"/>
      <point x="261" y="530" type="line"/>
      <point x="296" y="527"/>
      <point x="339" y="511"/>
      <point x="339" y="467" type="curve" smooth="yes"/>
      <point x="339" y="435"/>
      <point x="308" y="420"/>
      <point x="308" y="416" type="curve" smooth="yes"/>
      <point x="308" y="409"/>
      <point x="324" y="391"/>
      <point x="351" y="391" type="curve" smooth="yes"/>
      <point x="397" y="391"/>
      <point x="421" y="441"/>
      <point x="411" y="482" type="curve" smooth="yes"/>
      <point x="393" y="556"/>
      <point x="297" y="566"/>
      <point x="265" y="566" type="curve" smooth="yes"/>
      <point x="261" y="566" type="line"/>
      <point x="261" y="617" type="line" smooth="yes"/>
      <point x="261" y="631"/>
      <point x="255" y="640"/>
      <point x="241" y="640" type="curve" smooth="yes"/>
      <point x="227" y="640"/>
      <point x="222" y="631"/>
      <point x="222" y="617" type="curve" smooth="yes"/>
      <point x="222" y="563" type="line"/>
      <point x="129" y="551"/>
      <point x="59" y="498"/>
      <point x="62" y="413" type="curve"/>
      <point x="64" y="323"/>
      <point x="144" y="290"/>
      <point x="222" y="257" type="curve"/>
      <point x="222" y="21" type="line"/>
      <point x="176" y="25"/>
      <point x="137" y="41"/>
      <point x="134" y="86" type="curve"/>
      <point x="134" y="118"/>
      <point x="163" y="133"/>
      <point x="163" y="137" type="curve" smooth="yes"/>
      <point x="163" y="143"/>
      <point x="149" y="162"/>
      <point x="121" y="162" type="curve" smooth="yes"/>
      <point x="75" y="162"/>
      <point x="52" y="112"/>
      <point x="61" y="71" type="curve"/>
      <point x="80" y="-3"/>
      <point x="175" y="-13"/>
      <point x="209" y="-13" type="curve" smooth="yes"/>
      <point x="222" y="-13" type="line"/>
      <point x="222" y="-66" type="line" smooth="yes"/>
      <point x="222" y="-81"/>
      <point x="227" y="-89"/>
      <point x="241" y="-89" type="curve" smooth="yes"/>
      <point x="255" y="-89"/>
      <point x="261" y="-81"/>
      <point x="261" y="-66" type="curve" smooth="yes"/>
    </contour>
    <contour>
      <point x="369" y="59"/>
      <point x="319" y="27"/>
      <point x="261" y="21" type="curve"/>
      <point x="261" y="239" type="line"/>
      <point x="320" y="212"/>
      <point x="370" y="179"/>
      <point x="370" y="113" type="curve"/>
    </contour>
    <contour>
      <point x="136" y="484"/>
      <point x="163" y="520"/>
      <point x="222" y="529" type="curve"/>
      <point x="222" y="345" type="line"/>
      <point x="177" y="361"/>
      <point x="136" y="380"/>
      <point x="136" y="446" type="curve" smooth="yes"/>
    </contour>
  </outline>
</glyph>
<glyph name="percent" format="1">
  <advance width="776"/>
  <unicode hex="0025"/>
  <outline>
    <contour>
      <point x="504" y="318"/>
      <point x="419" y="258"/>
      <point x="419" y="146" type="curve" smooth="yes"/>
      <point x="419" y="59"/>
      <point x="480" y="-20"/>
      <point x="575" y="-20" type="curve" smooth="yes"/>
      <point x="646" y="-20"/>
      <point x="733" y="42"/>
      <point x="733" y="154" type="curve" smooth="yes"/>
      <point x="733" y="241"/>
      <point x="670" y="318"/>
      <point x="575" y="318" type="curve" smooth="yes"/>
    </contour>
    <contour>
      <point x="514" y="23"/>
      <point x="494" y="82"/>
      <point x="494" y="147" type="curve" smooth="yes"/>
      <point x="494" y="216"/>
      <point x="511" y="277"/>
      <point x="575" y="277" type="curve" smooth="yes"/>
      <point x="636" y="277"/>
      <point x="658" y="219"/>
      <point x="658" y="154" type="curve" smooth="yes"/>
      <point x="658" y="84"/>
      <point x="637" y="23"/>
      <point x="575" y="23" type="curve" smooth="yes"/>
    </contour>
    <contour>
      <point x="129" y="649"/>
      <point x="44" y="589"/>
      <point x="44" y="478" type="curve" smooth="yes"/>
      <point x="44" y="391"/>
      <point x="104" y="312"/>
      <point x="200" y="312" type="curve" smooth="yes"/>
      <point x="271" y="312"/>
      <point x="357" y="373"/>
      <point x="357" y="486" type="curve" smooth="yes"/>
      <point x="357" y="572"/>
      <point x="295" y="649"/>
      <point x="200" y="649" type="curve" smooth="yes"/>
    </contour>
    <contour>
      <point x="138" y="354"/>
      <point x="118" y="413"/>
      <point x="118" y="479" type="curve" smooth="yes"/>
      <point x="118" y="548"/>
      <point x="135" y="608"/>
      <point x="200" y="608" type="curve" smooth="yes"/>
      <point x="261" y="608"/>
      <point x="283" y="551"/>
      <point x="283" y="486" type="curve" smooth="yes"/>
      <point x="283" y="415"/>
      <point x="262" y="354"/>
      <point x="200" y="354" type="curve" smooth="yes"/>
    </contour>
    <contour>
      <point x="648" y="591" type="line"/>
      <point x="658" y="605"/>
      <point x="649" y="621"/>
      <point x="633" y="628" type="curve"/>
      <point x="622" y="631"/>
      <point x="608" y="631"/>
      <point x="596" y="617" type="curve"/>
      <point x="113" y="31" type="line"/>
      <point x="102" y="18"/>
      <point x="113" y="1"/>
      <point x="128" y="-5" type="curve" smooth="yes"/>
      <point x="140" y="-9"/>
      <point x="151" y="-7"/>
      <point x="163" y="6" type="curve"/>
    </contour>
  </outline>
</glyph>
<glyph name="ampersand" format="1">
  <advance width="875"/>
  <unicode hex="0026"/>
  <outline>
    <contour>
      <point x="649" y="148"/>
      <point x="528" y="50"/>
      <point x="382" y="50" type="curve" smooth="yes"/>
      <point x="245" y="50"/>
      <point x="147" y="131"/>
      <point x="147" y="262" type="curve" smooth="yes"/>
      <point x="147" y="334"/>
      <point x="187" y="409"/>
      <point x="279" y="417" type="curve"/>
      <point x="314" y="417" type="line"/>
      <point x="327" y="417"/>
      <point x="333" y="429"/>
      <point x="333" y="441" type="curve" smooth="yes"/>
      <point x="332" y="467"/>
      <point x="321" y="465"/>
      <point x="305" y="465" type="curve"/>
      <point x="272" y="465" type="line"/>
      <point x="231" y="487"/>
      <point x="211" y="523"/>
      <point x="211" y="571" type="curve" smooth="yes"/>
      <point x="211" y="624"/>
      <point x="244" y="672"/>
      <point x="312" y="672" type="curve" smooth="yes"/>
      <point x="352" y="672"/>
      <point x="384" y="648"/>
      <point x="384" y="608" type="curve" smooth="yes"/>
      <point x="384" y="573"/>
      <point x="351" y="557"/>
      <point x="351" y="553" type="curve" smooth="yes"/>
      <point x="351" y="546"/>
      <point x="368" y="526"/>
      <point x="397" y="526" type="curve" smooth="yes"/>
      <point x="441" y="526"/>
      <point x="465" y="564"/>
      <point x="465" y="604" type="curve" smooth="yes"/>
      <point x="465" y="676"/>
      <point x="396" y="708"/>
      <point x="323" y="708" type="curve" smooth="yes"/>
      <point x="210" y="708"/>
      <point x="143" y="649"/>
      <point x="143" y="562" type="curve" smooth="yes"/>
      <point x="143" y="517"/>
      <point x="162" y="478"/>
      <point x="206" y="445" type="curve"/>
      <point x="206" y="442" type="line"/>
      <point x="96" y="424"/>
      <point x="41" y="340"/>
      <point x="41" y="246" type="curve" smooth="yes"/>
      <point x="41" y="62"/>
      <point x="193" y="-18"/>
      <point x="351" y="-20" type="curve" smooth="yes"/>
      <point x="543" y="-22"/>
      <point x="694" y="93"/>
      <point x="694" y="284" type="curve" smooth="yes"/>
      <point x="694" y="351"/>
      <point x="663" y="406"/>
      <point x="608" y="453" type="curve"/>
      <point x="744" y="453"/>
      <point x="861" y="517"/>
      <point x="863" y="627" type="curve" smooth="yes"/>
      <point x="864" y="662"/>
      <point x="853" y="702"/>
      <point x="817" y="719" type="curve"/>
      <point x="775" y="737"/>
      <point x="717" y="723"/>
      <point x="709" y="670" type="curve" smooth="yes"/>
      <point x="705" y="642"/>
      <point x="722" y="621"/>
      <point x="728" y="620" type="curve" smooth="yes"/>
      <point x="732" y="620"/>
      <point x="754" y="648"/>
      <point x="788" y="644" type="curve"/>
      <point x="814" y="640"/>
      <point x="824" y="627"/>
      <point x="825" y="611" type="curve" smooth="yes"/>
      <point x="826" y="585"/>
      <point x="803" y="564"/>
      <point x="774" y="554" type="curve"/>
      <point x="664" y="517"/>
      <point x="404" y="559"/>
      <point x="404" y="351" type="curve" smooth="yes"/>
      <point x="404" y="287"/>
      <point x="437" y="242"/>
      <point x="488" y="242" type="curve" smooth="yes"/>
      <point x="524" y="242"/>
      <point x="553" y="262"/>
      <point x="558" y="298" type="curve" smooth="yes"/>
      <point x="562" y="326"/>
      <point x="545" y="347"/>
      <point x="539" y="348" type="curve" smooth="yes"/>
      <point x="535" y="348"/>
      <point x="513" y="320"/>
      <point x="479" y="324" type="curve"/>
      <point x="456" y="328"/>
      <point x="446" y="345"/>
      <point x="445" y="363" type="curve" smooth="yes"/>
      <point x="443" y="409"/>
      <point x="496" y="429"/>
      <point x="529" y="429" type="curve" smooth="yes"/>
      <point x="607" y="429"/>
      <point x="649" y="357"/>
      <point x="649" y="285" type="curve"/>
    </contour>
  </outline>
</glyph>
<glyph name="quotesingle" format="1">
  <advance width="186"/>
  <unicode hex="0027"/>
  <outline>
    <contour>
      <point x="114" y="462"/>
      <point x="140" y="555"/>
      <point x="140" y="618" type="curve" smooth="yes"/>
      <point x="140" y="659"/>
      <point x="129" y="688"/>
      <point x="93" y="688" type="curve" smooth="yes"/>
      <point x="57" y="688"/>
      <point x="45" y="658"/>
      <point x="45" y="617" type="curve" smooth="yes"/>
      <point x="45" y="553"/>
      <point x="72" y="462"/>
      <point x="75" y="408" type="curve"/>
      <point x="75" y="401"/>
      <point x="85" y="397"/>
      <point x="93" y="397" type="curve" smooth="yes"/>
      <point x="102" y="397"/>
      <point x="111" y="400"/>
      <point x="111" y="408" type="curve"/>
    </contour>
  </outline>
</glyph>
<glyph name="parenleft" format="1">
  <advance width="293"/>
  <unicode hex="0028"/>
  <outline>
    <contour>
      <point x="270" y="-173"/>
      <point x="278" y="-166"/>
      <point x="282" y="-157" type="curve" smooth="yes"/>
      <point x="286" y="-147"/>
      <point x="283" y="-137"/>
      <point x="275" y="-130" type="curve"/>
      <point x="184" y="-43"/>
      <point x="121" y="113"/>
      <point x="121" y="281" type="curve" smooth="yes"/>
      <point x="121" y="449"/>
      <point x="185" y="605"/>
      <point x="276" y="693" type="curve" smooth="yes"/>
      <point x="284" y="700"/>
      <point x="287" y="710"/>
      <point x="283" y="720" type="curve" smooth="yes"/>
      <point x="279" y="729"/>
      <point x="271" y="736"/>
      <point x="258" y="728" type="curve"/>
      <point x="113" y="626"/>
      <point x="36" y="465"/>
      <point x="36" y="282" type="curve" smooth="yes"/>
      <point x="36" y="97"/>
      <point x="112" y="-66"/>
      <point x="257" y="-165" type="curve"/>
    </contour>
  </outline>
</glyph>
<glyph name="parenright" format="1">
  <advance width="293"/>
  <unicode hex="0029"/>
  <outline>
    <contour>
      <point x="181" y="-66"/>
      <point x="257" y="97"/>
      <point x="257" y="282" type="curve" smooth="yes"/>
      <point x="257" y="465"/>
      <point x="180" y="626"/>
      <point x="35" y="728" type="curve"/>
      <point x="22" y="736"/>
      <point x="14" y="729"/>
      <point x="10" y="720" type="curve" smooth="yes"/>
      <point x="6" y="710"/>
      <point x="9" y="700"/>
      <point x="17" y="693" type="curve" smooth="yes"/>
      <point x="108" y="605"/>
      <point x="172" y="449"/>
      <point x="172" y="281" type="curve" smooth="yes"/>
      <point x="172" y="113"/>
      <point x="109" y="-43"/>
      <point x="18" y="-130" type="curve" smooth="yes"/>
      <point x="10" y="-137"/>
      <point x="7" y="-147"/>
      <point x="11" y="-157" type="curve" smooth="yes"/>
      <point x="15" y="-166"/>
      <point x="23" y="-173"/>
      <point x="36" y="-165" type="curve" smooth="yes"/>
    </contour>
  </outline>
</glyph>
<glyph name="asterisk" format="1">
  <advance width="526"/>
  <unicode hex="002A"/>
  <outline>
    <contour>
      <point x="203" y="728"/>
      <point x="173" y="735"/>
      <point x="151" y="722" type="curve" smooth="yes"/>
      <point x="130" y="709"/>
      <point x="122" y="684"/>
      <point x="136" y="655" type="curve" smooth="yes"/>
      <point x="154" y="626"/>
      <point x="197" y="614"/>
      <point x="248" y="554" type="curve"/>
      <point x="241" y="548" type="line"/>
      <point x="165" y="557"/>
      <point x="131" y="587"/>
      <point x="95" y="587" type="curve" smooth="yes"/>
      <point x="63" y="587"/>
      <point x="43" y="565"/>
      <point x="44" y="541" type="curve" smooth="yes"/>
      <point x="43" y="517"/>
      <point x="63" y="494"/>
      <point x="95" y="495" type="curve" smooth="yes"/>
      <point x="130" y="495"/>
      <point x="164" y="526"/>
      <point x="242" y="535" type="curve"/>
      <point x="243" y="533"/>
      <point x="243" y="529"/>
      <point x="245" y="527" type="curve"/>
      <point x="200" y="466"/>
      <point x="154" y="455"/>
      <point x="138" y="425" type="curve" smooth="yes"/>
      <point x="120" y="398"/>
      <point x="133" y="372"/>
      <point x="156" y="361" type="curve" smooth="yes"/>
      <point x="176" y="349"/>
      <point x="206" y="352"/>
      <point x="221" y="380" type="curve" smooth="yes"/>
      <point x="238" y="409"/>
      <point x="225" y="452"/>
      <point x="257" y="520" type="curve"/>
      <point x="260" y="520"/>
      <point x="264" y="520"/>
      <point x="266" y="521" type="curve"/>
      <point x="296" y="452"/>
      <point x="287" y="409"/>
      <point x="305" y="380" type="curve" smooth="yes"/>
      <point x="321" y="355"/>
      <point x="351" y="348"/>
      <point x="375" y="361" type="curve" smooth="yes"/>
      <point x="396" y="374"/>
      <point x="404" y="399"/>
      <point x="388" y="428" type="curve" smooth="yes"/>
      <point x="371" y="456"/>
      <point x="326" y="469"/>
      <point x="277" y="528" type="curve"/>
      <point x="283" y="534" type="line"/>
      <point x="360" y="525"/>
      <point x="395" y="496"/>
      <point x="429" y="496" type="curve" smooth="yes"/>
      <point x="462" y="496"/>
      <point x="482" y="518"/>
      <point x="482" y="542" type="curve" smooth="yes"/>
      <point x="483" y="566"/>
      <point x="463" y="588"/>
      <point x="429" y="588" type="curve" smooth="yes"/>
      <point x="395" y="588"/>
      <point x="361" y="557"/>
      <point x="282" y="547" type="curve"/>
      <point x="281" y="549"/>
      <point x="281" y="553"/>
      <point x="279" y="555" type="curve"/>
      <point x="324" y="616"/>
      <point x="370" y="627"/>
      <point x="387" y="658" type="curve" smooth="yes"/>
      <point x="404" y="684"/>
      <point x="392" y="712"/>
      <point x="370" y="722" type="curve" smooth="yes"/>
      <point x="349" y="734"/>
      <point x="320" y="730"/>
      <point x="303" y="703" type="curve" smooth="yes"/>
      <point x="286" y="673"/>
      <point x="298" y="630"/>
      <point x="267" y="562" type="curve"/>
      <point x="264" y="562"/>
      <point x="260" y="562"/>
      <point x="258" y="561" type="curve"/>
      <point x="229" y="631"/>
      <point x="237" y="674"/>
      <point x="220" y="703" type="curve" smooth="yes"/>
    </contour>
  </outline>
</glyph>
<glyph name="plus" format="1">
  <advance width="566"/>
  <unicode hex="002B"/>
  <outline>
    <contour>
      <point x="252" y="291" type="line"/>
      <point x="58" y="291" type="line"/>
      <point x="45" y="291"/>
      <point x="36" y="277"/>
      <point x="36" y="264" type="curve" smooth="yes"/>
      <point x="36" y="251"/>
      <point x="45" y="237"/>
      <point x="58" y="237" type="curve"/>
      <point x="252" y="237" type="line"/>
      <point x="252" y="25" type="line" smooth="yes"/>
      <point x="252" y="10"/>
      <point x="268" y="0"/>
      <point x="283" y="0" type="curve" smooth="yes"/>
      <point x="299" y="0"/>
      <point x="315" y="10"/>
      <point x="315" y="25" type="curve" smooth="yes"/>
      <point x="315" y="237" type="line"/>
      <point x="508" y="237" type="line" smooth="yes"/>
      <point x="521" y="237"/>
      <point x="530" y="251"/>
      <point x="530" y="264" type="curve" smooth="yes"/>
      <point x="530" y="277"/>
      <point x="521" y="291"/>
      <point x="508" y="291" type="curve"/>
      <point x="315" y="291" type="line"/>
      <point x="315" y="479" type="line"/>
      <point x="315" y="494"/>
      <point x="299" y="504"/>
      <point x="284" y="504" type="curve" smooth="yes"/>
      <point x="268" y="504"/>
      <point x="252" y="494"/>
      <point x="252" y="479" type="curve"/>
    </contour>
  </outline>
</glyph>
<glyph name="comma" format="1">
  <advance width="237"/>
  <unicode hex="002C"/>
  <outline>
    <contour>
      <point x="45" y="51"/>
      <point x="120" y="49"/>
      <point x="120" y="0" type="curve" smooth="yes"/>
      <point x="120" y="-40"/>
      <point x="91" y="-68"/>
      <point x="35" y="-89" type="curve"/>
      <point x="15" y="-97"/>
      <point x="28" y="-127"/>
      <point x="48" y="-120" type="curve" smooth="yes"/>
      <point x="117" y="-100"/>
      <point x="196" y="-55"/>
      <point x="196" y="28" type="curve" smooth="yes"/>
      <point x="196" y="84"/>
      <point x="153" y="147"/>
      <point x="95" y="147" type="curve" smooth="yes"/>
      <point x="67" y="147"/>
      <point x="45" y="122"/>
      <point x="45" y="97" type="curve" smooth="yes"/>
    </contour>
  </outline>
</glyph>
<glyph name="hyphen" format="1">
  <advance width="385"/>
  <unicode hex="002D"/>
  <outline>
    <contour>
      <point x="302" y="199" type="line" smooth="yes"/>
      <point x="316" y="199"/>
      <point x="325" y="218"/>
      <point x="325" y="231" type="curve" smooth="yes"/>
      <point x="325" y="245"/>
      <point x="316" y="263"/>
      <point x="302" y="263" type="curve" smooth="yes"/>
      <point x="83" y="263" type="line" smooth="yes"/>
      <point x="69" y="263"/>
      <point x="60" y="245"/>
      <point x="60" y="231" type="curve" smooth="yes"/>
      <point x="60" y="218"/>
      <point x="69" y="199"/>
      <point x="83" y="199" type="curve"/>
    </contour>
  </outline>
</glyph>
<glyph name="period" format="1">
  <advance width="222"/>
  <unicode hex="002E"/>
  <outline>
    <contour>
      <point x="147" y="-12"/>
      <point x="175" y="13"/>
      <point x="175" y="51" type="curve" smooth="yes"/>
      <point x="175" y="86"/>
      <point x="147" y="113"/>
      <point x="111" y="113" type="curve" smooth="yes"/>
      <point x="74" y="113"/>
      <point x="47" y="86"/>
      <point x="47" y="51" type="curve" smooth="yes"/>
      <point x="47" y="13"/>
      <point x="74" y="-12"/>
      <point x="110" y="-12" type="curve" smooth="yes"/>
    </contour>
  </outline>
</glyph>
<glyph name="slash" format="1">
  <advance width="394"/>
  <unicode hex="002F"/>
  <outline>
    <contour>
      <point x="360" y="674" type="line"/>
      <point x="363" y="687"/>
      <point x="352" y="701"/>
      <point x="337" y="704" type="curve" smooth="yes"/>
      <point x="324" y="706"/>
      <point x="309" y="700"/>
      <point x="304" y="685" type="curve"/>
      <point x="34" y="-166" type="line"/>
      <point x="31" y="-180"/>
      <point x="42" y="-192"/>
      <point x="56" y="-195" type="curve" smooth="yes"/>
      <point x="68" y="-197"/>
      <point x="83" y="-191"/>
      <point x="88" y="-177" type="curve"/>
    </contour>
  </outline>
</glyph>
<glyph name="zero" format="1">
  <advance width="585"/>
  <unicode hex="0030"/>
  <outline>
    <contour>
      <point x="531" y="397"/>
      <point x="448" y="530"/>
      <point x="293" y="530" type="curve" smooth="yes"/>
      <point x="130" y="530"/>
      <point x="55" y="400"/>
      <point x="55" y="256" type="curve" smooth="yes"/>
      <point x="55" y="114"/>
      <point x="130" y="-20"/>
      <point x="293" y="-20" type="curve" smooth="yes"/>
      <point x="448" y="-20"/>
      <point x="531" y="116"/>
      <point x="531" y="256" type="curve" smooth="yes"/>
    </contour>
    <contour>
      <point x="435" y="101"/>
      <point x="383" y="17"/>
      <point x="294" y="17" type="curve" smooth="yes"/>
      <point x="202" y="17"/>
      <point x="151" y="101"/>
      <point x="151" y="256" type="curve" smooth="yes"/>
      <point x="151" y="411"/>
      <point x="202" y="493"/>
      <point x="294" y="493" type="curve" smooth="yes"/>
      <point x="383" y="493"/>
      <point x="435" y="411"/>
      <point x="435" y="256" type="curve" smooth="yes"/>
    </contour>
  </outline>
</glyph>
<glyph name="one" format="1">
  <advance width="428"/>
  <unicode hex="0031"/>
  <outline>
    <contour>
      <point x="173" y="439"/>
      <point x="195" y="457"/>
      <point x="193" y="341" type="curve"/>
      <point x="193" y="133" type="line"/>
      <point x="193" y="44"/>
      <point x="163" y="41"/>
      <point x="77" y="41" type="curve"/>
      <point x="62" y="41"/>
      <point x="52" y="45"/>
      <point x="51" y="21" type="curve" smooth="yes"/>
      <point x="51" y="9"/>
      <point x="55" y="-3"/>
      <point x="69" y="-3" type="curve"/>
      <point x="117" y="-1"/>
      <point x="201" y="0"/>
      <point x="236" y="0" type="curve"/>
      <point x="271" y="0"/>
      <point x="356" y="-1"/>
      <point x="404" y="-3" type="curve" smooth="yes"/>
      <point x="418" y="-3"/>
      <point x="422" y="9"/>
      <point x="422" y="21" type="curve" smooth="yes"/>
      <point x="421" y="45"/>
      <point x="411" y="41"/>
      <point x="396" y="41" type="curve" smooth="yes"/>
      <point x="310" y="41"/>
      <point x="280" y="44"/>
      <point x="280" y="133" type="curve"/>
      <point x="280" y="512" type="line" smooth="yes"/>
      <point x="280" y="537"/>
      <point x="265" y="537"/>
      <point x="254" y="533" type="curve" smooth="yes"/>
      <point x="237" y="526"/>
      <point x="150" y="486"/>
      <point x="82" y="487" type="curve"/>
      <point x="67" y="487"/>
      <point x="57" y="489"/>
      <point x="56" y="465" type="curve" smooth="yes"/>
      <point x="56" y="453"/>
      <point x="60" y="441"/>
      <point x="74" y="441" type="curve" smooth="yes"/>
    </contour>
  </outline>
</glyph>
<glyph name="two" format="1">
  <advance width="491"/>
  <unicode hex="0032"/>
  <outline>
    <contour>
      <point x="60" y="369"/>
      <point x="85" y="339"/>
      <point x="128" y="339" type="curve" smooth="yes"/>
      <point x="157" y="339"/>
      <point x="174" y="359"/>
      <point x="174" y="366" type="curve" smooth="yes"/>
      <point x="174" y="370"/>
      <point x="141" y="386"/>
      <point x="141" y="421" type="curve" smooth="yes"/>
      <point x="141" y="467"/>
      <point x="180" y="494"/>
      <point x="231" y="494" type="curve" smooth="yes"/>
      <point x="292" y="494"/>
      <point x="328" y="457"/>
      <point x="328" y="393" type="curve" smooth="yes"/>
      <point x="328" y="250"/>
      <point x="191" y="166"/>
      <point x="92" y="99" type="curve"/>
      <point x="63" y="80"/>
      <point x="48" y="66"/>
      <point x="46" y="36" type="curve" smooth="yes"/>
      <point x="46" y="14"/>
      <point x="55" y="0"/>
      <point x="81" y="0" type="curve"/>
      <point x="416" y="0" type="line" smooth="yes"/>
      <point x="441" y="0"/>
      <point x="451" y="14"/>
      <point x="451" y="36" type="curve" smooth="yes"/>
      <point x="451" y="71"/>
      <point x="429" y="71"/>
      <point x="403" y="71" type="curve"/>
      <point x="135" y="71" type="line"/>
      <point x="135" y="76" type="line"/>
      <point x="232" y="151"/>
      <point x="424" y="226"/>
      <point x="424" y="380" type="curve" smooth="yes"/>
      <point x="424" y="490"/>
      <point x="328" y="530"/>
      <point x="240" y="530" type="curve" smooth="yes"/>
      <point x="160" y="530"/>
      <point x="60" y="494"/>
      <point x="60" y="408" type="curve" smooth="yes"/>
    </contour>
  </outline>
</glyph>
<glyph name="three" format="1">
  <advance width="487"/>
  <unicode hex="0033"/>
  <outline>
    <contour>
      <point x="231" y="247" type="line"/>
      <point x="303" y="243"/>
      <point x="335" y="198"/>
      <point x="335" y="136" type="curve" smooth="yes"/>
      <point x="335" y="52"/>
      <point x="286" y="17"/>
      <point x="227" y="17" type="curve" smooth="yes"/>
      <point x="172" y="17"/>
      <point x="132" y="40"/>
      <point x="132" y="83" type="curve" smooth="yes"/>
      <point x="132" y="121"/>
      <point x="165" y="132"/>
      <point x="165" y="136" type="curve" smooth="yes"/>
      <point x="165" y="143"/>
      <point x="148" y="163"/>
      <point x="119" y="163" type="curve" smooth="yes"/>
      <point x="73" y="163"/>
      <point x="51" y="127"/>
      <point x="51" y="92" type="curve" smooth="yes"/>
      <point x="51" y="9"/>
      <point x="146" y="-20"/>
      <point x="225" y="-20" type="curve" smooth="yes"/>
      <point x="332" y="-20"/>
      <point x="432" y="22"/>
      <point x="432" y="138" type="curve" smooth="yes"/>
      <point x="432" y="234"/>
      <point x="352" y="261"/>
      <point x="294" y="267" type="curve"/>
      <point x="294" y="271" type="line"/>
      <point x="372" y="292"/>
      <point x="408" y="348"/>
      <point x="408" y="400" type="curve" smooth="yes"/>
      <point x="408" y="498"/>
      <point x="316" y="530"/>
      <point x="230" y="530" type="curve" smooth="yes"/>
      <point x="151" y="530"/>
      <point x="63" y="497"/>
      <point x="63" y="419" type="curve" smooth="yes"/>
      <point x="63" y="379"/>
      <point x="87" y="348"/>
      <point x="131" y="348" type="curve" smooth="yes"/>
      <point x="160" y="348"/>
      <point x="177" y="368"/>
      <point x="177" y="375" type="curve" smooth="yes"/>
      <point x="177" y="379"/>
      <point x="144" y="392"/>
      <point x="144" y="427" type="curve" smooth="yes"/>
      <point x="144" y="474"/>
      <point x="183" y="495"/>
      <point x="228" y="495" type="curve" smooth="yes"/>
      <point x="293" y="495"/>
      <point x="317" y="453"/>
      <point x="317" y="400" type="curve" smooth="yes"/>
      <point x="317" y="343"/>
      <point x="284" y="295"/>
      <point x="231" y="290" type="curve"/>
      <point x="194" y="290" type="line"/>
      <point x="184" y="289"/>
      <point x="179" y="278"/>
      <point x="179" y="267" type="curve" smooth="yes"/>
      <point x="179" y="257"/>
      <point x="184" y="247"/>
      <point x="194" y="247" type="curve"/>
    </contour>
  </outline>
</glyph>
<glyph name="four" format="1">
  <advance width="496"/>
  <unicode hex="0034"/>
  <outline>
    <contour>
      <point x="373" y="160" type="line"/>
      <point x="441" y="160" type="line" smooth="yes"/>
      <point x="455" y="160"/>
      <point x="460" y="172"/>
      <point x="460" y="185" type="curve"/>
      <point x="459" y="210"/>
      <point x="448" y="209"/>
      <point x="433" y="209" type="curve"/>
      <point x="373" y="209" type="line"/>
      <point x="373" y="499" type="line"/>
      <point x="372" y="524"/>
      <point x="353" y="534"/>
      <point x="334" y="534" type="curve" smooth="yes"/>
      <point x="323" y="534"/>
      <point x="311" y="532"/>
      <point x="303" y="524" type="curve"/>
      <point x="22" y="217" type="line"/>
      <point x="18" y="212"/>
      <point x="15" y="203"/>
      <point x="15" y="195" type="curve" smooth="yes"/>
      <point x="15" y="176"/>
      <point x="25" y="160"/>
      <point x="47" y="160" type="curve"/>
      <point x="286" y="160" type="line"/>
      <point x="286" y="7" type="line"/>
      <point x="288" y="-5"/>
      <point x="309" y="-12"/>
      <point x="330" y="-12" type="curve" smooth="yes"/>
      <point x="351" y="-12"/>
      <point x="373" y="-5"/>
      <point x="373" y="7" type="curve"/>
    </contour>
    <contour>
      <point x="73" y="209" type="line"/>
      <point x="286" y="446" type="line"/>
      <point x="286" y="209" type="line"/>
    </contour>
  </outline>
</glyph>
<glyph name="five" format="1">
  <advance width="485"/>
  <unicode hex="0035"/>
  <outline>
    <contour>
      <point x="160" y="279"/>
      <point x="191" y="295"/>
      <point x="224" y="294" type="curve" smooth="yes"/>
      <point x="305" y="291"/>
      <point x="335" y="227"/>
      <point x="335" y="158" type="curve" smooth="yes"/>
      <point x="335" y="89"/>
      <point x="292" y="17"/>
      <point x="215" y="16" type="curve"/>
      <point x="176" y="17"/>
      <point x="132" y="42"/>
      <point x="132" y="87" type="curve" smooth="yes"/>
      <point x="132" y="122"/>
      <point x="165" y="138"/>
      <point x="165" y="142" type="curve" smooth="yes"/>
      <point x="165" y="149"/>
      <point x="148" y="169"/>
      <point x="119" y="169" type="curve" smooth="yes"/>
      <point x="68" y="169"/>
      <point x="42" y="115"/>
      <point x="53" y="70" type="curve" smooth="yes"/>
      <point x="73" y="-9"/>
      <point x="177" y="-20"/>
      <point x="213" y="-20" type="curve"/>
      <point x="312" y="-20"/>
      <point x="431" y="43"/>
      <point x="431" y="163" type="curve" smooth="yes"/>
      <point x="431" y="287"/>
      <point x="322" y="338"/>
      <point x="243" y="338" type="curve" smooth="yes"/>
      <point x="200" y="338"/>
      <point x="163" y="326"/>
      <point x="135" y="310" type="curve"/>
      <point x="156" y="449" type="line"/>
      <point x="378" y="449" type="line"/>
      <point x="404" y="449"/>
      <point x="414" y="467"/>
      <point x="414" y="486" type="curve"/>
      <point x="412" y="523"/>
      <point x="392" y="520"/>
      <point x="365" y="520" type="curve"/>
      <point x="110" y="520" type="line"/>
      <point x="79" y="282" type="line"/>
      <point x="78" y="271"/>
      <point x="76" y="242"/>
      <point x="94" y="242" type="curve" smooth="yes"/>
      <point x="106" y="242"/>
      <point x="122" y="253"/>
      <point x="129" y="258" type="curve"/>
    </contour>
  </outline>
</glyph>
<glyph name="six" format="1">
  <advance width="509"/>
  <unicode hex="0036"/>
  <outline>
    <contour>
      <point x="392" y="498"/>
      <point x="395" y="508"/>
      <point x="395" y="515" type="curve" smooth="yes"/>
      <point x="395" y="534"/>
      <point x="381" y="535"/>
      <point x="360" y="532" type="curve"/>
      <point x="178" y="499"/>
      <point x="53" y="364"/>
      <point x="53" y="200" type="curve" smooth="yes"/>
      <point x="53" y="62"/>
      <point x="136" y="-20"/>
      <point x="261" y="-20" type="curve" smooth="yes"/>
      <point x="366" y="-20"/>
      <point x="466" y="52"/>
      <point x="466" y="163" type="curve" smooth="yes"/>
      <point x="466" y="260"/>
      <point x="389" y="329"/>
      <point x="292" y="329" type="curve" smooth="yes"/>
      <point x="247" y="329"/>
      <point x="205" y="319"/>
      <point x="159" y="289" type="curve"/>
      <point x="181" y="381"/>
      <point x="249" y="454"/>
      <point x="377" y="494" type="curve"/>
    </contour>
    <contour>
      <point x="370" y="69"/>
      <point x="323" y="12"/>
      <point x="261" y="12" type="curve" smooth="yes"/>
      <point x="174" y="12"/>
      <point x="149" y="130"/>
      <point x="149" y="199" type="curve" smooth="yes"/>
      <point x="149" y="214"/>
      <point x="153" y="230"/>
      <point x="155" y="238" type="curve"/>
      <point x="186" y="266"/>
      <point x="224" y="284"/>
      <point x="258" y="284" type="curve" smooth="yes"/>
      <point x="324" y="284"/>
      <point x="370" y="233"/>
      <point x="370" y="154" type="curve" smooth="yes"/>
    </contour>
  </outline>
</glyph>
<glyph name="seven" format="1">
  <advance width="426"/>
  <unicode hex="0037"/>
  <outline>
    <contour>
      <point x="128" y="-6"/>
      <point x="145" y="-20"/>
      <point x="161" y="-20" type="curve" smooth="yes"/>
      <point x="176" y="-20"/>
      <point x="191" y="-12"/>
      <point x="202" y="12" type="curve"/>
      <point x="244" y="109"/>
      <point x="304" y="315"/>
      <point x="385" y="451" type="curve" smooth="yes"/>
      <point x="401" y="478"/>
      <point x="428" y="523"/>
      <point x="378" y="522" type="curve"/>
      <point x="73" y="522" type="line" smooth="yes"/>
      <point x="58" y="522"/>
      <point x="44" y="518"/>
      <point x="44" y="500" type="curve"/>
      <point x="40" y="383" type="line" smooth="yes"/>
      <point x="40" y="371"/>
      <point x="45" y="366"/>
      <point x="57" y="366" type="curve" smooth="yes"/>
      <point x="74" y="366"/>
      <point x="78" y="371"/>
      <point x="80" y="381" type="curve" smooth="yes"/>
      <point x="89" y="446"/>
      <point x="107" y="451"/>
      <point x="155" y="451" type="curve" smooth="yes"/>
      <point x="330" y="451" type="line"/>
      <point x="273" y="348"/>
      <point x="128" y="99"/>
      <point x="128" y="23" type="curve"/>
    </contour>
  </outline>
</glyph>
<glyph name="eight" format="1">
  <advance width="513"/>
  <unicode hex="0038"/>
  <outline>
    <contour>
      <point x="161" y="456"/>
      <point x="198" y="496"/>
      <point x="260" y="496" type="curve" smooth="yes"/>
      <point x="326" y="496"/>
      <point x="359" y="447"/>
      <point x="359" y="394" type="curve" smooth="yes"/>
      <point x="359" y="354"/>
      <point x="339" y="313"/>
      <point x="303" y="287" type="curve"/>
      <point x="228" y="318"/>
      <point x="161" y="350"/>
      <point x="161" y="404" type="curve" smooth="yes"/>
    </contour>
    <contour>
      <point x="458" y="195"/>
      <point x="425" y="232"/>
      <point x="337" y="269" type="curve"/>
      <point x="404" y="303"/>
      <point x="437" y="346"/>
      <point x="437" y="393" type="curve" smooth="yes"/>
      <point x="437" y="471"/>
      <point x="366" y="530"/>
      <point x="265" y="530" type="curve" smooth="yes"/>
      <point x="167" y="530"/>
      <point x="78" y="468"/>
      <point x="78" y="387" type="curve" smooth="yes"/>
      <point x="78" y="336"/>
      <point x="107" y="298"/>
      <point x="171" y="260" type="curve"/>
      <point x="97" y="228"/>
      <point x="54" y="187"/>
      <point x="54" y="126" type="curve" smooth="yes"/>
      <point x="54" y="42"/>
      <point x="130" y="-20"/>
      <point x="249" y="-20" type="curve" smooth="yes"/>
      <point x="374" y="-20"/>
      <point x="458" y="50"/>
      <point x="458" y="131" type="curve" smooth="yes"/>
    </contour>
    <contour>
      <point x="368" y="56"/>
      <point x="326" y="13"/>
      <point x="258" y="13" type="curve" smooth="yes"/>
      <point x="189" y="13"/>
      <point x="144" y="61"/>
      <point x="144" y="130" type="curve" smooth="yes"/>
      <point x="144" y="177"/>
      <point x="169" y="217"/>
      <point x="209" y="244" type="curve"/>
      <point x="305" y="201"/>
      <point x="368" y="175"/>
      <point x="368" y="113" type="curve" smooth="yes"/>
    </contour>
  </outline>
</glyph>
<glyph name="nine" format="1">
  <advance width="508"/>
  <unicode hex="0039"/>
  <outline>
    <contour>
      <point x="116" y="12"/>
      <point x="113" y="2"/>
      <point x="113" y="-5" type="curve" smooth="yes"/>
      <point x="113" y="-24"/>
      <point x="127" y="-25"/>
      <point x="148" y="-22" type="curve"/>
      <point x="330" y="11"/>
      <point x="455" y="146"/>
      <point x="455" y="310" type="curve" smooth="yes"/>
      <point x="455" y="448"/>
      <point x="372" y="530"/>
      <point x="247" y="530" type="curve" smooth="yes"/>
      <point x="142" y="530"/>
      <point x="42" y="458"/>
      <point x="42" y="347" type="curve" smooth="yes"/>
      <point x="42" y="250"/>
      <point x="119" y="181"/>
      <point x="216" y="181" type="curve" smooth="yes"/>
      <point x="261" y="181"/>
      <point x="303" y="191"/>
      <point x="349" y="221" type="curve"/>
      <point x="327" y="129"/>
      <point x="259" y="56"/>
      <point x="131" y="16" type="curve" smooth="yes"/>
    </contour>
    <contour>
      <point x="138" y="441"/>
      <point x="185" y="498"/>
      <point x="247" y="498" type="curve" smooth="yes"/>
      <point x="334" y="498"/>
      <point x="359" y="380"/>
      <point x="359" y="311" type="curve" smooth="yes"/>
      <point x="359" y="296"/>
      <point x="355" y="280"/>
      <point x="353" y="272" type="curve"/>
      <point x="322" y="244"/>
      <point x="284" y="226"/>
      <point x="250" y="226" type="curve" smooth="yes"/>
      <point x="184" y="226"/>
      <point x="138" y="277"/>
      <point x="138" y="356" type="curve" smooth="yes"/>
    </contour>
  </outline>
</glyph>
<glyph name="colon" format="1">
  <advance width="248"/>
  <unicode hex="003A"/>
  <outline>
    <contour>
      <point x="86" y="429"/>
      <point x="60" y="403"/>
      <point x="60" y="366" type="curve" smooth="yes"/>
      <point x="60" y="329"/>
      <point x="86" y="304"/>
      <point x="123" y="304" type="curve" smooth="yes"/>
      <point x="161" y="304"/>
      <point x="187" y="329"/>
      <point x="187" y="366" type="curve" smooth="yes"/>
      <point x="187" y="403"/>
      <point x="161" y="429"/>
      <point x="124" y="429" type="curve"/>
    </contour>
    <contour>
      <point x="162" y="-12"/>
      <point x="188" y="13"/>
      <point x="188" y="52" type="curve" smooth="yes"/>
      <point x="188" y="87"/>
      <point x="162" y="113"/>
      <point x="124" y="113" type="curve" smooth="yes"/>
      <point x="87" y="113"/>
      <point x="60" y="87"/>
      <point x="60" y="52" type="curve" smooth="yes"/>
      <point x="60" y="13"/>
      <point x="87" y="-12"/>
      <point x="123" y="-12" type="curve"/>
    </contour>
  </outline>
</glyph>
<glyph name="semicolon" format="1">
  <advance width="261"/>
  <unicode hex="003B"/>
  <outline>
    <contour>
      <point x="93" y="426"/>
      <point x="64" y="400"/>
      <point x="64" y="363" type="curve" smooth="yes"/>
      <point x="64" y="327"/>
      <point x="93" y="301"/>
      <point x="127" y="301" type="curve" smooth="yes"/>
      <point x="165" y="301"/>
      <point x="191" y="327"/>
      <point x="191" y="363" type="curve" smooth="yes"/>
      <point x="191" y="400"/>
      <point x="165" y="426"/>
      <point x="128" y="426" type="curve"/>
    </contour>
    <contour>
      <point x="58" y="51"/>
      <point x="133" y="49"/>
      <point x="133" y="0" type="curve" smooth="yes"/>
      <point x="133" y="-40"/>
      <point x="104" y="-68"/>
      <point x="48" y="-89" type="curve" smooth="yes"/>
      <point x="28" y="-97"/>
      <point x="41" y="-127"/>
      <point x="61" y="-120" type="curve"/>
      <point x="130" y="-100"/>
      <point x="209" y="-55"/>
      <point x="209" y="28" type="curve" smooth="yes"/>
      <point x="209" y="84"/>
      <point x="166" y="147"/>
      <point x="108" y="147" type="curve" smooth="yes"/>
      <point x="80" y="147"/>
      <point x="58" y="122"/>
      <point x="58" y="97" type="curve" smooth="yes"/>
    </contour>
  </outline>
</glyph>
<glyph name="less" format="1">
  <advance width="529"/>
  <unicode hex="003C"/>
  <outline>
    <contour>
      <point x="441" y="27" type="line"/>
      <point x="459" y="19"/>
      <point x="472" y="31"/>
      <point x="475" y="44" type="curve" smooth="yes"/>
      <point x="478" y="58"/>
      <point x="475" y="73"/>
      <point x="458" y="82" type="curve"/>
      <point x="124" y="256" type="line"/>
      <point x="124" y="259" type="line"/>
      <point x="458" y="433" type="line"/>
      <point x="475" y="442"/>
      <point x="478" y="457"/>
      <point x="475" y="471" type="curve" smooth="yes"/>
      <point x="472" y="484"/>
      <point x="459" y="496"/>
      <point x="441" y="488" type="curve"/>
      <point x="49" y="282" type="line"/>
      <point x="40" y="277"/>
      <point x="36" y="266"/>
      <point x="36" y="257" type="curve" smooth="yes"/>
      <point x="36" y="246"/>
      <point x="40" y="238"/>
      <point x="49" y="232" type="curve"/>
    </contour>
  </outline>
</glyph>
<glyph name="equal" format="1">
  <advance width="630"/>
  <unicode hex="003D"/>
  <outline>
    <contour>
      <point x="539" y="147" type="line"/>
      <point x="553" y="147"/>
      <point x="562" y="161"/>
      <point x="562" y="174" type="curve" smooth="yes"/>
      <point x="562" y="188"/>
      <point x="553" y="201"/>
      <point x="539" y="201" type="curve" smooth="yes"/>
      <point x="91" y="201" type="line" smooth="yes"/>
      <point x="77" y="201"/>
      <point x="68" y="188"/>
      <point x="68" y="174" type="curve" smooth="yes"/>
      <point x="68" y="161"/>
      <point x="77" y="147"/>
      <point x="91" y="147" type="curve" smooth="yes"/>
    </contour>
    <contour>
      <point x="539" y="315" type="line"/>
      <point x="553" y="315"/>
      <point x="562" y="329"/>
      <point x="562" y="342" type="curve" smooth="yes"/>
      <point x="562" y="356"/>
      <point x="553" y="369"/>
      <point x="539" y="369" type="curve" smooth="yes"/>
      <point x="91" y="369" type="line" smooth="yes"/>
      <point x="77" y="369"/>
      <point x="68" y="356"/>
      <point x="68" y="342" type="curve" smooth="yes"/>
      <point x="68" y="329"/>
      <point x="77" y="315"/>
      <point x="91" y="315" type="curve" smooth="yes"/>
    </contour>
  </outline>
</glyph>
<glyph name="greater" format="1">
  <advance width="529"/>
  <unicode hex="003E"/>
  <outline>
    <contour>
      <point x="480" y="232" type="line"/>
      <point x="489" y="238"/>
      <point x="493" y="246"/>
      <point x="493" y="257" type="curve" smooth="yes"/>
      <point x="493" y="266"/>
      <point x="489" y="277"/>
      <point x="480" y="282" type="curve" smooth="yes"/>
      <point x="88" y="488" type="line"/>
      <point x="70" y="496"/>
      <point x="57" y="484"/>
      <point x="54" y="471" type="curve" smooth="yes"/>
      <point x="51" y="457"/>
      <point x="54" y="442"/>
      <point x="71" y="433" type="curve" smooth="yes"/>
      <point x="405" y="259" type="line"/>
      <point x="405" y="256" type="line"/>
      <point x="71" y="82" type="line" smooth="yes"/>
      <point x="54" y="73"/>
      <point x="51" y="58"/>
      <point x="54" y="44" type="curve" smooth="yes"/>
      <point x="57" y="31"/>
      <point x="70" y="19"/>
      <point x="88" y="27" type="curve"/>
    </contour>
  </outline>
</glyph>
<glyph name="question" format="1">
  <advance width="435"/>
  <unicode hex="003F"/>
  <outline>
    <contour>
      <point x="249" y="-12"/>
      <point x="276" y="14"/>
      <point x="276" y="52" type="curve" smooth="yes"/>
      <point x="276" y="87"/>
      <point x="249" y="115"/>
      <point x="212" y="115" type="curve" smooth="yes"/>
      <point x="175" y="115"/>
      <point x="148" y="87"/>
      <point x="148" y="52" type="curve" smooth="yes"/>
      <point x="148" y="14"/>
      <point x="175" y="-12"/>
      <point x="211" y="-12" type="curve" smooth="yes"/>
    </contour>
    <contour>
      <point x="171" y="687"/>
      <point x="67" y="676"/>
      <point x="47" y="597" type="curve" smooth="yes"/>
      <point x="36" y="552"/>
      <point x="62" y="498"/>
      <point x="113" y="498" type="curve" smooth="yes"/>
      <point x="142" y="498"/>
      <point x="159" y="518"/>
      <point x="159" y="525" type="curve" smooth="yes"/>
      <point x="159" y="529"/>
      <point x="126" y="545"/>
      <point x="126" y="580" type="curve" smooth="yes"/>
      <point x="126" y="626"/>
      <point x="172" y="651"/>
      <point x="212" y="651" type="curve"/>
      <point x="278" y="652"/>
      <point x="313" y="609"/>
      <point x="313" y="557" type="curve" smooth="yes"/>
      <point x="313" y="502"/>
      <point x="263" y="471"/>
      <point x="213" y="439" type="curve" smooth="yes"/>
      <point x="161" y="406"/>
      <point x="108" y="372"/>
      <point x="108" y="310" type="curve" smooth="yes"/>
      <point x="108" y="234"/>
      <point x="166" y="187"/>
      <point x="226" y="187" type="curve" smooth="yes"/>
      <point x="259" y="187"/>
      <point x="298" y="204"/>
      <point x="327" y="233" type="curve"/>
      <point x="344" y="252"/>
      <point x="327" y="271"/>
      <point x="305" y="273" type="curve" smooth="yes"/>
      <point x="295" y="274"/>
      <point x="282" y="271"/>
      <point x="270" y="259" type="curve"/>
      <point x="252" y="241"/>
      <point x="232" y="228"/>
      <point x="209" y="228" type="curve" smooth="yes"/>
      <point x="191" y="228"/>
      <point x="170" y="246"/>
      <point x="170" y="271" type="curve" smooth="yes"/>
      <point x="170" y="322"/>
      <point x="219" y="356"/>
      <point x="269" y="390" type="curve" smooth="yes"/>
      <point x="326" y="428"/>
      <point x="389" y="474"/>
      <point x="389" y="548" type="curve" smooth="yes"/>
      <point x="389" y="652"/>
      <point x="301" y="689"/>
      <point x="207" y="687" type="curve"/>
    </contour>
  </outline>
</glyph>
<glyph name="at" format="1">
  <advance width="878"/>
  <unicode hex="0040"/>
  <outline>
    <contour>
      <point x="638" y="-68"/>
      <point x="564" y="-98"/>
      <point x="462" y="-98" type="curve" smooth="yes"/>
      <point x="277" y="-98"/>
      <point x="137" y="9"/>
      <point x="137" y="227" type="curve" smooth="yes"/>
      <point x="137" y="453"/>
      <point x="325" y="582"/>
      <point x="495" y="582" type="curve" smooth="yes"/>
      <point x="689" y="582"/>
      <point x="787" y="471"/>
      <point x="787" y="333" type="curve" smooth="yes"/>
      <point x="787" y="194"/>
      <point x="710" y="97"/>
      <point x="609" y="97" type="curve" smooth="yes"/>
      <point x="561" y="97"/>
      <point x="559" y="144"/>
      <point x="574" y="182" type="curve" smooth="yes"/>
      <point x="658" y="399" type="line"/>
      <point x="664" y="424"/>
      <point x="636" y="438"/>
      <point x="616" y="438" type="curve" smooth="yes"/>
      <point x="604" y="438"/>
      <point x="592" y="434"/>
      <point x="587" y="424" type="curve" smooth="yes"/>
      <point x="571" y="388" type="line"/>
      <point x="560" y="424"/>
      <point x="529" y="439"/>
      <point x="492" y="439" type="curve" smooth="yes"/>
      <point x="351" y="439"/>
      <point x="258" y="281"/>
      <point x="258" y="192" type="curve" smooth="yes"/>
      <point x="258" y="97"/>
      <point x="316" y="63"/>
      <point x="374" y="63" type="curve" smooth="yes"/>
      <point x="416" y="63"/>
      <point x="459" y="92"/>
      <point x="492" y="137" type="curve"/>
      <point x="497" y="87"/>
      <point x="542" y="61"/>
      <point x="598" y="61" type="curve" smooth="yes"/>
      <point x="737" y="61"/>
      <point x="835" y="182"/>
      <point x="835" y="328" type="curve" smooth="yes"/>
      <point x="835" y="486"/>
      <point x="724" y="627"/>
      <point x="501" y="627" type="curve" smooth="yes"/>
      <point x="229" y="627"/>
      <point x="51" y="427"/>
      <point x="51" y="219" type="curve" smooth="yes"/>
      <point x="51" y="-25"/>
      <point x="261" y="-141"/>
      <point x="459" y="-141" type="curve" smooth="yes"/>
      <point x="564" y="-141"/>
      <point x="653" y="-109"/>
      <point x="720" y="-61" type="curve" smooth="yes"/>
      <point x="735" y="-50"/>
      <point x="724" y="-20"/>
      <point x="706" y="-30" type="curve" smooth="yes"/>
    </contour>
    <contour>
      <point x="497" y="188" type="line"/>
      <point x="467" y="120"/>
      <point x="345" y="61"/>
      <point x="345" y="173" type="curve" smooth="yes"/>
      <point x="345" y="261"/>
      <point x="423" y="406"/>
      <point x="489" y="406" type="curve" smooth="yes"/>
      <point x="526" y="406"/>
      <point x="547" y="383"/>
      <point x="554" y="339" type="curve"/>
    </contour>
  </outline>
</glyph>
<glyph name="A" format="1">
  <advance width="653"/>
  <unicode hex="0041"/>
  <outline>
    <contour>
      <point x="302" y="500" type="line"/>
      <point x="305" y="500" type="line"/>
      <point x="406" y="243" type="line"/>
      <point x="196" y="243" type="line"/>
    </contour>
    <contour>
      <point x="214" y="637"/>
      <point x="196" y="640"/>
      <point x="196" y="617" type="curve" smooth="yes"/>
      <point x="196" y="597"/>
      <point x="201" y="598"/>
      <point x="221" y="594" type="curve" smooth="yes"/>
      <point x="254" y="588"/>
      <point x="287" y="578"/>
      <point x="268" y="531" type="curve"/>
      <point x="93" y="117" type="line"/>
      <point x="76" y="79"/>
      <point x="66" y="39"/>
      <point x="13" y="40" type="curve"/>
      <point x="-1" y="40"/>
      <point x="-11" y="42"/>
      <point x="-12" y="19" type="curve" smooth="yes"/>
      <point x="-12" y="8"/>
      <point x="-7" y="-3"/>
      <point x="6" y="-3" type="curve"/>
      <point x="49" y="-1"/>
      <point x="63" y="0"/>
      <point x="103" y="0" type="curve" smooth="yes"/>
      <point x="143" y="0"/>
      <point x="169" y="-1"/>
      <point x="212" y="-3" type="curve"/>
      <point x="224" y="-3"/>
      <point x="230" y="8"/>
      <point x="230" y="19" type="curve" smooth="yes"/>
      <point x="229" y="42"/>
      <point x="219" y="40"/>
      <point x="205" y="40" type="curve"/>
      <point x="127" y="40"/>
      <point x="123" y="49"/>
      <point x="145" y="117" type="curve" smooth="yes"/>
      <point x="146" y="119"/>
      <point x="146" y="124"/>
      <point x="177" y="200" type="curve"/>
      <point x="424" y="200" type="line"/>
      <point x="458" y="117" type="line" smooth="yes"/>
      <point x="477" y="62"/>
      <point x="479" y="40"/>
      <point x="414" y="40" type="curve"/>
      <point x="400" y="40"/>
      <point x="390" y="42"/>
      <point x="389" y="19" type="curve" smooth="yes"/>
      <point x="389" y="8"/>
      <point x="394" y="-3"/>
      <point x="407" y="-3" type="curve"/>
      <point x="450" y="-1"/>
      <point x="491" y="0"/>
      <point x="531" y="0" type="curve" smooth="yes"/>
      <point x="571" y="0"/>
      <point x="598" y="-1"/>
      <point x="641" y="-3" type="curve"/>
      <point x="653" y="-3"/>
      <point x="659" y="8"/>
      <point x="659" y="19" type="curve" smooth="yes"/>
      <point x="658" y="42"/>
      <point x="648" y="40"/>
      <point x="634" y="40" type="curve"/>
      <point x="591" y="41"/>
      <point x="577" y="82"/>
      <point x="563" y="117" type="curve" smooth="yes"/>
      <point x="395" y="531" type="line"/>
      <point x="359" y="620"/>
      <point x="318" y="636"/>
      <point x="236" y="637" type="curve" smooth="yes"/>
    </contour>
    <contour>
      <point x="283" y="650" type="move" name="top"/>
    </contour>
  </outline>
</glyph>
<glyph name="B" format="1">
  <advance width="621"/>
  <unicode hex="0042"/>
  <outline>
    <contour>
      <point x="247" y="39"/>
      <point x="231" y="50"/>
      <point x="231" y="117" type="curve" smooth="yes"/>
      <point x="231" y="316" type="line"/>
      <point x="272" y="316" type="line" smooth="yes"/>
      <point x="414" y="316"/>
      <point x="460" y="255"/>
      <point x="466" y="192" type="curve"/>
      <point x="466" y="76"/>
      <point x="392" y="40"/>
      <point x="303" y="39" type="curve" smooth="yes"/>
    </contour>
    <contour>
      <point x="301" y="594" type="line"/>
      <point x="389" y="594"/>
      <point x="418" y="545"/>
      <point x="418" y="475" type="curve" smooth="yes"/>
      <point x="418" y="356"/>
      <point x="327" y="356"/>
      <point x="273" y="356" type="curve" smooth="yes"/>
      <point x="231" y="356" type="line"/>
      <point x="231" y="594" type="line"/>
    </contour>
    <contour>
      <point x="299" y="-1" type="line"/>
      <point x="418" y="-1"/>
      <point x="578" y="41"/>
      <point x="574" y="192" type="curve" smooth="yes"/>
      <point x="572" y="269"/>
      <point x="496" y="337"/>
      <point x="390" y="336" type="curve"/>
      <point x="390" y="339" type="line"/>
      <point x="450" y="353"/>
      <point x="525" y="396"/>
      <point x="525" y="487" type="curve" smooth="yes"/>
      <point x="525" y="533"/>
      <point x="504" y="575"/>
      <point x="469" y="598" type="curve" smooth="yes"/>
      <point x="435" y="619"/>
      <point x="396" y="631"/>
      <point x="319" y="631" type="curve" smooth="yes"/>
      <point x="178" y="631" type="line" smooth="yes"/>
      <point x="138" y="631"/>
      <point x="103" y="632"/>
      <point x="60" y="634" type="curve" smooth="yes"/>
      <point x="47" y="634"/>
      <point x="42" y="623"/>
      <point x="42" y="612" type="curve" smooth="yes"/>
      <point x="43" y="589"/>
      <point x="53" y="591"/>
      <point x="67" y="591" type="curve" smooth="yes"/>
      <point x="130" y="591"/>
      <point x="131" y="552"/>
      <point x="132" y="514" type="curve"/>
      <point x="132" y="117" type="line"/>
      <point x="131" y="79"/>
      <point x="130" y="40"/>
      <point x="67" y="40" type="curve" smooth="yes"/>
      <point x="53" y="40"/>
      <point x="43" y="42"/>
      <point x="42" y="19" type="curve" smooth="yes"/>
      <point x="42" y="8"/>
      <point x="47" y="-3"/>
      <point x="60" y="-3" type="curve" smooth="yes"/>
      <point x="103" y="-1"/>
      <point x="139" y="0"/>
      <point x="179" y="0" type="curve" smooth="yes"/>
    </contour>
  </outline>
</glyph>
<glyph name="C" format="1">
  <advance width="639"/>
  <unicode hex="0043"/>
  <outline>
    <contour>
      <point x="596" y="616"/>
      <point x="473" y="651"/>
      <point x="376" y="651" type="curve" smooth="yes"/>
      <point x="176" y="651"/>
      <point x="49" y="515"/>
      <point x="49" y="311" type="curve" smooth="yes"/>
      <point x="49" y="105"/>
      <point x="190" y="-20"/>
      <point x="358" y="-20" type="curve" smooth="yes"/>
      <point x="470" y="-20"/>
      <point x="524" y="-1"/>
      <point x="600" y="95" type="curve" smooth="yes"/>
      <point x="609" y="107"/>
      <point x="600" y="119"/>
      <point x="588" y="127" type="curve" smooth="yes"/>
      <point x="573" y="136"/>
      <point x="562" y="135"/>
      <point x="556" y="124" type="curve"/>
      <point x="514" y="57"/>
      <point x="466" y="29"/>
      <point x="394" y="29" type="curve" smooth="yes"/>
      <point x="257" y="29"/>
      <point x="166" y="157"/>
      <point x="166" y="317" type="curve" smooth="yes"/>
      <point x="166" y="506"/>
      <point x="254" y="611"/>
      <point x="375" y="611" type="curve" smooth="yes"/>
      <point x="448" y="611"/>
      <point x="490" y="573"/>
      <point x="490" y="513" type="curve" smooth="yes"/>
      <point x="490" y="460"/>
      <point x="440" y="444"/>
      <point x="440" y="438" type="curve" smooth="yes"/>
      <point x="439" y="429"/>
      <point x="454" y="402"/>
      <point x="494" y="402" type="curve" smooth="yes"/>
      <point x="559" y="402"/>
      <point x="597" y="453"/>
      <point x="596" y="510" type="curve"/>
    </contour>
  </outline>
</glyph>
<glyph name="D" format="1">
  <advance width="728"/>
  <unicode hex="0044"/>
  <outline>
    <contour>
      <point x="179" y="631" type="line"/>
      <point x="139" y="631"/>
      <point x="104" y="632"/>
      <point x="60" y="634" type="curve" smooth="yes"/>
      <point x="48" y="634"/>
      <point x="43" y="623"/>
      <point x="43" y="612" type="curve" smooth="yes"/>
      <point x="44" y="589"/>
      <point x="54" y="591"/>
      <point x="68" y="591" type="curve" smooth="yes"/>
      <point x="131" y="591"/>
      <point x="132" y="552"/>
      <point x="133" y="514" type="curve"/>
      <point x="133" y="117" type="line"/>
      <point x="132" y="79"/>
      <point x="131" y="40"/>
      <point x="68" y="40" type="curve" smooth="yes"/>
      <point x="54" y="40"/>
      <point x="44" y="42"/>
      <point x="43" y="19" type="curve" smooth="yes"/>
      <point x="43" y="8"/>
      <point x="48" y="-3"/>
      <point x="60" y="-3" type="curve" smooth="yes"/>
      <point x="104" y="-1"/>
      <point x="139" y="0"/>
      <point x="179" y="0" type="curve" smooth="yes"/>
      <point x="317" y="0" type="line" smooth="yes"/>
      <point x="496" y="0"/>
      <point x="679" y="98"/>
      <point x="679" y="312" type="curve" smooth="yes"/>
      <point x="679" y="513"/>
      <point x="526" y="631"/>
      <point x="335" y="631" type="curve" smooth="yes"/>
    </contour>
    <contour>
      <point x="558" y="147"/>
      <point x="494" y="37"/>
      <point x="332" y="37" type="curve" smooth="yes"/>
      <point x="264" y="37"/>
      <point x="232" y="51"/>
      <point x="232" y="105" type="curve" smooth="yes"/>
      <point x="232" y="594" type="line"/>
      <point x="245" y="594"/>
      <point x="288" y="595"/>
      <point x="310" y="595" type="curve" smooth="yes"/>
      <point x="468" y="595"/>
      <point x="558" y="476"/>
      <point x="558" y="312" type="curve" smooth="yes"/>
    </contour>
  </outline>
</glyph>
<glyph name="E" format="1">
  <advance width="594"/>
  <unicode hex="0045"/>
  <outline>
    <contour>
      <point x="179" y="631" type="line"/>
      <point x="139" y="631"/>
      <point x="104" y="632"/>
      <point x="60" y="634" type="curve" smooth="yes"/>
      <point x="48" y="634"/>
      <point x="43" y="623"/>
      <point x="43" y="612" type="curve" smooth="yes"/>
      <point x="44" y="589"/>
      <point x="54" y="591"/>
      <point x="68" y="591" type="curve" smooth="yes"/>
      <point x="131" y="591"/>
      <point x="132" y="552"/>
      <point x="133" y="514" type="curve"/>
      <point x="133" y="117" type="line"/>
      <point x="132" y="79"/>
      <point x="131" y="40"/>
      <point x="68" y="40" type="curve" smooth="yes"/>
      <point x="54" y="40"/>
      <point x="44" y="42"/>
      <point x="43" y="19" type="curve" smooth="yes"/>
      <point x="43" y="8"/>
      <point x="48" y="-3"/>
      <point x="60" y="-3" type="curve" smooth="yes"/>
      <point x="104" y="-1"/>
      <point x="140" y="0"/>
      <point x="180" y="0" type="curve" smooth="yes"/>
      <point x="510" y="0" type="line" smooth="yes"/>
      <point x="527" y="0"/>
      <point x="535" y="2"/>
      <point x="539" y="21" type="curve"/>
      <point x="559" y="147" type="line"/>
      <point x="560" y="160"/>
      <point x="546" y="168"/>
      <point x="535" y="170" type="curve" smooth="yes"/>
      <point x="520" y="172"/>
      <point x="506" y="169"/>
      <point x="501" y="156" type="curve"/>
      <point x="475" y="68"/>
      <point x="464" y="42"/>
      <point x="394" y="40" type="curve"/>
      <point x="302" y="40" type="line"/>
      <point x="233" y="38"/>
      <point x="234" y="79"/>
      <point x="232" y="105" type="curve"/>
      <point x="232" y="294" type="line"/>
      <point x="413" y="294" type="line" smooth="yes"/>
      <point x="423" y="294"/>
      <point x="428" y="304"/>
      <point x="428" y="314" type="curve" smooth="yes"/>
      <point x="428" y="325"/>
      <point x="423" y="336"/>
      <point x="413" y="337" type="curve"/>
      <point x="232" y="337" type="line"/>
      <point x="232" y="591" type="line"/>
      <point x="366" y="591" type="line"/>
      <point x="435" y="589"/>
      <point x="450" y="555"/>
      <point x="464" y="465" type="curve" smooth="yes"/>
      <point x="466" y="453"/>
      <point x="480" y="447"/>
      <point x="495" y="447" type="curve" smooth="yes"/>
      <point x="506" y="447"/>
      <point x="522" y="454"/>
      <point x="522" y="467" type="curve" smooth="yes"/>
      <point x="519" y="607" type="line" smooth="yes"/>
      <point x="519" y="626"/>
      <point x="508" y="631"/>
      <point x="493" y="631" type="curve" smooth="yes"/>
    </contour>
    <contour>
      <point x="315" y="650" type="move" name="top"/>
    </contour>
  </outline>
</glyph>
<glyph name="F" format="1">
  <advance width="525"/>
  <unicode hex="0046"/>
  <outline>
    <contour>
      <point x="133" y="117" type="line"/>
      <point x="132" y="79"/>
      <point x="131" y="40"/>
      <point x="68" y="40" type="curve" smooth="yes"/>
      <point x="54" y="40"/>
      <point x="44" y="42"/>
      <point x="43" y="19" type="curve" smooth="yes"/>
      <point x="43" y="8"/>
      <point x="48" y="-3"/>
      <point x="60" y="-3" type="curve" smooth="yes"/>
      <point x="103" y="-1"/>
      <point x="140" y="0"/>
      <point x="180" y="0" type="curve" smooth="yes"/>
      <point x="220" y="0"/>
      <point x="261" y="-1"/>
      <point x="304" y="-3" type="curve" smooth="yes"/>
      <point x="317" y="-3"/>
      <point x="322" y="8"/>
      <point x="322" y="19" type="curve" smooth="yes"/>
      <point x="321" y="42"/>
      <point x="310" y="40"/>
      <point x="297" y="40" type="curve" smooth="yes"/>
      <point x="234" y="40"/>
      <point x="233" y="79"/>
      <point x="232" y="117" type="curve"/>
      <point x="232" y="288" type="line"/>
      <point x="411" y="288" type="line" smooth="yes"/>
      <point x="422" y="288"/>
      <point x="427" y="298"/>
      <point x="427" y="308" type="curve" smooth="yes"/>
      <point x="427" y="319"/>
      <point x="422" y="330"/>
      <point x="411" y="331" type="curve"/>
      <point x="232" y="331" type="line"/>
      <point x="232" y="591" type="line"/>
      <point x="341" y="591" type="line"/>
      <point x="410" y="589"/>
      <point x="425" y="555"/>
      <point x="438" y="465" type="curve" smooth="yes"/>
      <point x="440" y="453"/>
      <point x="455" y="447"/>
      <point x="470" y="447" type="curve" smooth="yes"/>
      <point x="480" y="447"/>
      <point x="497" y="454"/>
      <point x="497" y="467" type="curve" smooth="yes"/>
      <point x="494" y="607" type="line" smooth="yes"/>
      <point x="494" y="626"/>
      <point x="482" y="631"/>
      <point x="468" y="631" type="curve" smooth="yes"/>
      <point x="179" y="631" type="line" smooth="yes"/>
      <point x="139" y="631"/>
      <point x="103" y="632"/>
      <point x="60" y="634" type="curve" smooth="yes"/>
      <point x="48" y="634"/>
      <point x="43" y="623"/>
      <point x="43" y="612" type="curve" smooth="yes"/>
      <point x="44" y="589"/>
      <point x="54" y="591"/>
      <point x="68" y="591" type="curve" smooth="yes"/>
      <point x="131" y="591"/>
      <point x="132" y="552"/>
      <point x="133" y="514" type="curve"/>
    </contour>
  </outline>
</glyph>
<glyph name="G" format="1">
  <advance width="692"/>
  <unicode hex="0047"/>
  <outline>
    <contour>
      <point x="590" y="147" type="line" smooth="yes"/>
      <point x="590" y="198"/>
      <point x="590" y="224"/>
      <point x="646" y="224" type="curve" smooth="yes"/>
      <point x="661" y="224"/>
      <point x="673" y="222"/>
      <point x="674" y="245" type="curve" smooth="yes"/>
      <point x="674" y="256"/>
      <point x="668" y="267"/>
      <point x="655" y="267" type="curve" smooth="yes"/>
      <point x="613" y="265"/>
      <point x="592" y="264"/>
      <point x="547" y="264" type="curve"/>
      <point x="501" y="264"/>
      <point x="479" y="265"/>
      <point x="437" y="267" type="curve" smooth="yes"/>
      <point x="423" y="267"/>
      <point x="416" y="256"/>
      <point x="416" y="245" type="curve" smooth="yes"/>
      <point x="417" y="222"/>
      <point x="430" y="224"/>
      <point x="444" y="224" type="curve" smooth="yes"/>
      <point x="504" y="224"/>
      <point x="502" y="202"/>
      <point x="502" y="147" type="curve"/>
      <point x="502" y="45" type="line"/>
      <point x="466" y="34"/>
      <point x="438" y="29"/>
      <point x="394" y="29" type="curve" smooth="yes"/>
      <point x="257" y="29"/>
      <point x="166" y="137"/>
      <point x="166" y="317" type="curve" smooth="yes"/>
      <point x="166" y="506"/>
      <point x="263" y="611"/>
      <point x="386" y="611" type="curve" smooth="yes"/>
      <point x="455" y="611"/>
      <point x="504" y="574"/>
      <point x="504" y="517" type="curve" smooth="yes"/>
      <point x="504" y="462"/>
      <point x="454" y="443"/>
      <point x="454" y="438" type="curve" smooth="yes"/>
      <point x="455" y="415"/>
      <point x="490" y="402"/>
      <point x="515" y="402" type="curve" smooth="yes"/>
      <point x="575" y="402"/>
      <point x="610" y="455"/>
      <point x="610" y="510" type="curve" smooth="yes"/>
      <point x="610" y="611"/>
      <point x="491" y="651"/>
      <point x="398" y="651" type="curve" smooth="yes"/>
      <point x="193" y="651"/>
      <point x="49" y="515"/>
      <point x="49" y="311" type="curve" smooth="yes"/>
      <point x="49" y="85"/>
      <point x="190" y="-20"/>
      <point x="359" y="-20" type="curve" smooth="yes"/>
      <point x="459" y="-20"/>
      <point x="512" y="-8"/>
      <point x="590" y="29" type="curve"/>
    </contour>
  </outline>
</glyph>
<glyph name="H" format="1">
  <advance width="777"/>
  <unicode hex="0048"/>
  <outline>
    <contour>
      <point x="546" y="294" type="line"/>
      <point x="546" y="117" type="line"/>
      <point x="545" y="79"/>
      <point x="544" y="40"/>
      <point x="481" y="40" type="curve" smooth="yes"/>
      <point x="467" y="40"/>
      <point x="456" y="42"/>
      <point x="455" y="19" type="curve" smooth="yes"/>
      <point x="455" y="8"/>
      <point x="461" y="-3"/>
      <point x="473" y="-3" type="curve" smooth="yes"/>
      <point x="516" y="-1"/>
      <point x="557" y="0"/>
      <point x="597" y="0" type="curve" smooth="yes"/>
      <point x="637" y="0"/>
      <point x="674" y="-1"/>
      <point x="717" y="-3" type="curve" smooth="yes"/>
      <point x="729" y="-3"/>
      <point x="735" y="8"/>
      <point x="735" y="19" type="curve" smooth="yes"/>
      <point x="734" y="42"/>
      <point x="723" y="40"/>
      <point x="710" y="40" type="curve" smooth="yes"/>
      <point x="647" y="40"/>
      <point x="645" y="79"/>
      <point x="644" y="117" type="curve"/>
      <point x="644" y="514" type="line"/>
      <point x="645" y="552"/>
      <point x="647" y="591"/>
      <point x="710" y="591" type="curve" smooth="yes"/>
      <point x="723" y="591"/>
      <point x="734" y="589"/>
      <point x="735" y="612" type="curve" smooth="yes"/>
      <point x="735" y="623"/>
      <point x="729" y="634"/>
      <point x="717" y="634" type="curve" smooth="yes"/>
      <point x="674" y="632"/>
      <point x="638" y="631"/>
      <point x="598" y="631" type="curve" smooth="yes"/>
      <point x="558" y="631"/>
      <point x="516" y="632"/>
      <point x="473" y="634" type="curve" smooth="yes"/>
      <point x="461" y="634"/>
      <point x="455" y="623"/>
      <point x="455" y="612" type="curve" smooth="yes"/>
      <point x="456" y="589"/>
      <point x="467" y="591"/>
      <point x="481" y="591" type="curve" smooth="yes"/>
      <point x="544" y="591"/>
      <point x="545" y="552"/>
      <point x="546" y="514" type="curve"/>
      <point x="546" y="337" type="line"/>
      <point x="232" y="337" type="line"/>
      <point x="232" y="514" type="line"/>
      <point x="233" y="552"/>
      <point x="234" y="591"/>
      <point x="297" y="591" type="curve" smooth="yes"/>
      <point x="311" y="591"/>
      <point x="321" y="589"/>
      <point x="322" y="612" type="curve" smooth="yes"/>
      <point x="322" y="623"/>
      <point x="317" y="634"/>
      <point x="304" y="634" type="curve" smooth="yes"/>
      <point x="261" y="632"/>
      <point x="219" y="631"/>
      <point x="179" y="631" type="curve" smooth="yes"/>
      <point x="139" y="631"/>
      <point x="104" y="632"/>
      <point x="61" y="634" type="curve" smooth="yes"/>
      <point x="48" y="634"/>
      <point x="43" y="623"/>
      <point x="43" y="612" type="curve" smooth="yes"/>
      <point x="44" y="589"/>
      <point x="54" y="591"/>
      <point x="68" y="591" type="curve" smooth="yes"/>
      <point x="131" y="591"/>
      <point x="132" y="552"/>
      <point x="133" y="514" type="curve"/>
      <point x="133" y="117" type="line"/>
      <point x="132" y="79"/>
      <point x="131" y="40"/>
      <point x="68" y="40" type="curve" smooth="yes"/>
      <point x="54" y="40"/>
      <point x="44" y="42"/>
      <point x="43" y="19" type="curve" smooth="yes"/>
      <point x="43" y="8"/>
      <point x="48" y="-3"/>
      <point x="61" y="-3" type="curve" smooth="yes"/>
      <point x="104" y="-1"/>
      <point x="140" y="0"/>
      <point x="180" y="0" type="curve" smooth="yes"/>
      <point x="220" y="0"/>
      <point x="261" y="-1"/>
      <point x="304" y="-3" type="curve" smooth="yes"/>
      <point x="317" y="-3"/>
      <point x="322" y="8"/>
      <point x="322" y="19" type="curve" smooth="yes"/>
      <point x="321" y="42"/>
      <point x="311" y="40"/>
      <point x="297" y="40" type="curve" smooth="yes"/>
      <point x="234" y="40"/>
      <point x="233" y="79"/>
      <point x="232" y="117" type="curve"/>
      <point x="232" y="294" type="line"/>
    </contour>
  </outline>
</glyph>
<glyph name="I" format="1">
  <advance width="364"/>
  <unicode hex="0049"/>
  <outline>
    <contour>
      <point x="231" y="514" type="line"/>
      <point x="232" y="552"/>
      <point x="233" y="591"/>
      <point x="296" y="591" type="curve" smooth="yes"/>
      <point x="310" y="591"/>
      <point x="320" y="589"/>
      <point x="322" y="612" type="curve" smooth="yes"/>
      <point x="322" y="623"/>
      <point x="316" y="634"/>
      <point x="304" y="634" type="curve"/>
      <point x="261" y="632"/>
      <point x="219" y="631"/>
      <point x="179" y="631" type="curve"/>
      <point x="139" y="631"/>
      <point x="103" y="632"/>
      <point x="60" y="634" type="curve" smooth="yes"/>
      <point x="47" y="634"/>
      <point x="42" y="623"/>
      <point x="42" y="612" type="curve" smooth="yes"/>
      <point x="43" y="589"/>
      <point x="54" y="591"/>
      <point x="67" y="591" type="curve" smooth="yes"/>
      <point x="130" y="591"/>
      <point x="131" y="552"/>
      <point x="133" y="514" type="curve"/>
      <point x="133" y="117" type="line"/>
      <point x="131" y="79"/>
      <point x="130" y="40"/>
      <point x="67" y="40" type="curve" smooth="yes"/>
      <point x="54" y="40"/>
      <point x="43" y="42"/>
      <point x="42" y="19" type="curve" smooth="yes"/>
      <point x="42" y="8"/>
      <point x="47" y="-3"/>
      <point x="60" y="-3" type="curve" smooth="yes"/>
      <point x="103" y="-1"/>
      <point x="140" y="0"/>
      <point x="180" y="0" type="curve" smooth="yes"/>
      <point x="220" y="0"/>
      <point x="261" y="-1"/>
      <point x="304" y="-3" type="curve" smooth="yes"/>
      <point x="316" y="-3"/>
      <point x="322" y="8"/>
      <point x="322" y="19" type="curve" smooth="yes"/>
      <point x="320" y="42"/>
      <point x="310" y="40"/>
      <point x="296" y="40" type="curve" smooth="yes"/>
      <point x="233" y="40"/>
      <point x="232" y="79"/>
      <point x="231" y="117" type="curve"/>
    </contour>
    <contour>
      <point x="179" y="650" type="move" name="top"/>
    </contour>
  </outline>
</glyph>
<glyph name="J" format="1">
  <advance width="345"/>
  <unicode hex="004A"/>
  <outline>
    <contour>
      <point x="175" y="-156"/>
      <point x="222" y="-31"/>
      <point x="222" y="128" type="curve" smooth="yes"/>
      <point x="222" y="514" type="line"/>
      <point x="223" y="552"/>
      <point x="224" y="591"/>
      <point x="287" y="591" type="curve" smooth="yes"/>
      <point x="301" y="591"/>
      <point x="312" y="589"/>
      <point x="313" y="612" type="curve" smooth="yes"/>
      <point x="313" y="623"/>
      <point x="307" y="634"/>
      <point x="295" y="634" type="curve" smooth="yes"/>
      <point x="252" y="632"/>
      <point x="210" y="631"/>
      <point x="170" y="631" type="curve" smooth="yes"/>
      <point x="130" y="631"/>
      <point x="94" y="632"/>
      <point x="51" y="634" type="curve" smooth="yes"/>
      <point x="39" y="634"/>
      <point x="33" y="623"/>
      <point x="33" y="612" type="curve" smooth="yes"/>
      <point x="34" y="589"/>
      <point x="45" y="591"/>
      <point x="59" y="591" type="curve" smooth="yes"/>
      <point x="122" y="591"/>
      <point x="123" y="552"/>
      <point x="124" y="514" type="curve"/>
      <point x="124" y="162" type="line" smooth="yes"/>
      <point x="124" y="-10"/>
      <point x="115" y="-107"/>
      <point x="12" y="-150" type="curve"/>
      <point x="1" y="-154"/>
      <point x="-1" y="-164"/>
      <point x="2" y="-175" type="curve" smooth="yes"/>
      <point x="6" y="-188"/>
      <point x="13" y="-194"/>
      <point x="25" y="-192" type="curve"/>
    </contour>
  </outline>
</glyph>
<glyph name="K" format="1">
  <advance width="700"/>
  <unicode hex="004B"/>
  <outline>
    <contour>
      <point x="417" y="493"/>
      <point x="367" y="435"/>
      <point x="317" y="389" type="curve"/>
      <point x="286" y="363"/>
      <point x="255" y="338"/>
      <point x="232" y="333" type="curve"/>
      <point x="232" y="514" type="line"/>
      <point x="233" y="552"/>
      <point x="234" y="591"/>
      <point x="297" y="591" type="curve" smooth="yes"/>
      <point x="311" y="591"/>
      <point x="321" y="589"/>
      <point x="322" y="612" type="curve" smooth="yes"/>
      <point x="322" y="623"/>
      <point x="317" y="634"/>
      <point x="304" y="634" type="curve" smooth="yes"/>
      <point x="261" y="632"/>
      <point x="219" y="631"/>
      <point x="179" y="631" type="curve" smooth="yes"/>
      <point x="139" y="631"/>
      <point x="104" y="632"/>
      <point x="61" y="634" type="curve" smooth="yes"/>
      <point x="48" y="634"/>
      <point x="43" y="623"/>
      <point x="43" y="612" type="curve" smooth="yes"/>
      <point x="44" y="589"/>
      <point x="54" y="591"/>
      <point x="68" y="591" type="curve" smooth="yes"/>
      <point x="131" y="591"/>
      <point x="132" y="552"/>
      <point x="133" y="514" type="curve"/>
      <point x="133" y="117" type="line"/>
      <point x="132" y="79"/>
      <point x="131" y="40"/>
      <point x="68" y="40" type="curve" smooth="yes"/>
      <point x="54" y="40"/>
      <point x="44" y="42"/>
      <point x="43" y="19" type="curve" smooth="yes"/>
      <point x="43" y="8"/>
      <point x="48" y="-3"/>
      <point x="61" y="-3" type="curve" smooth="yes"/>
      <point x="104" y="-1"/>
      <point x="140" y="0"/>
      <point x="180" y="0" type="curve" smooth="yes"/>
      <point x="220" y="0"/>
      <point x="261" y="-1"/>
      <point x="304" y="-3" type="curve" smooth="yes"/>
      <point x="317" y="-3"/>
      <point x="322" y="8"/>
      <point x="322" y="19" type="curve" smooth="yes"/>
      <point x="321" y="42"/>
      <point x="311" y="40"/>
      <point x="297" y="40" type="curve" smooth="yes"/>
      <point x="234" y="40"/>
      <point x="233" y="79"/>
      <point x="232" y="117" type="curve"/>
      <point x="232" y="307" type="line"/>
      <point x="253" y="305"/>
      <point x="273" y="295"/>
      <point x="297" y="267" type="curve" smooth="yes"/>
      <point x="385" y="165"/>
      <point x="460" y="81"/>
      <point x="533" y="0" type="curve"/>
      <point x="597" y="0" type="line"/>
      <point x="637" y="0"/>
      <point x="639" y="-1"/>
      <point x="682" y="-3" type="curve" smooth="yes"/>
      <point x="695" y="-3"/>
      <point x="700" y="8"/>
      <point x="700" y="19" type="curve" smooth="yes"/>
      <point x="699" y="41"/>
      <point x="686" y="39"/>
      <point x="675" y="40" type="curve"/>
      <point x="630" y="45"/>
      <point x="609" y="72"/>
      <point x="564" y="117" type="curve"/>
      <point x="507" y="178"/>
      <point x="419" y="259"/>
      <point x="341" y="354" type="curve"/>
      <point x="341" y="354"/>
      <point x="458" y="476"/>
      <point x="503" y="523" type="curve" smooth="yes"/>
      <point x="557" y="577"/>
      <point x="603" y="592"/>
      <point x="653" y="590" type="curve"/>
      <point x="663" y="590"/>
      <point x="671" y="591"/>
      <point x="673" y="611" type="curve"/>
      <point x="673" y="623"/>
      <point x="667" y="634"/>
      <point x="654" y="634" type="curve" smooth="yes"/>
      <point x="628" y="633"/>
      <point x="590" y="631"/>
      <point x="563" y="631" type="curve" smooth="yes"/>
      <point x="528" y="631"/>
      <point x="488" y="631"/>
      <point x="453" y="634" type="curve"/>
      <point x="442" y="634"/>
      <point x="435" y="623"/>
      <point x="435" y="611" type="curve" smooth="yes"/>
      <point x="437" y="597"/>
      <point x="440" y="591"/>
      <point x="449" y="590" type="curve"/>
      <point x="484" y="588"/>
      <point x="484" y="571"/>
      <point x="458" y="542" type="curve"/>
    </contour>
  </outline>
</glyph>
<glyph name="L" format="1">
  <advance width="571"/>
  <unicode hex="004C"/>
  <outline>
    <contour>
      <point x="232" y="514" type="line"/>
      <point x="233" y="552"/>
      <point x="234" y="591"/>
      <point x="297" y="591" type="curve" smooth="yes"/>
      <point x="310" y="591"/>
      <point x="321" y="589"/>
      <point x="322" y="612" type="curve" smooth="yes"/>
      <point x="322" y="623"/>
      <point x="317" y="634"/>
      <point x="304" y="634" type="curve" smooth="yes"/>
      <point x="261" y="632"/>
      <point x="219" y="631"/>
      <point x="179" y="631" type="curve"/>
      <point x="139" y="631"/>
      <point x="104" y="632"/>
      <point x="60" y="634" type="curve" smooth="yes"/>
      <point x="48" y="634"/>
      <point x="43" y="623"/>
      <point x="43" y="612" type="curve" smooth="yes"/>
      <point x="44" y="589"/>
      <point x="54" y="591"/>
      <point x="68" y="591" type="curve" smooth="yes"/>
      <point x="131" y="591"/>
      <point x="132" y="552"/>
      <point x="133" y="514" type="curve"/>
      <point x="133" y="117" type="line"/>
      <point x="132" y="79"/>
      <point x="131" y="40"/>
      <point x="68" y="40" type="curve" smooth="yes"/>
      <point x="54" y="40"/>
      <point x="44" y="42"/>
      <point x="43" y="19" type="curve" smooth="yes"/>
      <point x="43" y="8"/>
      <point x="48" y="-3"/>
      <point x="60" y="-3" type="curve" smooth="yes"/>
      <point x="104" y="-1"/>
      <point x="140" y="0"/>
      <point x="180" y="0" type="curve" smooth="yes"/>
      <point x="508" y="0" type="line" smooth="yes"/>
      <point x="525" y="0"/>
      <point x="533" y="2"/>
      <point x="537" y="21" type="curve"/>
      <point x="557" y="147" type="line"/>
      <point x="558" y="160"/>
      <point x="543" y="168"/>
      <point x="533" y="170" type="curve" smooth="yes"/>
      <point x="518" y="172"/>
      <point x="504" y="169"/>
      <point x="499" y="156" type="curve" smooth="yes"/>
      <point x="473" y="68"/>
      <point x="462" y="42"/>
      <point x="392" y="40" type="curve"/>
      <point x="302" y="40" type="line"/>
      <point x="233" y="38"/>
      <point x="234" y="76"/>
      <point x="232" y="102" type="curve"/>
    </contour>
  </outline>
</glyph>
<glyph name="M" format="1">
  <advance width="889"/>
  <unicode hex="004D"/>
  <outline>
    <contour>
      <point x="654" y="514" type="line"/>
      <point x="657" y="514" type="line"/>
      <point x="657" y="117" type="line"/>
      <point x="656" y="79"/>
      <point x="655" y="40"/>
      <point x="592" y="40" type="curve" smooth="yes"/>
      <point x="578" y="40"/>
      <point x="568" y="42"/>
      <point x="567" y="19" type="curve" smooth="yes"/>
      <point x="567" y="8"/>
      <point x="572" y="-3"/>
      <point x="585" y="-3" type="curve" smooth="yes"/>
      <point x="628" y="-1"/>
      <point x="669" y="0"/>
      <point x="708" y="0" type="curve" smooth="yes"/>
      <point x="748" y="0"/>
      <point x="785" y="-1"/>
      <point x="828" y="-3" type="curve" smooth="yes"/>
      <point x="841" y="-3"/>
      <point x="846" y="8"/>
      <point x="846" y="19" type="curve" smooth="yes"/>
      <point x="845" y="42"/>
      <point x="834" y="40"/>
      <point x="821" y="40" type="curve" smooth="yes"/>
      <point x="758" y="40"/>
      <point x="757" y="79"/>
      <point x="756" y="117" type="curve"/>
      <point x="756" y="514" type="line"/>
      <point x="757" y="552"/>
      <point x="758" y="591"/>
      <point x="821" y="591" type="curve" smooth="yes"/>
      <point x="834" y="591"/>
      <point x="845" y="589"/>
      <point x="846" y="612" type="curve" smooth="yes"/>
      <point x="846" y="623"/>
      <point x="841" y="634"/>
      <point x="828" y="634" type="curve" smooth="yes"/>
      <point x="785" y="632"/>
      <point x="749" y="631"/>
      <point x="709" y="631" type="curve" smooth="yes"/>
      <point x="652" y="631" type="line"/>
      <point x="455" y="145" type="line"/>
      <point x="452" y="145" type="line"/>
      <point x="280" y="531" type="line"/>
      <point x="243" y="620"/>
      <point x="180" y="636"/>
      <point x="82" y="637" type="curve"/>
      <point x="60" y="637"/>
      <point x="42" y="640"/>
      <point x="42" y="617" type="curve" smooth="yes"/>
      <point x="42" y="596"/>
      <point x="48" y="598"/>
      <point x="67" y="594" type="curve"/>
      <point x="113" y="585"/>
      <point x="134" y="577"/>
      <point x="134" y="514" type="curve" smooth="yes"/>
      <point x="132" y="117" type="line"/>
      <point x="131" y="79"/>
      <point x="132" y="40"/>
      <point x="69" y="40" type="curve" smooth="yes"/>
      <point x="55" y="40"/>
      <point x="45" y="42"/>
      <point x="44" y="19" type="curve" smooth="yes"/>
      <point x="44" y="8"/>
      <point x="49" y="-3"/>
      <point x="62" y="-3" type="curve" smooth="yes"/>
      <point x="105" y="-1"/>
      <point x="121" y="0"/>
      <point x="161" y="0" type="curve" smooth="yes"/>
      <point x="201" y="0"/>
      <point x="209" y="-1"/>
      <point x="252" y="-3" type="curve" smooth="yes"/>
      <point x="264" y="-3"/>
      <point x="270" y="8"/>
      <point x="270" y="19" type="curve" smooth="yes"/>
      <point x="268" y="42"/>
      <point x="258" y="40"/>
      <point x="244" y="40" type="curve" smooth="yes"/>
      <point x="181" y="40"/>
      <point x="182" y="79"/>
      <point x="181" y="117" type="curve"/>
      <point x="179" y="514" type="line"/>
      <point x="182" y="514" type="line"/>
      <point x="407" y="5" type="line"/>
      <point x="411" y="-2"/>
      <point x="420" y="-5"/>
      <point x="428" y="-5" type="curve" smooth="yes"/>
      <point x="436" y="-5"/>
      <point x="445" y="-2"/>
      <point x="448" y="5" type="curve"/>
    </contour>
  </outline>
</glyph>
<glyph name="N" format="1">
  <advance width="737"/>
  <unicode hex="004E"/>
  <outline>
    <contour>
      <point x="559" y="10" type="line"/>
      <point x="565" y="2"/>
      <point x="575" y="-3"/>
      <point x="588" y="-3" type="curve" smooth="yes"/>
      <point x="597" y="-3"/>
      <point x="612" y="-1"/>
      <point x="613" y="10" type="curve"/>
      <point x="615" y="514" type="line"/>
      <point x="616" y="552"/>
      <point x="615" y="591"/>
      <point x="678" y="591" type="curve" smooth="yes"/>
      <point x="692" y="591"/>
      <point x="702" y="589"/>
      <point x="703" y="612" type="curve" smooth="yes"/>
      <point x="703" y="623"/>
      <point x="698" y="634"/>
      <point x="685" y="634" type="curve" smooth="yes"/>
      <point x="642" y="632"/>
      <point x="631" y="631"/>
      <point x="591" y="631" type="curve" smooth="yes"/>
      <point x="551" y="631"/>
      <point x="538" y="632"/>
      <point x="495" y="634" type="curve" smooth="yes"/>
      <point x="483" y="634"/>
      <point x="477" y="623"/>
      <point x="477" y="612" type="curve" smooth="yes"/>
      <point x="479" y="589"/>
      <point x="489" y="591"/>
      <point x="503" y="591" type="curve" smooth="yes"/>
      <point x="566" y="591"/>
      <point x="565" y="552"/>
      <point x="566" y="514" type="curve"/>
      <point x="568" y="171" type="line"/>
      <point x="565" y="171" type="line"/>
      <point x="291" y="531" type="line"/>
      <point x="229" y="615"/>
      <point x="193" y="637"/>
      <point x="82" y="637" type="curve"/>
      <point x="60" y="637"/>
      <point x="42" y="640"/>
      <point x="42" y="617" type="curve" smooth="yes"/>
      <point x="42" y="597"/>
      <point x="47" y="598"/>
      <point x="67" y="594" type="curve" smooth="yes"/>
      <point x="114" y="585"/>
      <point x="134" y="576"/>
      <point x="134" y="514" type="curve"/>
      <point x="132" y="117" type="line"/>
      <point x="131" y="79"/>
      <point x="132" y="40"/>
      <point x="69" y="40" type="curve" smooth="yes"/>
      <point x="55" y="40"/>
      <point x="45" y="42"/>
      <point x="44" y="19" type="curve" smooth="yes"/>
      <point x="44" y="8"/>
      <point x="49" y="-3"/>
      <point x="62" y="-3" type="curve" smooth="yes"/>
      <point x="105" y="-1"/>
      <point x="115" y="0"/>
      <point x="155" y="0" type="curve" smooth="yes"/>
      <point x="195" y="0"/>
      <point x="209" y="-1"/>
      <point x="252" y="-3" type="curve" smooth="yes"/>
      <point x="264" y="-3"/>
      <point x="270" y="8"/>
      <point x="270" y="19" type="curve" smooth="yes"/>
      <point x="269" y="42"/>
      <point x="258" y="40"/>
      <point x="244" y="40" type="curve" smooth="yes"/>
      <point x="181" y="40"/>
      <point x="182" y="79"/>
      <point x="181" y="117" type="curve"/>
      <point x="179" y="514" type="line"/>
      <point x="182" y="514" type="line"/>
    </contour>
    <contour>
      <point x="370" y="650" type="move" name="top"/>
    </contour>
  </outline>
</glyph>
<glyph name="O" format="1">
  <advance width="735"/>
  <unicode hex="004F"/>
  <outline>
    <contour>
      <point x="219" y="651"/>
      <point x="47" y="528"/>
      <point x="47" y="307" type="curve" smooth="yes"/>
      <point x="47" y="137"/>
      <point x="170" y="-20"/>
      <point x="366" y="-20" type="curve" smooth="yes"/>
      <point x="513" y="-20"/>
      <point x="688" y="104"/>
      <point x="688" y="325" type="curve" smooth="yes"/>
      <point x="688" y="494"/>
      <point x="565" y="651"/>
      <point x="366" y="651" type="curve" smooth="yes"/>
    </contour>
    <contour>
      <point x="228" y="24"/>
      <point x="164" y="159"/>
      <point x="164" y="310" type="curve" smooth="yes"/>
      <point x="164" y="469"/>
      <point x="224" y="608"/>
      <point x="365" y="608" type="curve" smooth="yes"/>
      <point x="502" y="608"/>
      <point x="569" y="475"/>
      <point x="569" y="325" type="curve" smooth="yes"/>
      <point x="569" y="165"/>
      <point x="506" y="24"/>
      <point x="365" y="24" type="curve" smooth="yes"/>
    </contour>
    <contour>
      <point x="366" y="659" type="move" name="top"/>
    </contour>
  </outline>
</glyph>
<glyph name="P" format="1">
  <advance width="604"/>
  <unicode hex="0050"/>
  <outline>
    <contour>
      <point x="180" y="631" type="line" smooth="yes"/>
      <point x="140" y="631"/>
      <point x="103" y="632"/>
      <point x="60" y="634" type="curve" smooth="yes"/>
      <point x="48" y="634"/>
      <point x="42" y="623"/>
      <point x="42" y="612" type="curve" smooth="yes"/>
      <point x="43" y="589"/>
      <point x="54" y="591"/>
      <point x="68" y="591" type="curve" smooth="yes"/>
      <point x="131" y="591"/>
      <point x="132" y="552"/>
      <point x="133" y="514" type="curve"/>
      <point x="133" y="117" type="line"/>
      <point x="132" y="79"/>
      <point x="131" y="40"/>
      <point x="68" y="40" type="curve" smooth="yes"/>
      <point x="54" y="40"/>
      <point x="43" y="42"/>
      <point x="42" y="19" type="curve" smooth="yes"/>
      <point x="42" y="8"/>
      <point x="48" y="-3"/>
      <point x="60" y="-3" type="curve" smooth="yes"/>
      <point x="103" y="-1"/>
      <point x="139" y="0"/>
      <point x="179" y="0" type="curve" smooth="yes"/>
      <point x="219" y="0"/>
      <point x="261" y="-1"/>
      <point x="304" y="-3" type="curve" smooth="yes"/>
      <point x="316" y="-3"/>
      <point x="322" y="8"/>
      <point x="322" y="19" type="curve" smooth="yes"/>
      <point x="321" y="42"/>
      <point x="310" y="40"/>
      <point x="296" y="40" type="curve" smooth="yes"/>
      <point x="233" y="40"/>
      <point x="232" y="79"/>
      <point x="231" y="117" type="curve"/>
      <point x="231" y="261" type="line"/>
      <point x="266" y="248"/>
      <point x="301" y="245"/>
      <point x="331" y="245" type="curve" smooth="yes"/>
      <point x="454" y="245"/>
      <point x="580" y="326"/>
      <point x="580" y="451" type="curve" smooth="yes"/>
      <point x="580" y="619"/>
      <point x="392" y="631"/>
      <point x="330" y="631" type="curve" smooth="yes"/>
    </contour>
    <contour>
      <point x="231" y="517" type="line" smooth="yes"/>
      <point x="231" y="585"/>
      <point x="245" y="594"/>
      <point x="294" y="594" type="curve" smooth="yes"/>
      <point x="342" y="594"/>
      <point x="469" y="584"/>
      <point x="469" y="448" type="curve" smooth="yes"/>
      <point x="469" y="323"/>
      <point x="363" y="290"/>
      <point x="302" y="290" type="curve" smooth="yes"/>
      <point x="271" y="290"/>
      <point x="244" y="295"/>
      <point x="231" y="301" type="curve"/>
    </contour>
  </outline>
</glyph>
<glyph name="Q" format="1">
  <advance width="737"/>
  <unicode hex="0051"/>
  <outline>
    <contour>
      <point x="663" y="-150"/>
      <point x="590" y="-64"/>
      <point x="492" y="-15" type="curve" smooth="yes"/>
      <point x="478" y="-8"/>
      <point x="460" y="-3"/>
      <point x="443" y="-1" type="curve"/>
      <point x="443" y="1" type="line"/>
      <point x="465" y="2"/>
      <point x="477" y="6"/>
      <point x="484" y="9" type="curve" smooth="yes"/>
      <point x="604" y="57"/>
      <point x="690" y="172"/>
      <point x="690" y="325" type="curve" smooth="yes"/>
      <point x="690" y="494"/>
      <point x="567" y="651"/>
      <point x="367" y="651" type="curve" smooth="yes"/>
      <point x="220" y="651"/>
      <point x="48" y="528"/>
      <point x="48" y="307" type="curve" smooth="yes"/>
      <point x="48" y="203"/>
      <point x="93" y="106"/>
      <point x="172" y="45" type="curve" smooth="yes"/>
      <point x="209" y="16"/>
      <point x="267" y="-3"/>
      <point x="325" y="-16" type="curve" smooth="yes"/>
      <point x="356" y="-23"/>
      <point x="377" y="-30"/>
      <point x="401" y="-42" type="curve" smooth="yes"/>
      <point x="516" y="-101"/>
      <point x="560" y="-200"/>
      <point x="696" y="-200" type="curve"/>
      <point x="760" y="-198"/>
      <point x="832" y="-145"/>
      <point x="832" y="-83" type="curve" smooth="yes"/>
      <point x="832" y="-26"/>
      <point x="783" y="-3"/>
      <point x="761" y="-3" type="curve" smooth="yes"/>
      <point x="718" y="-3"/>
      <point x="700" y="-30"/>
      <point x="704" y="-49" type="curve"/>
      <point x="745" y="-50"/>
      <point x="770" y="-85"/>
      <point x="770" y="-115" type="curve" smooth="yes"/>
      <point x="770" y="-132"/>
      <point x="760" y="-147"/>
      <point x="735" y="-150" type="curve"/>
    </contour>
    <contour>
      <point x="230" y="21"/>
      <point x="166" y="159"/>
      <point x="166" y="310" type="curve" smooth="yes"/>
      <point x="166" y="469"/>
      <point x="225" y="608"/>
      <point x="366" y="608" type="curve" smooth="yes"/>
      <point x="504" y="608"/>
      <point x="571" y="475"/>
      <point x="571" y="325" type="curve" smooth="yes"/>
      <point x="571" y="165"/>
      <point x="508" y="21"/>
      <point x="366" y="21" type="curve" smooth="yes"/>
    </contour>
  </outline>
</glyph>
<glyph name="R" format="1">
  <advance width="671"/>
  <unicode hex="0052"/>
  <outline>
    <contour>
      <point x="432" y="594"/>
      <point x="469" y="524"/>
      <point x="469" y="459" type="curve" smooth="yes"/>
      <point x="469" y="406"/>
      <point x="455" y="319"/>
      <point x="320" y="319" type="curve" smooth="yes"/>
      <point x="232" y="319" type="line"/>
      <point x="232" y="511" type="line" smooth="yes"/>
      <point x="232" y="578"/>
      <point x="245" y="594"/>
      <point x="302" y="594" type="curve" smooth="yes"/>
    </contour>
    <contour>
      <point x="520" y="328"/>
      <point x="580" y="397"/>
      <point x="580" y="468" type="curve" smooth="yes"/>
      <point x="580" y="548"/>
      <point x="514" y="628"/>
      <point x="352" y="631" type="curve"/>
      <point x="180" y="631" type="line"/>
      <point x="140" y="631"/>
      <point x="104" y="632"/>
      <point x="61" y="634" type="curve" smooth="yes"/>
      <point x="48" y="634"/>
      <point x="43" y="623"/>
      <point x="43" y="612" type="curve" smooth="yes"/>
      <point x="44" y="589"/>
      <point x="54" y="591"/>
      <point x="68" y="591" type="curve" smooth="yes"/>
      <point x="131" y="591"/>
      <point x="132" y="551"/>
      <point x="133" y="513" type="curve"/>
      <point x="133" y="117" type="line"/>
      <point x="132" y="79"/>
      <point x="131" y="40"/>
      <point x="68" y="40" type="curve" smooth="yes"/>
      <point x="54" y="40"/>
      <point x="44" y="42"/>
      <point x="43" y="19" type="curve" smooth="yes"/>
      <point x="43" y="8"/>
      <point x="48" y="-3"/>
      <point x="61" y="-3" type="curve" smooth="yes"/>
      <point x="104" y="-1"/>
      <point x="139" y="0"/>
      <point x="179" y="0" type="curve" smooth="yes"/>
      <point x="219" y="0"/>
      <point x="261" y="-1"/>
      <point x="304" y="-3" type="curve" smooth="yes"/>
      <point x="317" y="-3"/>
      <point x="322" y="8"/>
      <point x="322" y="19" type="curve" smooth="yes"/>
      <point x="321" y="42"/>
      <point x="310" y="40"/>
      <point x="297" y="40" type="curve" smooth="yes"/>
      <point x="234" y="40"/>
      <point x="233" y="79"/>
      <point x="232" y="117" type="curve"/>
      <point x="232" y="280" type="line"/>
      <point x="261" y="280" type="line" smooth="yes"/>
      <point x="310" y="280"/>
      <point x="320" y="268"/>
      <point x="338" y="240" type="curve"/>
      <point x="369" y="190"/>
      <point x="400" y="137"/>
      <point x="437" y="87" type="curve" smooth="yes"/>
      <point x="473" y="37"/>
      <point x="507" y="11"/>
      <point x="562" y="0" type="curve"/>
      <point x="602" y="0"/>
      <point x="609" y="-1"/>
      <point x="652" y="-3" type="curve" smooth="yes"/>
      <point x="665" y="-3"/>
      <point x="670" y="8"/>
      <point x="670" y="19" type="curve" smooth="yes"/>
      <point x="669" y="41"/>
      <point x="656" y="39"/>
      <point x="645" y="40" type="curve" smooth="yes"/>
      <point x="620" y="43"/>
      <point x="603" y="52"/>
      <point x="585" y="67" type="curve" smooth="yes"/>
      <point x="517" y="137"/>
      <point x="468" y="221"/>
      <point x="418" y="301" type="curve" smooth="yes"/>
    </contour>
  </outline>
</glyph>
<glyph name="S" format="1">
  <advance width="545"/>
  <unicode hex="0053"/>
  <outline>
    <contour>
      <point x="183" y="20"/>
      <point x="148" y="58"/>
      <point x="148" y="118" type="curve" smooth="yes"/>
      <point x="148" y="165"/>
      <point x="184" y="171"/>
      <point x="184" y="176" type="curve" smooth="yes"/>
      <point x="184" y="184"/>
      <point x="172" y="205"/>
      <point x="137" y="207" type="curve"/>
      <point x="85" y="207"/>
      <point x="49" y="172"/>
      <point x="49" y="124" type="curve" smooth="yes"/>
      <point x="49" y="29"/>
      <point x="126" y="-20"/>
      <point x="265" y="-20" type="curve" smooth="yes"/>
      <point x="394" y="-20"/>
      <point x="499" y="55"/>
      <point x="499" y="157" type="curve" smooth="yes"/>
      <point x="499" y="314"/>
      <point x="354" y="341"/>
      <point x="235" y="406" type="curve" smooth="yes"/>
      <point x="182" y="435"/>
      <point x="155" y="462"/>
      <point x="155" y="511" type="curve" smooth="yes"/>
      <point x="155" y="562"/>
      <point x="192" y="610"/>
      <point x="279" y="610" type="curve" smooth="yes"/>
      <point x="336" y="610"/>
      <point x="380" y="581"/>
      <point x="380" y="531" type="curve" smooth="yes"/>
      <point x="380" y="484"/>
      <point x="332" y="478"/>
      <point x="332" y="473" type="curve" smooth="yes"/>
      <point x="332" y="465"/>
      <point x="344" y="444"/>
      <point x="379" y="442" type="curve"/>
      <point x="431" y="442"/>
      <point x="467" y="477"/>
      <point x="467" y="525" type="curve" smooth="yes"/>
      <point x="467" y="615"/>
      <point x="367" y="651"/>
      <point x="278" y="651" type="curve" smooth="yes"/>
      <point x="155" y="651"/>
      <point x="59" y="597"/>
      <point x="62" y="472" type="curve" smooth="yes"/>
      <point x="67" y="263"/>
      <point x="401" y="300"/>
      <point x="401" y="134" type="curve" smooth="yes"/>
      <point x="401" y="77"/>
      <point x="351" y="20"/>
      <point x="265" y="20" type="curve" smooth="yes"/>
    </contour>
  </outline>
</glyph>
<glyph name="T" format="1">
  <advance width="600"/>
  <unicode hex="0054"/>
  <outline>
    <contour>
      <point x="56" y="631" type="line"/>
      <point x="41" y="631"/>
      <point x="29" y="626"/>
      <point x="29" y="607" type="curve" smooth="yes"/>
      <point x="26" y="466" type="line" smooth="yes"/>
      <point x="26" y="453"/>
      <point x="40" y="446"/>
      <point x="50" y="446" type="curve" smooth="yes"/>
      <point x="65" y="446"/>
      <point x="83" y="452"/>
      <point x="85" y="464" type="curve" smooth="yes"/>
      <point x="98" y="554"/>
      <point x="113" y="592"/>
      <point x="182" y="594" type="curve"/>
      <point x="251" y="594" type="line"/>
      <point x="251" y="117" type="line"/>
      <point x="250" y="79"/>
      <point x="249" y="40"/>
      <point x="186" y="40" type="curve" smooth="yes"/>
      <point x="172" y="40"/>
      <point x="162" y="42"/>
      <point x="161" y="19" type="curve" smooth="yes"/>
      <point x="161" y="8"/>
      <point x="166" y="-3"/>
      <point x="179" y="-3" type="curve" smooth="yes"/>
      <point x="222" y="-1"/>
      <point x="264" y="0"/>
      <point x="304" y="0" type="curve" smooth="yes"/>
      <point x="343" y="0"/>
      <point x="379" y="-1"/>
      <point x="422" y="-3" type="curve" smooth="yes"/>
      <point x="435" y="-3"/>
      <point x="440" y="8"/>
      <point x="440" y="19" type="curve" smooth="yes"/>
      <point x="439" y="42"/>
      <point x="428" y="40"/>
      <point x="415" y="40" type="curve" smooth="yes"/>
      <point x="352" y="40"/>
      <point x="351" y="79"/>
      <point x="350" y="117" type="curve"/>
      <point x="350" y="594" type="line"/>
      <point x="418" y="594" type="line"/>
      <point x="488" y="592"/>
      <point x="502" y="554"/>
      <point x="516" y="464" type="curve" smooth="yes"/>
      <point x="518" y="452"/>
      <point x="536" y="446"/>
      <point x="550" y="446" type="curve" smooth="yes"/>
      <point x="561" y="446"/>
      <point x="575" y="453"/>
      <point x="575" y="466" type="curve" smooth="yes"/>
      <point x="571" y="607" type="line" smooth="yes"/>
      <point x="571" y="626"/>
      <point x="560" y="631"/>
      <point x="545" y="631" type="curve" smooth="yes"/>
    </contour>
  </outline>
</glyph>
<glyph name="U" format="1">
  <advance width="720"/>
  <unicode hex="0055"/>
  <outline>
    <contour>
      <point x="600" y="457" type="line"/>
      <point x="600" y="586"/>
      <point x="609" y="591"/>
      <point x="682" y="591" type="curve" smooth="yes"/>
      <point x="694" y="591"/>
      <point x="701" y="592"/>
      <point x="702" y="612" type="curve" smooth="yes"/>
      <point x="702" y="623"/>
      <point x="697" y="634"/>
      <point x="684" y="634" type="curve" smooth="yes"/>
      <point x="641" y="632"/>
      <point x="612" y="631"/>
      <point x="572" y="631" type="curve" smooth="yes"/>
      <point x="532" y="631"/>
      <point x="503" y="632"/>
      <point x="460" y="634" type="curve" smooth="yes"/>
      <point x="447" y="634"/>
      <point x="442" y="623"/>
      <point x="442" y="612" type="curve" smooth="yes"/>
      <point x="443" y="589"/>
      <point x="454" y="591"/>
      <point x="467" y="591" type="curve" smooth="yes"/>
      <point x="535" y="591"/>
      <point x="544" y="582"/>
      <point x="544" y="451" type="curve" smooth="yes"/>
      <point x="544" y="188" type="line" smooth="yes"/>
      <point x="544" y="116"/>
      <point x="510" y="39"/>
      <point x="375" y="39" type="curve" smooth="yes"/>
      <point x="234" y="39"/>
      <point x="216" y="133"/>
      <point x="216" y="202" type="curve" smooth="yes"/>
      <point x="216" y="514" type="line"/>
      <point x="217" y="555"/>
      <point x="218" y="591"/>
      <point x="286" y="591" type="curve" smooth="yes"/>
      <point x="298" y="591"/>
      <point x="305" y="592"/>
      <point x="306" y="612" type="curve" smooth="yes"/>
      <point x="306" y="623"/>
      <point x="301" y="634"/>
      <point x="288" y="634" type="curve" smooth="yes"/>
      <point x="245" y="632"/>
      <point x="203" y="631"/>
      <point x="163" y="631" type="curve" smooth="yes"/>
      <point x="123" y="631"/>
      <point x="88" y="632"/>
      <point x="45" y="634" type="curve" smooth="yes"/>
      <point x="32" y="634"/>
      <point x="27" y="623"/>
      <point x="27" y="612" type="curve" smooth="yes"/>
      <point x="28" y="589"/>
      <point x="38" y="591"/>
      <point x="52" y="591" type="curve" smooth="yes"/>
      <point x="115" y="591"/>
      <point x="116" y="552"/>
      <point x="117" y="514" type="curve"/>
      <point x="117" y="173" type="line" smooth="yes"/>
      <point x="117" y="75"/>
      <point x="199" y="-20"/>
      <point x="359" y="-20" type="curve" smooth="yes"/>
      <point x="462" y="-20"/>
      <point x="600" y="36"/>
      <point x="600" y="178" type="curve" smooth="yes"/>
    </contour>
    <contour>
      <point x="379" y="650" type="move" name="top"/>
    </contour>
  </outline>
</glyph>
<glyph name="V" format="1">
  <advance width="648"/>
  <unicode hex="0056"/>
  <outline>
    <contour>
      <point x="360" y="141" type="line"/>
      <point x="357" y="141" type="line"/>
      <point x="212" y="531" type="line" smooth="yes"/>
      <point x="182" y="607"/>
      <point x="138" y="635"/>
      <point x="49" y="636" type="curve" smooth="yes"/>
      <point x="27" y="636"/>
      <point x="9" y="639"/>
      <point x="9" y="616" type="curve" smooth="yes"/>
      <point x="9" y="595"/>
      <point x="15" y="597"/>
      <point x="34" y="593" type="curve" smooth="yes"/>
      <point x="77" y="585"/>
      <point x="92" y="564"/>
      <point x="114" y="510" type="curve"/>
      <point x="114" y="512"/>
      <point x="304" y="-10"/>
      <point x="304" y="-10" type="curve"/>
      <point x="351" y="-10" type="line"/>
      <point x="351" y="-10"/>
      <point x="544" y="526"/>
      <point x="544" y="523" type="curve"/>
      <point x="565" y="576"/>
      <point x="591" y="591"/>
      <point x="642" y="591" type="curve" smooth="yes"/>
      <point x="656" y="591"/>
      <point x="666" y="589"/>
      <point x="667" y="612" type="curve" smooth="yes"/>
      <point x="667" y="623"/>
      <point x="662" y="634"/>
      <point x="649" y="634" type="curve" smooth="yes"/>
      <point x="606" y="632"/>
      <point x="595" y="631"/>
      <point x="555" y="631" type="curve" smooth="yes"/>
      <point x="515" y="631"/>
      <point x="489" y="632"/>
      <point x="446" y="634" type="curve" smooth="yes"/>
      <point x="434" y="634"/>
      <point x="429" y="623"/>
      <point x="429" y="612" type="curve" smooth="yes"/>
      <point x="430" y="589"/>
      <point x="440" y="591"/>
      <point x="454" y="591" type="curve" smooth="yes"/>
      <point x="500" y="591"/>
      <point x="513" y="584"/>
      <point x="498" y="542" type="curve"/>
    </contour>
  </outline>
</glyph>
<glyph name="W" format="1">
  <advance width="934"/>
  <unicode hex="0057"/>
  <outline>
    <contour>
      <point x="76" y="585"/>
      <point x="91" y="564"/>
      <point x="113" y="510" type="curve"/>
      <point x="279" y="-10" type="line"/>
      <point x="326" y="-10" type="line"/>
      <point x="455" y="467" type="line"/>
      <point x="617" y="-10" type="line"/>
      <point x="664" y="-10" type="line"/>
      <point x="828" y="523" type="line"/>
      <point x="843" y="575"/>
      <point x="875" y="591"/>
      <point x="926" y="591" type="curve" smooth="yes"/>
      <point x="940" y="591"/>
      <point x="950" y="589"/>
      <point x="951" y="612" type="curve" smooth="yes"/>
      <point x="951" y="623"/>
      <point x="946" y="634"/>
      <point x="933" y="634" type="curve" smooth="yes"/>
      <point x="890" y="632"/>
      <point x="879" y="631"/>
      <point x="839" y="631" type="curve" smooth="yes"/>
      <point x="799" y="631"/>
      <point x="773" y="632"/>
      <point x="730" y="634" type="curve" smooth="yes"/>
      <point x="718" y="634"/>
      <point x="713" y="623"/>
      <point x="713" y="612" type="curve" smooth="yes"/>
      <point x="714" y="589"/>
      <point x="724" y="591"/>
      <point x="738" y="591" type="curve" smooth="yes"/>
      <point x="784" y="591"/>
      <point x="793" y="585"/>
      <point x="782" y="542" type="curve"/>
      <point x="669" y="165" type="line"/>
      <point x="666" y="165" type="line"/>
      <point x="503" y="631" type="line"/>
      <point x="451" y="631" type="line"/>
      <point x="329" y="165" type="line"/>
      <point x="325" y="165" type="line"/>
      <point x="211" y="531" type="line"/>
      <point x="181" y="607"/>
      <point x="137" y="635"/>
      <point x="48" y="636" type="curve"/>
      <point x="26" y="636"/>
      <point x="8" y="639"/>
      <point x="8" y="616" type="curve" smooth="yes"/>
      <point x="8" y="595"/>
      <point x="14" y="597"/>
      <point x="33" y="593" type="curve"/>
    </contour>
  </outline>
</glyph>
<glyph name="X" format="1">
  <advance width="653"/>
  <unicode hex="0058"/>
  <outline>
    <contour>
      <point x="369" y="357" type="line"/>
      <point x="486" y="523" type="line" smooth="yes"/>
      <point x="522" y="575"/>
      <point x="540" y="591"/>
      <point x="591" y="591" type="curve" smooth="yes"/>
      <point x="605" y="591"/>
      <point x="615" y="589"/>
      <point x="616" y="612" type="curve" smooth="yes"/>
      <point x="616" y="623"/>
      <point x="611" y="634"/>
      <point x="598" y="634" type="curve" smooth="yes"/>
      <point x="555" y="632"/>
      <point x="537" y="631"/>
      <point x="497" y="631" type="curve" smooth="yes"/>
      <point x="457" y="631"/>
      <point x="431" y="632"/>
      <point x="388" y="634" type="curve" smooth="yes"/>
      <point x="376" y="634"/>
      <point x="371" y="623"/>
      <point x="371" y="612" type="curve" smooth="yes"/>
      <point x="372" y="589"/>
      <point x="382" y="591"/>
      <point x="396" y="591" type="curve" smooth="yes"/>
      <point x="442" y="591"/>
      <point x="469" y="586"/>
      <point x="440" y="542" type="curve"/>
      <point x="341" y="398" type="line"/>
      <point x="259" y="532" type="line"/>
      <point x="207" y="608"/>
      <point x="160" y="636"/>
      <point x="66" y="636" type="curve" smooth="yes"/>
      <point x="44" y="636"/>
      <point x="26" y="639"/>
      <point x="26" y="616" type="curve" smooth="yes"/>
      <point x="26" y="595"/>
      <point x="32" y="597"/>
      <point x="51" y="593" type="curve" smooth="yes"/>
      <point x="94" y="584"/>
      <point x="121" y="565"/>
      <point x="154" y="515" type="curve"/>
      <point x="282" y="314" type="line"/>
      <point x="137" y="108" type="line" smooth="yes"/>
      <point x="100" y="56"/>
      <point x="83" y="40"/>
      <point x="32" y="40" type="curve" smooth="yes"/>
      <point x="18" y="40"/>
      <point x="8" y="42"/>
      <point x="7" y="19" type="curve" smooth="yes"/>
      <point x="7" y="8"/>
      <point x="12" y="-3"/>
      <point x="25" y="-3" type="curve" smooth="yes"/>
      <point x="68" y="-1"/>
      <point x="86" y="0"/>
      <point x="126" y="0" type="curve" smooth="yes"/>
      <point x="166" y="0"/>
      <point x="192" y="-1"/>
      <point x="235" y="-3" type="curve" smooth="yes"/>
      <point x="247" y="-3"/>
      <point x="252" y="8"/>
      <point x="252" y="19" type="curve" smooth="yes"/>
      <point x="251" y="42"/>
      <point x="241" y="40"/>
      <point x="227" y="40" type="curve" smooth="yes"/>
      <point x="181" y="40"/>
      <point x="153" y="46"/>
      <point x="183" y="89" type="curve" smooth="yes"/>
      <point x="311" y="272" type="line"/>
      <point x="439" y="89" type="line" smooth="yes"/>
      <point x="457" y="64"/>
      <point x="447" y="40"/>
      <point x="407" y="40" type="curve" smooth="yes"/>
      <point x="394" y="40"/>
      <point x="383" y="42"/>
      <point x="382" y="19" type="curve" smooth="yes"/>
      <point x="382" y="8"/>
      <point x="387" y="-3"/>
      <point x="400" y="-3" type="curve" smooth="yes"/>
      <point x="443" y="-1"/>
      <point x="482" y="0"/>
      <point x="522" y="0" type="curve" smooth="yes"/>
      <point x="562" y="0"/>
      <point x="599" y="-1"/>
      <point x="642" y="-3" type="curve" smooth="yes"/>
      <point x="654" y="-3"/>
      <point x="659" y="8"/>
      <point x="659" y="19" type="curve" smooth="yes"/>
      <point x="658" y="42"/>
      <point x="648" y="40"/>
      <point x="634" y="40" type="curve" smooth="yes"/>
      <point x="590" y="40"/>
      <point x="565" y="76"/>
      <point x="543" y="109" type="curve"/>
    </contour>
  </outline>
</glyph>
<glyph name="Y" format="1">
  <advance width="621"/>
  <unicode hex="0059"/>
  <outline>
    <contour>
      <point x="190" y="612"/>
      <point x="138" y="636"/>
      <point x="44" y="636" type="curve" smooth="yes"/>
      <point x="22" y="636"/>
      <point x="4" y="639"/>
      <point x="4" y="616" type="curve" smooth="yes"/>
      <point x="4" y="595"/>
      <point x="10" y="597"/>
      <point x="29" y="593" type="curve" smooth="yes"/>
      <point x="72" y="584"/>
      <point x="104" y="566"/>
      <point x="132" y="515" type="curve"/>
      <point x="161" y="463"/>
      <point x="262" y="267"/>
      <point x="262" y="242" type="curve" smooth="yes"/>
      <point x="262" y="117" type="line"/>
      <point x="261" y="79"/>
      <point x="260" y="40"/>
      <point x="197" y="40" type="curve" smooth="yes"/>
      <point x="184" y="40"/>
      <point x="173" y="42"/>
      <point x="172" y="19" type="curve" smooth="yes"/>
      <point x="172" y="8"/>
      <point x="177" y="-3"/>
      <point x="190" y="-3" type="curve" smooth="yes"/>
      <point x="233" y="-1"/>
      <point x="274" y="0"/>
      <point x="314" y="0" type="curve" smooth="yes"/>
      <point x="354" y="0"/>
      <point x="391" y="-1"/>
      <point x="434" y="-3" type="curve" smooth="yes"/>
      <point x="446" y="-3"/>
      <point x="451" y="8"/>
      <point x="451" y="19" type="curve" smooth="yes"/>
      <point x="450" y="42"/>
      <point x="440" y="40"/>
      <point x="426" y="40" type="curve" smooth="yes"/>
      <point x="363" y="40"/>
      <point x="362" y="79"/>
      <point x="361" y="117" type="curve"/>
      <point x="361" y="214" type="line" smooth="yes"/>
      <point x="361" y="260"/>
      <point x="369" y="271"/>
      <point x="388" y="310" type="curve"/>
      <point x="501" y="523" type="line"/>
      <point x="526" y="570"/>
      <point x="555" y="591"/>
      <point x="606" y="591" type="curve" smooth="yes"/>
      <point x="620" y="591"/>
      <point x="630" y="589"/>
      <point x="631" y="612" type="curve" smooth="yes"/>
      <point x="631" y="623"/>
      <point x="626" y="634"/>
      <point x="613" y="634" type="curve" smooth="yes"/>
      <point x="570" y="632"/>
      <point x="552" y="631"/>
      <point x="512" y="631" type="curve" smooth="yes"/>
      <point x="472" y="631"/>
      <point x="446" y="632"/>
      <point x="403" y="634" type="curve" smooth="yes"/>
      <point x="391" y="634"/>
      <point x="386" y="623"/>
      <point x="386" y="612" type="curve" smooth="yes"/>
      <point x="387" y="589"/>
      <point x="397" y="591"/>
      <point x="411" y="591" type="curve" smooth="yes"/>
      <point x="457" y="591"/>
      <point x="478" y="587"/>
      <point x="455" y="542" type="curve"/>
      <point x="344" y="323" type="line"/>
      <point x="341" y="323" type="line"/>
      <point x="302" y="394"/>
      <point x="274" y="460"/>
      <point x="236" y="532" type="curve"/>
    </contour>
    <contour>
      <point x="305" y="650" type="move" name="top"/>
    </contour>
  </outline>
</glyph>
<glyph name="Z" format="1">
  <advance width="621"/>
  <unicode hex="005A"/>
  <outline>
    <contour>
      <point x="134" y="100" type="line"/>
      <point x="105" y="47"/>
      <point x="93" y="40"/>
      <point x="60" y="40" type="curve" smooth="yes"/>
      <point x="46" y="40"/>
      <point x="36" y="42"/>
      <point x="34" y="19" type="curve" smooth="yes"/>
      <point x="34" y="8"/>
      <point x="40" y="-3"/>
      <point x="52" y="-3" type="curve" smooth="yes"/>
      <point x="95" y="-1"/>
      <point x="132" y="0"/>
      <point x="172" y="0" type="curve" smooth="yes"/>
      <point x="525" y="0" type="line" smooth="yes"/>
      <point x="542" y="0"/>
      <point x="550" y="2"/>
      <point x="554" y="21" type="curve"/>
      <point x="574" y="147" type="line"/>
      <point x="575" y="160"/>
      <point x="564" y="168"/>
      <point x="553" y="170" type="curve" smooth="yes"/>
      <point x="538" y="172"/>
      <point x="524" y="169"/>
      <point x="520" y="156" type="curve" smooth="yes"/>
      <point x="493" y="68"/>
      <point x="482" y="42"/>
      <point x="412" y="40" type="curve"/>
      <point x="294" y="40" type="line"/>
      <point x="226" y="41"/>
      <point x="238" y="76"/>
      <point x="249" y="100" type="curve"/>
      <point x="468" y="515" type="line"/>
      <point x="486" y="549"/>
      <point x="508" y="588"/>
      <point x="557" y="591" type="curve" smooth="yes"/>
      <point x="571" y="592"/>
      <point x="581" y="589"/>
      <point x="582" y="612" type="curve" smooth="yes"/>
      <point x="582" y="623"/>
      <point x="577" y="634"/>
      <point x="564" y="634" type="curve" smooth="yes"/>
      <point x="521" y="632"/>
      <point x="480" y="631"/>
      <point x="441" y="631" type="curve" smooth="yes"/>
      <point x="98" y="631" type="line" smooth="yes"/>
      <point x="81" y="631"/>
      <point x="73" y="629"/>
      <point x="69" y="610" type="curve"/>
      <point x="49" y="484" type="line"/>
      <point x="48" y="471"/>
      <point x="59" y="463"/>
      <point x="70" y="461" type="curve" smooth="yes"/>
      <point x="84" y="459"/>
      <point x="99" y="462"/>
      <point x="103" y="475" type="curve" smooth="yes"/>
      <point x="130" y="563"/>
      <point x="141" y="589"/>
      <point x="210" y="591" type="curve"/>
      <point x="319" y="591" type="line" smooth="yes"/>
      <point x="377" y="591"/>
      <point x="394" y="590"/>
      <point x="358" y="515" type="curve"/>
    </contour>
  </outline>
</glyph>
<glyph name="bracketleft" format="1">
  <advance width="310"/>
  <unicode hex="005B"/>
  <outline>
    <contour>
      <point x="253" y="685" type="line"/>
      <point x="267" y="685"/>
      <point x="276" y="692"/>
      <point x="276" y="706" type="curve" smooth="yes"/>
      <point x="276" y="719"/>
      <point x="267" y="728"/>
      <point x="253" y="728" type="curve"/>
      <point x="109" y="728" type="line"/>
      <point x="60" y="729"/>
      <point x="47" y="718"/>
      <point x="47" y="661" type="curve"/>
      <point x="47" y="-151" type="line" smooth="yes"/>
      <point x="47" y="-208"/>
      <point x="60" y="-219"/>
      <point x="109" y="-218" type="curve"/>
      <point x="253" y="-218" type="line" smooth="yes"/>
      <point x="267" y="-218"/>
      <point x="276" y="-210"/>
      <point x="276" y="-196" type="curve" smooth="yes"/>
      <point x="276" y="-183"/>
      <point x="267" y="-175"/>
      <point x="253" y="-175" type="curve"/>
      <point x="132" y="-175" type="line"/>
      <point x="125" y="-175"/>
      <point x="122" y="-172"/>
      <point x="122" y="-163" type="curve"/>
      <point x="122" y="673" type="line"/>
      <point x="122" y="682"/>
      <point x="125" y="685"/>
      <point x="132" y="685" type="curve"/>
    </contour>
  </outline>
</glyph>
<glyph name="backslash" format="1">
  <advance width="394"/>
  <unicode hex="005C"/>
  <outline>
    <contour>
      <point x="306" y="-177" type="line" smooth="yes"/>
      <point x="311" y="-191"/>
      <point x="326" y="-197"/>
      <point x="338" y="-195" type="curve" smooth="yes"/>
      <point x="352" y="-192"/>
      <point x="363" y="-180"/>
      <point x="360" y="-166" type="curve"/>
      <point x="90" y="685" type="line" smooth="yes"/>
      <point x="85" y="700"/>
      <point x="70" y="706"/>
      <point x="57" y="704" type="curve" smooth="yes"/>
      <point x="42" y="701"/>
      <point x="31" y="687"/>
      <point x="34" y="674" type="curve"/>
    </contour>
  </outline>
</glyph>
<glyph name="bracketright" format="1">
  <advance width="340"/>
  <unicode hex="005D"/>
  <outline>
    <contour>
      <point x="178" y="685" type="line" smooth="yes"/>
      <point x="185" y="685"/>
      <point x="188" y="682"/>
      <point x="188" y="673" type="curve" smooth="yes"/>
      <point x="188" y="-163" type="line" smooth="yes"/>
      <point x="188" y="-172"/>
      <point x="185" y="-175"/>
      <point x="178" y="-175" type="curve" smooth="yes"/>
      <point x="57" y="-175" type="line" smooth="yes"/>
      <point x="43" y="-175"/>
      <point x="34" y="-183"/>
      <point x="34" y="-196" type="curve" smooth="yes"/>
      <point x="34" y="-210"/>
      <point x="43" y="-218"/>
      <point x="57" y="-218" type="curve" smooth="yes"/>
      <point x="201" y="-218" type="line"/>
      <point x="250" y="-219"/>
      <point x="263" y="-208"/>
      <point x="263" y="-151" type="curve" smooth="yes"/>
      <point x="263" y="661" type="line" smooth="yes"/>
      <point x="263" y="718"/>
      <point x="250" y="729"/>
      <point x="201" y="728" type="curve"/>
      <point x="57" y="728" type="line" smooth="yes"/>
      <point x="43" y="728"/>
      <point x="34" y="719"/>
      <point x="34" y="706" type="curve" smooth="yes"/>
      <point x="34" y="692"/>
      <point x="43" y="685"/>
      <point x="57" y="685" type="curve"/>
    </contour>
  </outline>
</glyph>
<glyph name="asciicircum" format="1">
  <advance width="505"/>
  <unicode hex="005E"/>
  <outline>
    <contour>
      <point x="40" y="414" type="line" smooth="yes"/>
      <point x="28" y="395"/>
      <point x="47" y="381"/>
      <point x="65" y="380" type="curve" smooth="yes"/>
      <point x="77" y="379"/>
      <point x="89" y="381"/>
      <point x="96" y="394" type="curve"/>
      <point x="253" y="650" type="line"/>
      <point x="410" y="394" type="line" smooth="yes"/>
      <point x="416" y="383"/>
      <point x="429" y="379"/>
      <point x="441" y="380" type="curve" smooth="yes"/>
      <point x="459" y="381"/>
      <point x="477" y="394"/>
      <point x="466" y="414" type="curve"/>
      <point x="280" y="714" type="line" smooth="yes"/>
      <point x="275" y="722"/>
      <point x="264" y="728"/>
      <point x="253" y="728" type="curve" smooth="yes"/>
      <point x="242" y="728"/>
      <point x="233" y="723"/>
      <point x="227" y="714" type="curve"/>
    </contour>
  </outline>
</glyph>
<glyph name="underscore" format="1">
  <advance width="668"/>
  <unicode hex="005F"/>
  <outline>
    <contour>
      <point x="563" y="-123" type="line"/>
      <point x="577" y="-123"/>
      <point x="586" y="-109"/>
      <point x="586" y="-96" type="curve" smooth="yes"/>
      <point x="586" y="-82"/>
      <point x="577" y="-69"/>
      <point x="563" y="-69" type="curve" smooth="yes"/>
      <point x="105" y="-69" type="line" smooth="yes"/>
      <point x="91" y="-69"/>
      <point x="82" y="-82"/>
      <point x="82" y="-96" type="curve" smooth="yes"/>
      <point x="82" y="-109"/>
      <point x="91" y="-123"/>
      <point x="105" y="-123" type="curve" smooth="yes"/>
    </contour>
  </outline>
</glyph>
<glyph name="grave" format="1">
  <advance width="282"/>
  <unicode hex="0060"/>
  <outline>
    <contour>
      <point x="152" y="518" type="line" smooth="yes"/>
      <point x="165" y="504"/>
      <point x="180" y="504"/>
      <point x="189" y="509" type="curve" smooth="yes"/>
      <point x="198" y="514"/>
      <point x="204" y="528"/>
      <point x="196" y="542" type="curve"/>
      <point x="121" y="679" type="line"/>
      <point x="111" y="698"/>
      <point x="89" y="709"/>
      <point x="66" y="697" type="curve" smooth="yes"/>
      <point x="43" y="685"/>
      <point x="33" y="657"/>
      <point x="50" y="637" type="curve"/>
    </contour>
    <contour>
      <point x="156" y="490" type="move" name="_top"/>
    </contour>
  </outline>
</glyph>
<glyph name="a" format="1">
  <advance width="501"/>
  <unicode hex="0061"/>
  <outline>
    <contour>
      <point x="298" y="436"/>
      <point x="326" y="398"/>
      <point x="326" y="336" type="curve" smooth="yes"/>
      <point x="326" y="257" type="line"/>
      <point x="264" y="250"/>
      <point x="34" y="252"/>
      <point x="34" y="107" type="curve" smooth="yes"/>
      <point x="34" y="41"/>
      <point x="90" y="-12"/>
      <point x="158" y="-12" type="curve" smooth="yes"/>
      <point x="213" y="-12"/>
      <point x="297" y="16"/>
      <point x="326" y="69" type="curve"/>
      <point x="332" y="18"/>
      <point x="377" y="-12"/>
      <point x="426" y="-12" type="curve" smooth="yes"/>
      <point x="443" y="-12"/>
      <point x="481" y="-7"/>
      <point x="481" y="11" type="curve" smooth="yes"/>
      <point x="481" y="26"/>
      <point x="475" y="27"/>
      <point x="466" y="27" type="curve" smooth="yes"/>
      <point x="425" y="27"/>
      <point x="415" y="66"/>
      <point x="414" y="86" type="curve"/>
      <point x="414" y="319" type="line" smooth="yes"/>
      <point x="414" y="442"/>
      <point x="319" y="465"/>
      <point x="229" y="465" type="curve" smooth="yes"/>
      <point x="152" y="465"/>
      <point x="70" y="438"/>
      <point x="70" y="363" type="curve" smooth="yes"/>
      <point x="70" y="326"/>
      <point x="93" y="289"/>
      <point x="135" y="289" type="curve" smooth="yes"/>
      <point x="162" y="289"/>
      <point x="178" y="308"/>
      <point x="178" y="314" type="curve" smooth="yes"/>
      <point x="178" y="318"/>
      <point x="146" y="333"/>
      <point x="146" y="366" type="curve" smooth="yes"/>
      <point x="146" y="411"/>
      <point x="185" y="436"/>
      <point x="223" y="436" type="curve" smooth="yes"/>
    </contour>
    <contour>
      <point x="326" y="171" type="line"/>
      <point x="326" y="98"/>
      <point x="268" y="42"/>
      <point x="200" y="42" type="curve" smooth="yes"/>
      <point x="161" y="42"/>
      <point x="135" y="77"/>
      <point x="135" y="120" type="curve" smooth="yes"/>
      <point x="135" y="188"/>
      <point x="198" y="210"/>
      <point x="326" y="227" type="curve"/>
    </contour>
    <contour>
      <point x="228" y="490" type="move" name="top"/>
    </contour>
  </outline>
</glyph>
<glyph name="b" format="1">
  <advance width="561"/>
  <unicode hex="0062"/>
  <outline>
    <contour>
      <point x="78" y="6" type="line" smooth="yes"/>
      <point x="78" y="-5"/>
      <point x="85" y="-14"/>
      <point x="97" y="-14" type="curve" smooth="yes"/>
      <point x="117" y="-14"/>
      <point x="122" y="17"/>
      <point x="132" y="37" type="curve"/>
      <point x="137" y="37" type="line"/>
      <point x="181" y="4"/>
      <point x="230" y="-12"/>
      <point x="291" y="-12" type="curve" smooth="yes"/>
      <point x="412" y="-12"/>
      <point x="520" y="93"/>
      <point x="520" y="230" type="curve" smooth="yes"/>
      <point x="520" y="369"/>
      <point x="428" y="465"/>
      <point x="310" y="465" type="curve" smooth="yes"/>
      <point x="264" y="465"/>
      <point x="212" y="447"/>
      <point x="172" y="407" type="curve"/>
      <point x="169" y="407" type="line"/>
      <point x="169" y="709" type="line" smooth="yes"/>
      <point x="169" y="725"/>
      <point x="160" y="729"/>
      <point x="150" y="728" type="curve" smooth="yes"/>
      <point x="130" y="726"/>
      <point x="110" y="709"/>
      <point x="19" y="696" type="curve" smooth="yes"/>
      <point x="8" y="694"/>
      <point x="3" y="686"/>
      <point x="3" y="678" type="curve" smooth="yes"/>
      <point x="3" y="658"/>
      <point x="15" y="658"/>
      <point x="27" y="658" type="curve" smooth="yes"/>
      <point x="82" y="658"/>
      <point x="78" y="625"/>
      <point x="78" y="590" type="curve" smooth="yes"/>
    </contour>
    <contour>
      <point x="418" y="100"/>
      <point x="362" y="22"/>
      <point x="282" y="22" type="curve" smooth="yes"/>
      <point x="212" y="22"/>
      <point x="175" y="77"/>
      <point x="169" y="105" type="curve"/>
      <point x="169" y="369" type="line"/>
      <point x="196" y="398"/>
      <point x="230" y="415"/>
      <point x="275" y="415" type="curve" smooth="yes"/>
      <point x="377" y="415"/>
      <point x="418" y="319"/>
      <point x="418" y="226" type="curve" smooth="yes"/>
    </contour>
  </outline>
</glyph>
<glyph name="c" format="1">
  <advance width="475"/>
  <unicode hex="0063"/>
  <outline>
    <contour>
      <point x="378" y="63"/>
      <point x="340" y="38"/>
      <point x="282" y="38" type="curve" smooth="yes"/>
      <point x="196" y="38"/>
      <point x="143" y="120"/>
      <point x="143" y="230" type="curve" smooth="yes"/>
      <point x="143" y="318"/>
      <point x="160" y="429"/>
      <point x="277" y="428" type="curve"/>
      <point x="315" y="427"/>
      <point x="352" y="408"/>
      <point x="352" y="365" type="curve" smooth="yes"/>
      <point x="352" y="330"/>
      <point x="319" y="314"/>
      <point x="319" y="310" type="curve" smooth="yes"/>
      <point x="319" y="303"/>
      <point x="336" y="283"/>
      <point x="365" y="283" type="curve" smooth="yes"/>
      <point x="416" y="283"/>
      <point x="442" y="337"/>
      <point x="431" y="382" type="curve"/>
      <point x="411" y="461"/>
      <point x="312" y="465"/>
      <point x="276" y="465" type="curve"/>
      <point x="147" y="461"/>
      <point x="46" y="365"/>
      <point x="41" y="227" type="curve" smooth="yes"/>
      <point x="41" y="83"/>
      <point x="122" y="-12"/>
      <point x="259" y="-12" type="curve" smooth="yes"/>
      <point x="326" y="-12"/>
      <point x="396" y="27"/>
      <point x="440" y="90" type="curve"/>
      <point x="446" y="99"/>
      <point x="441" y="110"/>
      <point x="432" y="115" type="curve" smooth="yes"/>
      <point x="423" y="120"/>
      <point x="415" y="119"/>
      <point x="411" y="113" type="curve"/>
    </contour>
  </outline>
</glyph>
<glyph name="d" format="1">
  <advance width="580"/>
  <unicode hex="0064"/>
  <outline>
    <contour>
      <point x="391" y="88" type="line"/>
      <point x="367" y="63"/>
      <point x="336" y="38"/>
      <point x="285" y="38" type="curve" smooth="yes"/>
      <point x="189" y="38"/>
      <point x="144" y="127"/>
      <point x="144" y="222" type="curve" smooth="yes"/>
      <point x="144" y="353"/>
      <point x="205" y="429"/>
      <point x="282" y="429" type="curve" smooth="yes"/>
      <point x="345" y="429"/>
      <point x="381" y="385"/>
      <point x="391" y="352" type="curve"/>
    </contour>
    <contour>
      <point x="482" y="709" type="line"/>
      <point x="482" y="725"/>
      <point x="473" y="729"/>
      <point x="463" y="728" type="curve" smooth="yes"/>
      <point x="443" y="726"/>
      <point x="423" y="709"/>
      <point x="332" y="696" type="curve" smooth="yes"/>
      <point x="321" y="694"/>
      <point x="316" y="686"/>
      <point x="316" y="678" type="curve" smooth="yes"/>
      <point x="316" y="658"/>
      <point x="328" y="658"/>
      <point x="340" y="658" type="curve" smooth="yes"/>
      <point x="395" y="658"/>
      <point x="391" y="625"/>
      <point x="391" y="590" type="curve"/>
      <point x="391" y="437" type="line"/>
      <point x="388" y="437" type="line"/>
      <point x="358" y="454"/>
      <point x="314" y="465"/>
      <point x="272" y="465" type="curve" smooth="yes"/>
      <point x="137" y="465"/>
      <point x="41" y="351"/>
      <point x="41" y="227" type="curve" smooth="yes"/>
      <point x="41" y="85"/>
      <point x="139" y="-12"/>
      <point x="251" y="-12" type="curve" smooth="yes"/>
      <point x="302" y="-12"/>
      <point x="355" y="14"/>
      <point x="389" y="49" type="curve"/>
      <point x="392" y="49" type="line"/>
      <point x="392" y="9" type="line" smooth="yes"/>
      <point x="392" y="-2"/>
      <point x="391" y="-11"/>
      <point x="401" y="-11" type="curve"/>
      <point x="560" y="0" type="line"/>
      <point x="572" y="2"/>
      <point x="577" y="8"/>
      <point x="577" y="17" type="curve" smooth="yes"/>
      <point x="577" y="23"/>
      <point x="575" y="33"/>
      <point x="560" y="33" type="curve" smooth="yes"/>
      <point x="506" y="33"/>
      <point x="482" y="53"/>
      <point x="482" y="92" type="curve" smooth="yes"/>
    </contour>
  </outline>
</glyph>
<glyph name="e" format="1">
  <advance width="502"/>
  <unicode hex="0065"/>
  <outline>
    <contour>
      <point x="143" y="278" type="line"/>
      <point x="148" y="374"/>
      <point x="197" y="430"/>
      <point x="264" y="430" type="curve" smooth="yes"/>
      <point x="329" y="430"/>
      <point x="360" y="377"/>
      <point x="360" y="320" type="curve"/>
      <point x="358" y="289"/>
      <point x="338" y="278"/>
      <point x="306" y="278" type="curve" smooth="yes"/>
    </contour>
    <contour>
      <point x="466" y="101"/>
      <point x="463" y="114"/>
      <point x="453" y="120" type="curve" smooth="yes"/>
      <point x="444" y="126"/>
      <point x="436" y="125"/>
      <point x="431" y="119" type="curve"/>
      <point x="394" y="59"/>
      <point x="357" y="38"/>
      <point x="301" y="38" type="curve" smooth="yes"/>
      <point x="188" y="38"/>
      <point x="143" y="124"/>
      <point x="143" y="240" type="curve"/>
      <point x="386" y="240" type="line" smooth="yes"/>
      <point x="427" y="240"/>
      <point x="456" y="250"/>
      <point x="456" y="297" type="curve"/>
      <point x="447" y="394"/>
      <point x="387" y="465"/>
      <point x="264" y="465" type="curve" smooth="yes"/>
      <point x="126" y="465"/>
      <point x="41" y="345"/>
      <point x="41" y="229" type="curve" smooth="yes"/>
      <point x="41" y="98"/>
      <point x="120" y="-12"/>
      <point x="275" y="-12" type="curve" smooth="yes"/>
      <point x="356" y="-12"/>
      <point x="420" y="28"/>
      <point x="461" y="93" type="curve"/>
    </contour>
    <contour>
      <point x="264" y="490" type="move" name="top"/>
    </contour>
  </outline>
</glyph>
<glyph name="f" format="1">
  <advance width="343"/>
  <unicode hex="0066"/>
  <outline>
    <contour>
      <point x="116" y="453" type="line"/>
      <point x="56" y="453" type="line" smooth="yes"/>
      <point x="43" y="453"/>
      <point x="33" y="455"/>
      <point x="32" y="434" type="curve" smooth="yes"/>
      <point x="32" y="424"/>
      <point x="38" y="414"/>
      <point x="49" y="414" type="curve" smooth="yes"/>
      <point x="116" y="414" type="line"/>
      <point x="116" y="103" type="line" smooth="yes"/>
      <point x="116" y="68"/>
      <point x="121" y="35"/>
      <point x="65" y="35" type="curve" smooth="yes"/>
      <point x="52" y="35"/>
      <point x="43" y="37"/>
      <point x="42" y="17" type="curve" smooth="yes"/>
      <point x="42" y="7"/>
      <point x="47" y="-3"/>
      <point x="58" y="-3" type="curve" smooth="yes"/>
      <point x="96" y="-1"/>
      <point x="126" y="0"/>
      <point x="162" y="0" type="curve" smooth="yes"/>
      <point x="197" y="0"/>
      <point x="248" y="-1"/>
      <point x="287" y="-3" type="curve" smooth="yes"/>
      <point x="297" y="-3"/>
      <point x="302" y="7"/>
      <point x="302" y="17" type="curve" smooth="yes"/>
      <point x="301" y="37"/>
      <point x="292" y="35"/>
      <point x="279" y="35" type="curve" smooth="yes"/>
      <point x="216" y="35"/>
      <point x="208" y="44"/>
      <point x="208" y="103" type="curve" smooth="yes"/>
      <point x="208" y="414" type="line"/>
      <point x="314" y="414" type="line" smooth="yes"/>
      <point x="324" y="414"/>
      <point x="331" y="424"/>
      <point x="331" y="434" type="curve" smooth="yes"/>
      <point x="330" y="455"/>
      <point x="319" y="453"/>
      <point x="306" y="453" type="curve" smooth="yes"/>
      <point x="208" y="453" type="line"/>
      <point x="208" y="508" type="line" smooth="yes"/>
      <point x="208" y="565"/>
      <point x="206" y="691"/>
      <point x="294" y="691" type="curve" smooth="yes"/>
      <point x="327" y="691"/>
      <point x="352" y="667"/>
      <point x="352" y="638" type="curve" smooth="yes"/>
      <point x="352" y="599"/>
      <point x="318" y="582"/>
      <point x="318" y="577" type="curve" smooth="yes"/>
      <point x="318" y="571"/>
      <point x="334" y="551"/>
      <point x="362" y="551" type="curve" smooth="yes"/>
      <point x="405" y="551"/>
      <point x="428" y="589"/>
      <point x="428" y="626" type="curve" smooth="yes"/>
      <point x="428" y="687"/>
      <point x="362" y="724"/>
      <point x="301" y="724" type="curve"/>
      <point x="180" y="721"/>
      <point x="116" y="623"/>
      <point x="116" y="490" type="curve"/>
    </contour>
  </outline>
</glyph>
<glyph name="g" format="1">
  <advance width="523"/>
  <unicode hex="0067"/>
  <outline>
    <contour>
      <point x="500" y="410" type="line"/>
      <point x="509" y="410"/>
      <point x="515" y="430"/>
      <point x="515" y="448" type="curve" smooth="yes"/>
      <point x="515" y="460"/>
      <point x="511" y="473"/>
      <point x="496" y="472" type="curve"/>
      <point x="359" y="446" type="line"/>
      <point x="330" y="461"/>
      <point x="285" y="466"/>
      <point x="248" y="466" type="curve" smooth="yes"/>
      <point x="134" y="466"/>
      <point x="55" y="399"/>
      <point x="55" y="313" type="curve" smooth="yes"/>
      <point x="55" y="262"/>
      <point x="77" y="211"/>
      <point x="162" y="178" type="curve"/>
      <point x="91" y="178"/>
      <point x="56" y="135"/>
      <point x="56" y="86" type="curve" smooth="yes"/>
      <point x="56" y="32"/>
      <point x="91" y="13"/>
      <point x="138" y="5" type="curve" smooth="yes"/>
      <point x="244" y="-13"/>
      <point x="417" y="21"/>
      <point x="417" y="-76" type="curve" smooth="yes"/>
      <point x="417" y="-147"/>
      <point x="359" y="-181"/>
      <point x="269" y="-181" type="curve" smooth="yes"/>
      <point x="172" y="-181"/>
      <point x="127" y="-166"/>
      <point x="127" y="-104" type="curve" smooth="yes"/>
      <point x="127" y="-65"/>
      <point x="157" y="-49"/>
      <point x="157" y="-44" type="curve" smooth="yes"/>
      <point x="157" y="-37"/>
      <point x="135" y="-14"/>
      <point x="104" y="-14" type="curve" smooth="yes"/>
      <point x="57" y="-14"/>
      <point x="27" y="-54"/>
      <point x="27" y="-98" type="curve" smooth="yes"/>
      <point x="27" y="-188"/>
      <point x="110" y="-218"/>
      <point x="239" y="-218" type="curve" smooth="yes"/>
      <point x="399" y="-218"/>
      <point x="506" y="-157"/>
      <point x="506" y="-51" type="curve" smooth="yes"/>
      <point x="506" y="28"/>
      <point x="450" y="73"/>
      <point x="308" y="73" type="curve"/>
      <point x="171" y="77" type="line"/>
      <point x="127" y="80"/>
      <point x="113" y="92"/>
      <point x="113" y="116" type="curve" smooth="yes"/>
      <point x="113" y="147"/>
      <point x="143" y="159"/>
      <point x="212" y="159" type="curve" smooth="yes"/>
      <point x="256" y="159" type="line" smooth="yes"/>
      <point x="348" y="159"/>
      <point x="442" y="217"/>
      <point x="442" y="314" type="curve" smooth="yes"/>
      <point x="442" y="347"/>
      <point x="424" y="389"/>
      <point x="401" y="412" type="curve"/>
      <point x="401" y="414" type="line"/>
    </contour>
    <contour>
      <point x="308" y="435"/>
      <point x="352" y="389"/>
      <point x="352" y="314" type="curve" smooth="yes"/>
      <point x="352" y="233"/>
      <point x="309" y="188"/>
      <point x="248" y="188" type="curve" smooth="yes"/>
      <point x="188" y="188"/>
      <point x="144" y="234"/>
      <point x="144" y="316" type="curve" smooth="yes"/>
      <point x="144" y="391"/>
      <point x="188" y="435"/>
      <point x="247" y="435" type="curve" smooth="yes"/>
    </contour>
  </outline>
</glyph>
<glyph name="h" format="1">
  <advance width="589"/>
  <unicode hex="0068"/>
  <outline>
    <contour>
      <point x="189" y="710" type="line" smooth="yes"/>
      <point x="189" y="726"/>
      <point x="180" y="730"/>
      <point x="170" y="729" type="curve" smooth="yes"/>
      <point x="150" y="727"/>
      <point x="130" y="710"/>
      <point x="39" y="697" type="curve" smooth="yes"/>
      <point x="28" y="695"/>
      <point x="23" y="687"/>
      <point x="23" y="679" type="curve" smooth="yes"/>
      <point x="23" y="659"/>
      <point x="35" y="659"/>
      <point x="47" y="659" type="curve" smooth="yes"/>
      <point x="102" y="659"/>
      <point x="98" y="626"/>
      <point x="98" y="591" type="curve" smooth="yes"/>
      <point x="98" y="103" type="line" smooth="yes"/>
      <point x="98" y="68"/>
      <point x="102" y="35"/>
      <point x="46" y="35" type="curve" smooth="yes"/>
      <point x="34" y="35"/>
      <point x="24" y="37"/>
      <point x="23" y="17" type="curve" smooth="yes"/>
      <point x="23" y="7"/>
      <point x="28" y="-3"/>
      <point x="39" y="-3" type="curve" smooth="yes"/>
      <point x="78" y="-1"/>
      <point x="107" y="0"/>
      <point x="143" y="0" type="curve" smooth="yes"/>
      <point x="178" y="0"/>
      <point x="209" y="-1"/>
      <point x="248" y="-3" type="curve" smooth="yes"/>
      <point x="258" y="-3"/>
      <point x="263" y="7"/>
      <point x="263" y="17" type="curve" smooth="yes"/>
      <point x="262" y="37"/>
      <point x="253" y="35"/>
      <point x="240" y="35" type="curve" smooth="yes"/>
      <point x="185" y="35"/>
      <point x="189" y="68"/>
      <point x="189" y="103" type="curve" smooth="yes"/>
      <point x="189" y="341" type="line"/>
      <point x="200" y="364"/>
      <point x="244" y="410"/>
      <point x="313" y="410" type="curve" smooth="yes"/>
      <point x="359" y="410"/>
      <point x="408" y="381"/>
      <point x="408" y="315" type="curve" smooth="yes"/>
      <point x="408" y="103" type="line" smooth="yes"/>
      <point x="408" y="68"/>
      <point x="413" y="35"/>
      <point x="357" y="35" type="curve" smooth="yes"/>
      <point x="344" y="35"/>
      <point x="335" y="37"/>
      <point x="334" y="17" type="curve" smooth="yes"/>
      <point x="334" y="7"/>
      <point x="339" y="-3"/>
      <point x="350" y="-3" type="curve" smooth="yes"/>
      <point x="388" y="-1"/>
      <point x="418" y="0"/>
      <point x="454" y="0" type="curve" smooth="yes"/>
      <point x="489" y="0"/>
      <point x="520" y="-1"/>
      <point x="559" y="-3" type="curve" smooth="yes"/>
      <point x="569" y="-3"/>
      <point x="574" y="7"/>
      <point x="574" y="17" type="curve" smooth="yes"/>
      <point x="573" y="37"/>
      <point x="564" y="35"/>
      <point x="551" y="35" type="curve" smooth="yes"/>
      <point x="496" y="35"/>
      <point x="500" y="68"/>
      <point x="500" y="103" type="curve" smooth="yes"/>
      <point x="500" y="316" type="line" smooth="yes"/>
      <point x="500" y="405"/>
      <point x="443" y="465"/>
      <point x="352" y="465" type="curve" smooth="yes"/>
      <point x="268" y="465"/>
      <point x="230" y="425"/>
      <point x="191" y="388" type="curve"/>
      <point x="189" y="388" type="line"/>
    </contour>
  </outline>
</glyph>
<glyph name="i" format="1">
  <advance width="297"/>
  <unicode hex="0069"/>
  <outline>
    <contour>
      <point x="186" y="591"/>
      <point x="210" y="621"/>
      <point x="210" y="649" type="curve" smooth="yes"/>
      <point x="210" y="694"/>
      <point x="177" y="711"/>
      <point x="153" y="711" type="curve" smooth="yes"/>
      <point x="103" y="711"/>
      <point x="78" y="674"/>
      <point x="78" y="652" type="curve" smooth="yes"/>
      <point x="78" y="607"/>
      <point x="116" y="591"/>
      <point x="144" y="591" type="curve"/>
    </contour>
    <contour>
      <point x="200" y="451" type="line"/>
      <point x="200" y="467"/>
      <point x="191" y="471"/>
      <point x="181" y="470" type="curve" smooth="yes"/>
      <point x="161" y="468"/>
      <point x="141" y="451"/>
      <point x="50" y="438" type="curve"/>
      <point x="39" y="436"/>
      <point x="34" y="428"/>
      <point x="34" y="420" type="curve" smooth="yes"/>
      <point x="34" y="400"/>
      <point x="46" y="400"/>
      <point x="58" y="400" type="curve" smooth="yes"/>
      <point x="113" y="400"/>
      <point x="109" y="367"/>
      <point x="109" y="332" type="curve"/>
      <point x="109" y="103" type="line" smooth="yes"/>
      <point x="109" y="68"/>
      <point x="113" y="35"/>
      <point x="58" y="35" type="curve" smooth="yes"/>
      <point x="45" y="35"/>
      <point x="36" y="37"/>
      <point x="34" y="17" type="curve" smooth="yes"/>
      <point x="34" y="7"/>
      <point x="40" y="-3"/>
      <point x="50" y="-3" type="curve" smooth="yes"/>
      <point x="89" y="-1"/>
      <point x="118" y="0"/>
      <point x="154" y="0" type="curve"/>
      <point x="190" y="0"/>
      <point x="220" y="-1"/>
      <point x="259" y="-3" type="curve" smooth="yes"/>
      <point x="270" y="-3"/>
      <point x="275" y="7"/>
      <point x="275" y="17" type="curve" smooth="yes"/>
      <point x="274" y="37"/>
      <point x="264" y="35"/>
      <point x="252" y="35" type="curve" smooth="yes"/>
      <point x="196" y="35"/>
      <point x="200" y="68"/>
      <point x="200" y="103" type="curve" smooth="yes"/>
    </contour>
    <contour>
      <point x="146" y="490" type="move" name="top"/>
    </contour>
  </outline>
</glyph>
<glyph name="j" format="1">
  <advance width="266"/>
  <unicode hex="006A"/>
  <outline>
    <contour>
      <point x="98" y="131" type="line"/>
      <point x="98" y="-32"/>
      <point x="89" y="-126"/>
      <point x="-8" y="-167" type="curve"/>
      <point x="-19" y="-171"/>
      <point x="-18" y="-181"/>
      <point x="-16" y="-191" type="curve" smooth="yes"/>
      <point x="-11" y="-203"/>
      <point x="-7" y="-207"/>
      <point x="4" y="-205" type="curve"/>
      <point x="146" y="-171"/>
      <point x="189" y="-52"/>
      <point x="189" y="99" type="curve"/>
      <point x="189" y="451" type="line" smooth="yes"/>
      <point x="189" y="467"/>
      <point x="180" y="471"/>
      <point x="170" y="470" type="curve" smooth="yes"/>
      <point x="150" y="468"/>
      <point x="130" y="451"/>
      <point x="39" y="438" type="curve" smooth="yes"/>
      <point x="28" y="436"/>
      <point x="23" y="428"/>
      <point x="23" y="420" type="curve" smooth="yes"/>
      <point x="23" y="400"/>
      <point x="35" y="400"/>
      <point x="47" y="400" type="curve" smooth="yes"/>
      <point x="102" y="400"/>
      <point x="98" y="367"/>
      <point x="98" y="332" type="curve"/>
    </contour>
    <contour>
      <point x="159" y="591"/>
      <point x="183" y="621"/>
      <point x="183" y="649" type="curve" smooth="yes"/>
      <point x="183" y="694"/>
      <point x="150" y="711"/>
      <point x="126" y="711" type="curve" smooth="yes"/>
      <point x="76" y="711"/>
      <point x="51" y="674"/>
      <point x="51" y="652" type="curve" smooth="yes"/>
      <point x="51" y="607"/>
      <point x="89" y="591"/>
      <point x="117" y="591" type="curve" smooth="yes"/>
    </contour>
  </outline>
</glyph>
<glyph name="k" format="1">
  <advance width="567"/>
  <unicode hex="006B"/>
  <outline>
    <contour>
      <point x="189" y="709" type="line"/>
      <point x="189" y="725"/>
      <point x="180" y="729"/>
      <point x="170" y="728" type="curve" smooth="yes"/>
      <point x="150" y="726"/>
      <point x="130" y="709"/>
      <point x="39" y="696" type="curve" smooth="yes"/>
      <point x="28" y="694"/>
      <point x="23" y="686"/>
      <point x="23" y="678" type="curve" smooth="yes"/>
      <point x="23" y="658"/>
      <point x="35" y="658"/>
      <point x="47" y="658" type="curve" smooth="yes"/>
      <point x="102" y="658"/>
      <point x="98" y="625"/>
      <point x="98" y="590" type="curve"/>
      <point x="98" y="103" type="line" smooth="yes"/>
      <point x="98" y="68"/>
      <point x="102" y="35"/>
      <point x="46" y="35" type="curve" smooth="yes"/>
      <point x="34" y="35"/>
      <point x="24" y="37"/>
      <point x="23" y="17" type="curve" smooth="yes"/>
      <point x="23" y="7"/>
      <point x="28" y="-3"/>
      <point x="39" y="-3" type="curve" smooth="yes"/>
      <point x="78" y="-1"/>
      <point x="107" y="0"/>
      <point x="143" y="0" type="curve" smooth="yes"/>
      <point x="178" y="0"/>
      <point x="209" y="-1"/>
      <point x="248" y="-3" type="curve" smooth="yes"/>
      <point x="258" y="-3"/>
      <point x="264" y="7"/>
      <point x="264" y="17" type="curve" smooth="yes"/>
      <point x="262" y="37"/>
      <point x="253" y="35"/>
      <point x="240" y="35" type="curve" smooth="yes"/>
      <point x="185" y="35"/>
      <point x="189" y="68"/>
      <point x="189" y="103" type="curve" smooth="yes"/>
      <point x="189" y="224" type="line"/>
      <point x="213" y="226"/>
      <point x="234" y="211"/>
      <point x="248" y="196" type="curve"/>
      <point x="308" y="126"/>
      <point x="372" y="50"/>
      <point x="419" y="0" type="curve"/>
      <point x="519" y="0"/>
      <point x="514" y="-1"/>
      <point x="552" y="-3" type="curve" smooth="yes"/>
      <point x="564" y="-3"/>
      <point x="568" y="7"/>
      <point x="568" y="17" type="curve" smooth="yes"/>
      <point x="568" y="36"/>
      <point x="556" y="34"/>
      <point x="546" y="35" type="curve" smooth="yes"/>
      <point x="507" y="38"/>
      <point x="488" y="60"/>
      <point x="449" y="101" type="curve"/>
      <point x="417" y="138"/>
      <point x="331" y="231"/>
      <point x="300" y="273" type="curve" smooth="yes"/>
      <point x="384" y="359" type="line"/>
      <point x="424" y="400"/>
      <point x="449" y="418"/>
      <point x="501" y="418" type="curve"/>
      <point x="510" y="418"/>
      <point x="517" y="419"/>
      <point x="518" y="436" type="curve" smooth="yes"/>
      <point x="518" y="446"/>
      <point x="512" y="456"/>
      <point x="502" y="456" type="curve" smooth="yes"/>
      <point x="479" y="455"/>
      <point x="458" y="453"/>
      <point x="435" y="453" type="curve" smooth="yes"/>
      <point x="405" y="453"/>
      <point x="355" y="454"/>
      <point x="325" y="456" type="curve"/>
      <point x="315" y="456"/>
      <point x="309" y="446"/>
      <point x="309" y="436" type="curve" smooth="yes"/>
      <point x="310" y="424"/>
      <point x="314" y="419"/>
      <point x="321" y="418" type="curve"/>
      <point x="395" y="422"/>
      <point x="362" y="394"/>
      <point x="345" y="375" type="curve"/>
      <point x="261" y="289" type="line"/>
      <point x="244" y="272"/>
      <point x="218" y="258"/>
      <point x="189" y="252" type="curve"/>
    </contour>
  </outline>
</glyph>
<glyph name="l" format="1">
  <advance width="286"/>
  <unicode hex="006C"/>
  <outline>
    <contour>
      <point x="98" y="103" type="line"/>
      <point x="98" y="68"/>
      <point x="102" y="35"/>
      <point x="46" y="35" type="curve" smooth="yes"/>
      <point x="34" y="35"/>
      <point x="24" y="37"/>
      <point x="23" y="17" type="curve" smooth="yes"/>
      <point x="23" y="7"/>
      <point x="29" y="-3"/>
      <point x="39" y="-3" type="curve" smooth="yes"/>
      <point x="78" y="-1"/>
      <point x="107" y="0"/>
      <point x="143" y="0" type="curve"/>
      <point x="179" y="0"/>
      <point x="209" y="-1"/>
      <point x="248" y="-3" type="curve" smooth="yes"/>
      <point x="259" y="-3"/>
      <point x="264" y="7"/>
      <point x="264" y="17" type="curve" smooth="yes"/>
      <point x="263" y="37"/>
      <point x="253" y="35"/>
      <point x="241" y="35" type="curve" smooth="yes"/>
      <point x="185" y="35"/>
      <point x="189" y="68"/>
      <point x="189" y="103" type="curve"/>
      <point x="189" y="710" type="line" smooth="yes"/>
      <point x="189" y="726"/>
      <point x="180" y="730"/>
      <point x="170" y="729" type="curve" smooth="yes"/>
      <point x="150" y="727"/>
      <point x="130" y="710"/>
      <point x="39" y="697" type="curve" smooth="yes"/>
      <point x="28" y="695"/>
      <point x="23" y="687"/>
      <point x="23" y="679" type="curve" smooth="yes"/>
      <point x="23" y="659"/>
      <point x="35" y="659"/>
      <point x="47" y="659" type="curve" smooth="yes"/>
      <point x="102" y="659"/>
      <point x="98" y="626"/>
      <point x="98" y="591" type="curve"/>
    </contour>
  </outline>
</glyph>
<glyph name="m" format="1">
  <advance width="896"/>
  <unicode hex="006D"/>
  <outline>
    <contour>
      <point x="199" y="451" type="line" smooth="yes"/>
      <point x="199" y="467"/>
      <point x="190" y="471"/>
      <point x="180" y="470" type="curve" smooth="yes"/>
      <point x="160" y="468"/>
      <point x="141" y="451"/>
      <point x="50" y="438" type="curve" smooth="yes"/>
      <point x="39" y="436"/>
      <point x="34" y="428"/>
      <point x="34" y="420" type="curve" smooth="yes"/>
      <point x="34" y="400"/>
      <point x="46" y="400"/>
      <point x="58" y="400" type="curve" smooth="yes"/>
      <point x="113" y="400"/>
      <point x="109" y="367"/>
      <point x="109" y="332" type="curve" smooth="yes"/>
      <point x="109" y="103" type="line" smooth="yes"/>
      <point x="109" y="68"/>
      <point x="113" y="35"/>
      <point x="57" y="35" type="curve" smooth="yes"/>
      <point x="45" y="35"/>
      <point x="35" y="37"/>
      <point x="34" y="17" type="curve" smooth="yes"/>
      <point x="34" y="7"/>
      <point x="40" y="-3"/>
      <point x="50" y="-3" type="curve" smooth="yes"/>
      <point x="89" y="-1"/>
      <point x="118" y="0"/>
      <point x="154" y="0" type="curve" smooth="yes"/>
      <point x="190" y="0"/>
      <point x="220" y="-1"/>
      <point x="259" y="-3" type="curve" smooth="yes"/>
      <point x="270" y="-3"/>
      <point x="275" y="7"/>
      <point x="275" y="17" type="curve" smooth="yes"/>
      <point x="274" y="37"/>
      <point x="264" y="35"/>
      <point x="252" y="35" type="curve" smooth="yes"/>
      <point x="196" y="35"/>
      <point x="200" y="68"/>
      <point x="200" y="103" type="curve" smooth="yes"/>
      <point x="200" y="341" type="line"/>
      <point x="212" y="364"/>
      <point x="247" y="410"/>
      <point x="317" y="410" type="curve" smooth="yes"/>
      <point x="363" y="410"/>
      <point x="412" y="381"/>
      <point x="412" y="315" type="curve" smooth="yes"/>
      <point x="412" y="103" type="line" smooth="yes"/>
      <point x="412" y="68"/>
      <point x="420" y="35"/>
      <point x="364" y="35" type="curve" smooth="yes"/>
      <point x="351" y="35"/>
      <point x="342" y="37"/>
      <point x="341" y="17" type="curve" smooth="yes"/>
      <point x="341" y="7"/>
      <point x="346" y="-3"/>
      <point x="357" y="-3" type="curve" smooth="yes"/>
      <point x="396" y="-1"/>
      <point x="422" y="0"/>
      <point x="457" y="0" type="curve" smooth="yes"/>
      <point x="493" y="0"/>
      <point x="520" y="-1"/>
      <point x="559" y="-3" type="curve" smooth="yes"/>
      <point x="570" y="-3"/>
      <point x="575" y="7"/>
      <point x="575" y="17" type="curve" smooth="yes"/>
      <point x="574" y="37"/>
      <point x="565" y="35"/>
      <point x="552" y="35" type="curve" smooth="yes"/>
      <point x="496" y="35"/>
      <point x="504" y="68"/>
      <point x="504" y="103" type="curve" smooth="yes"/>
      <point x="504" y="341" type="line"/>
      <point x="515" y="364"/>
      <point x="551" y="410"/>
      <point x="620" y="410" type="curve" smooth="yes"/>
      <point x="666" y="410"/>
      <point x="716" y="381"/>
      <point x="716" y="315" type="curve" smooth="yes"/>
      <point x="716" y="103" type="line" smooth="yes"/>
      <point x="716" y="68"/>
      <point x="720" y="35"/>
      <point x="664" y="35" type="curve" smooth="yes"/>
      <point x="652" y="35"/>
      <point x="642" y="37"/>
      <point x="641" y="17" type="curve" smooth="yes"/>
      <point x="641" y="7"/>
      <point x="646" y="-3"/>
      <point x="657" y="-3" type="curve" smooth="yes"/>
      <point x="696" y="-1"/>
      <point x="725" y="0"/>
      <point x="761" y="0" type="curve" smooth="yes"/>
      <point x="797" y="0"/>
      <point x="827" y="-1"/>
      <point x="866" y="-3" type="curve" smooth="yes"/>
      <point x="876" y="-3"/>
      <point x="882" y="7"/>
      <point x="882" y="17" type="curve" smooth="yes"/>
      <point x="881" y="37"/>
      <point x="871" y="35"/>
      <point x="859" y="35" type="curve" smooth="yes"/>
      <point x="803" y="35"/>
      <point x="807" y="68"/>
      <point x="807" y="103" type="curve" smooth="yes"/>
      <point x="807" y="316" type="line" smooth="yes"/>
      <point x="807" y="405"/>
      <point x="750" y="465"/>
      <point x="659" y="465" type="curve" smooth="yes"/>
      <point x="575" y="465"/>
      <point x="532" y="425"/>
      <point x="493" y="388" type="curve"/>
      <point x="491" y="388" type="line"/>
      <point x="469" y="436"/>
      <point x="421" y="465"/>
      <point x="356" y="465" type="curve" smooth="yes"/>
      <point x="272" y="465"/>
      <point x="241" y="425"/>
      <point x="202" y="388" type="curve"/>
      <point x="199" y="388" type="line"/>
    </contour>
  </outline>
</glyph>
<glyph name="n" format="1">
  <advance width="599"/>
  <unicode hex="006E"/>
  <outline>
    <contour>
      <point x="198" y="451" type="line" smooth="yes"/>
      <point x="198" y="467"/>
      <point x="189" y="471"/>
      <point x="179" y="470" type="curve" smooth="yes"/>
      <point x="159" y="468"/>
      <point x="140" y="451"/>
      <point x="49" y="438" type="curve" smooth="yes"/>
      <point x="38" y="436"/>
      <point x="33" y="428"/>
      <point x="33" y="420" type="curve" smooth="yes"/>
      <point x="33" y="400"/>
      <point x="45" y="400"/>
      <point x="57" y="400" type="curve" smooth="yes"/>
      <point x="112" y="400"/>
      <point x="108" y="367"/>
      <point x="108" y="332" type="curve" smooth="yes"/>
      <point x="108" y="103" type="line" smooth="yes"/>
      <point x="108" y="68"/>
      <point x="112" y="35"/>
      <point x="57" y="35" type="curve" smooth="yes"/>
      <point x="44" y="35"/>
      <point x="35" y="37"/>
      <point x="33" y="17" type="curve"/>
      <point x="33" y="7"/>
      <point x="39" y="-3"/>
      <point x="49" y="-3" type="curve" smooth="yes"/>
      <point x="88" y="-1"/>
      <point x="117" y="0"/>
      <point x="153" y="0" type="curve" smooth="yes"/>
      <point x="189" y="0"/>
      <point x="219" y="-1"/>
      <point x="258" y="-3" type="curve" smooth="yes"/>
      <point x="269" y="-3"/>
      <point x="274" y="7"/>
      <point x="274" y="17" type="curve" smooth="yes"/>
      <point x="273" y="37"/>
      <point x="263" y="35"/>
      <point x="251" y="35" type="curve" smooth="yes"/>
      <point x="195" y="35"/>
      <point x="199" y="68"/>
      <point x="199" y="103" type="curve" smooth="yes"/>
      <point x="199" y="341" type="line"/>
      <point x="211" y="364"/>
      <point x="254" y="410"/>
      <point x="323" y="410" type="curve" smooth="yes"/>
      <point x="369" y="410"/>
      <point x="419" y="381"/>
      <point x="419" y="315" type="curve" smooth="yes"/>
      <point x="419" y="103" type="line" smooth="yes"/>
      <point x="419" y="68"/>
      <point x="423" y="35"/>
      <point x="367" y="35" type="curve" smooth="yes"/>
      <point x="355" y="35"/>
      <point x="345" y="37"/>
      <point x="344" y="17" type="curve" smooth="yes"/>
      <point x="344" y="7"/>
      <point x="350" y="-3"/>
      <point x="360" y="-3" type="curve" smooth="yes"/>
      <point x="399" y="-1"/>
      <point x="428" y="0"/>
      <point x="464" y="0" type="curve" smooth="yes"/>
      <point x="500" y="0"/>
      <point x="530" y="-1"/>
      <point x="569" y="-3" type="curve" smooth="yes"/>
      <point x="579" y="-3"/>
      <point x="585" y="7"/>
      <point x="585" y="17" type="curve" smooth="yes"/>
      <point x="584" y="37"/>
      <point x="574" y="35"/>
      <point x="562" y="35" type="curve" smooth="yes"/>
      <point x="506" y="35"/>
      <point x="510" y="68"/>
      <point x="510" y="103" type="curve" smooth="yes"/>
      <point x="510" y="316" type="line" smooth="yes"/>
      <point x="510" y="405"/>
      <point x="453" y="465"/>
      <point x="362" y="465" type="curve" smooth="yes"/>
      <point x="278" y="465"/>
      <point x="240" y="425"/>
      <point x="201" y="388" type="curve"/>
      <point x="198" y="388" type="line"/>
    </contour>
    <contour>
      <point x="310" y="490" type="move" name="top"/>
    </contour>
  </outline>
</glyph>
<glyph name="o" format="1">
  <advance width="548"/>
  <unicode hex="006F"/>
  <outline>
    <contour>
      <point x="168" y="465"/>
      <point x="41" y="378"/>
      <point x="41" y="220" type="curve" smooth="yes"/>
      <point x="41" y="100"/>
      <point x="134" y="-12"/>
      <point x="274" y="-12" type="curve" smooth="yes"/>
      <point x="378" y="-12"/>
      <point x="507" y="75"/>
      <point x="507" y="233" type="curve" smooth="yes"/>
      <point x="507" y="353"/>
      <point x="414" y="465"/>
      <point x="274" y="465" type="curve" smooth="yes"/>
    </contour>
    <contour>
      <point x="178" y="25"/>
      <point x="143" y="118"/>
      <point x="143" y="222" type="curve" smooth="yes"/>
      <point x="143" y="333"/>
      <point x="175" y="428"/>
      <point x="274" y="428" type="curve" smooth="yes"/>
      <point x="368" y="428"/>
      <point x="405" y="338"/>
      <point x="405" y="233" type="curve" smooth="yes"/>
      <point x="405" y="122"/>
      <point x="371" y="25"/>
      <point x="274" y="25" type="curve" smooth="yes"/>
    </contour>
    <contour>
      <point x="274" y="490" type="move" name="top"/>
    </contour>
  </outline>
</glyph>
<glyph name="p" format="1">
  <advance width="584"/>
  <unicode hex="0070"/>
  <outline>
    <contour>
      <point x="243" y="22"/>
      <point x="203" y="60"/>
      <point x="189" y="95" type="curve"/>
      <point x="189" y="363" type="line"/>
      <point x="216" y="391"/>
      <point x="246" y="415"/>
      <point x="297" y="415" type="curve" smooth="yes"/>
      <point x="399" y="415"/>
      <point x="440" y="317"/>
      <point x="440" y="224" type="curve" smooth="yes"/>
      <point x="440" y="140"/>
      <point x="409" y="22"/>
      <point x="305" y="22" type="curve" smooth="yes"/>
    </contour>
    <contour>
      <point x="188" y="403" type="line"/>
      <point x="188" y="451" type="line" smooth="yes"/>
      <point x="188" y="467"/>
      <point x="179" y="471"/>
      <point x="169" y="470" type="curve" smooth="yes"/>
      <point x="149" y="468"/>
      <point x="130" y="451"/>
      <point x="39" y="438" type="curve" smooth="yes"/>
      <point x="28" y="436"/>
      <point x="23" y="428"/>
      <point x="23" y="420" type="curve" smooth="yes"/>
      <point x="23" y="400"/>
      <point x="35" y="400"/>
      <point x="47" y="400" type="curve" smooth="yes"/>
      <point x="102" y="400"/>
      <point x="98" y="367"/>
      <point x="98" y="332" type="curve"/>
      <point x="98" y="-102" type="line" smooth="yes"/>
      <point x="98" y="-137"/>
      <point x="99" y="-170"/>
      <point x="46" y="-170" type="curve" smooth="yes"/>
      <point x="34" y="-170"/>
      <point x="24" y="-168"/>
      <point x="23" y="-188" type="curve" smooth="yes"/>
      <point x="23" y="-198"/>
      <point x="29" y="-208"/>
      <point x="39" y="-208" type="curve" smooth="yes"/>
      <point x="78" y="-206"/>
      <point x="107" y="-205"/>
      <point x="143" y="-205" type="curve" smooth="yes"/>
      <point x="179" y="-205"/>
      <point x="209" y="-206"/>
      <point x="248" y="-208" type="curve" smooth="yes"/>
      <point x="259" y="-208"/>
      <point x="264" y="-198"/>
      <point x="264" y="-188" type="curve" smooth="yes"/>
      <point x="263" y="-168"/>
      <point x="253" y="-170"/>
      <point x="241" y="-170" type="curve" smooth="yes"/>
      <point x="188" y="-170"/>
      <point x="189" y="-137"/>
      <point x="189" y="-102" type="curve" smooth="yes"/>
      <point x="189" y="19" type="line"/>
      <point x="193" y="19" type="line"/>
      <point x="219" y="3"/>
      <point x="253" y="-12"/>
      <point x="313" y="-12" type="curve" smooth="yes"/>
      <point x="430" y="-12"/>
      <point x="542" y="82"/>
      <point x="542" y="227" type="curve" smooth="yes"/>
      <point x="542" y="368"/>
      <point x="454" y="465"/>
      <point x="333" y="465" type="curve" smooth="yes"/>
      <point x="285" y="465"/>
      <point x="228" y="437"/>
      <point x="191" y="403" type="curve"/>
    </contour>
  </outline>
</glyph>
<glyph name="q" format="1">
  <advance width="559"/>
  <unicode hex="0071"/>
  <outline>
    <contour>
      <point x="390" y="84" type="line"/>
      <point x="366" y="59"/>
      <point x="335" y="37"/>
      <point x="287" y="37" type="curve" smooth="yes"/>
      <point x="182" y="37"/>
      <point x="142" y="127"/>
      <point x="142" y="222" type="curve" smooth="yes"/>
      <point x="142" y="351"/>
      <point x="201" y="430"/>
      <point x="277" y="430" type="curve" smooth="yes"/>
      <point x="346" y="430"/>
      <point x="379" y="387"/>
      <point x="390" y="355" type="curve"/>
    </contour>
    <contour>
      <point x="482" y="456" type="line"/>
      <point x="482" y="467"/>
      <point x="475" y="476"/>
      <point x="463" y="476" type="curve" smooth="yes"/>
      <point x="443" y="476"/>
      <point x="431" y="440"/>
      <point x="421" y="420" type="curve"/>
      <point x="416" y="420" type="line"/>
      <point x="390" y="434"/>
      <point x="350" y="465"/>
      <point x="272" y="465" type="curve" smooth="yes"/>
      <point x="151" y="465"/>
      <point x="41" y="364"/>
      <point x="41" y="232" type="curve" smooth="yes"/>
      <point x="41" y="83"/>
      <point x="138" y="-12"/>
      <point x="254" y="-12" type="curve" smooth="yes"/>
      <point x="315" y="-12"/>
      <point x="363" y="19"/>
      <point x="387" y="45" type="curve"/>
      <point x="390" y="45" type="line"/>
      <point x="390" y="-102" type="line"/>
      <point x="390" y="-137"/>
      <point x="391" y="-170"/>
      <point x="339" y="-170" type="curve" smooth="yes"/>
      <point x="326" y="-170"/>
      <point x="317" y="-168"/>
      <point x="316" y="-188" type="curve" smooth="yes"/>
      <point x="316" y="-198"/>
      <point x="321" y="-208"/>
      <point x="331" y="-208" type="curve" smooth="yes"/>
      <point x="370" y="-206"/>
      <point x="400" y="-205"/>
      <point x="435" y="-205" type="curve" smooth="yes"/>
      <point x="471" y="-205"/>
      <point x="501" y="-206"/>
      <point x="540" y="-208" type="curve" smooth="yes"/>
      <point x="551" y="-208"/>
      <point x="556" y="-198"/>
      <point x="556" y="-188" type="curve" smooth="yes"/>
      <point x="555" y="-168"/>
      <point x="546" y="-170"/>
      <point x="533" y="-170" type="curve" smooth="yes"/>
      <point x="480" y="-170"/>
      <point x="482" y="-137"/>
      <point x="482" y="-102" type="curve" smooth="yes"/>
    </contour>
  </outline>
</glyph>
<glyph name="r" format="1">
  <advance width="425"/>
  <unicode hex="0072"/>
  <outline>
    <contour>
      <point x="108" y="103" type="line"/>
      <point x="108" y="68"/>
      <point x="112" y="35"/>
      <point x="57" y="35" type="curve" smooth="yes"/>
      <point x="44" y="35"/>
      <point x="35" y="37"/>
      <point x="33" y="17" type="curve" smooth="yes"/>
      <point x="33" y="7"/>
      <point x="39" y="-3"/>
      <point x="49" y="-3" type="curve" smooth="yes"/>
      <point x="88" y="-1"/>
      <point x="117" y="0"/>
      <point x="153" y="0" type="curve" smooth="yes"/>
      <point x="189" y="0"/>
      <point x="219" y="-1"/>
      <point x="258" y="-3" type="curve" smooth="yes"/>
      <point x="269" y="-3"/>
      <point x="274" y="7"/>
      <point x="274" y="17" type="curve" smooth="yes"/>
      <point x="273" y="37"/>
      <point x="263" y="35"/>
      <point x="251" y="35" type="curve" smooth="yes"/>
      <point x="195" y="35"/>
      <point x="199" y="68"/>
      <point x="199" y="103" type="curve"/>
      <point x="199" y="347" type="line"/>
      <point x="231" y="379"/>
      <point x="270" y="405"/>
      <point x="293" y="405" type="curve" smooth="yes"/>
      <point x="314" y="405"/>
      <point x="328" y="389"/>
      <point x="328" y="365" type="curve" smooth="yes"/>
      <point x="328" y="345"/>
      <point x="309" y="331"/>
      <point x="309" y="328" type="curve" smooth="yes"/>
      <point x="310" y="324"/>
      <point x="324" y="312"/>
      <point x="345" y="312" type="curve" smooth="yes"/>
      <point x="388" y="312"/>
      <point x="409" y="350"/>
      <point x="409" y="384" type="curve" smooth="yes"/>
      <point x="409" y="423"/>
      <point x="384" y="465"/>
      <point x="337" y="465" type="curve" smooth="yes"/>
      <point x="297" y="465"/>
      <point x="246" y="433"/>
      <point x="201" y="389" type="curve"/>
      <point x="198" y="389" type="line"/>
      <point x="198" y="451" type="line" smooth="yes"/>
      <point x="198" y="467"/>
      <point x="189" y="471"/>
      <point x="179" y="470" type="curve" smooth="yes"/>
      <point x="159" y="468"/>
      <point x="140" y="451"/>
      <point x="49" y="438" type="curve" smooth="yes"/>
      <point x="38" y="436"/>
      <point x="33" y="428"/>
      <point x="33" y="420" type="curve" smooth="yes"/>
      <point x="33" y="400"/>
      <point x="45" y="400"/>
      <point x="57" y="400" type="curve" smooth="yes"/>
      <point x="112" y="400"/>
      <point x="108" y="367"/>
      <point x="108" y="332" type="curve"/>
    </contour>
  </outline>
</glyph>
<glyph name="s" format="1">
  <advance width="443"/>
  <unicode hex="0073"/>
  <outline>
    <contour>
      <point x="324" y="-12"/>
      <point x="402" y="49"/>
      <point x="402" y="133" type="curve" smooth="yes"/>
      <point x="402" y="217"/>
      <point x="342" y="240"/>
      <point x="254" y="268" type="curve" smooth="yes"/>
      <point x="165" y="296"/>
      <point x="130" y="308"/>
      <point x="130" y="366" type="curve" smooth="yes"/>
      <point x="130" y="409"/>
      <point x="178" y="432"/>
      <point x="225" y="432" type="curve" smooth="yes"/>
      <point x="267" y="432"/>
      <point x="308" y="413"/>
      <point x="311" y="375" type="curve"/>
      <point x="311" y="345"/>
      <point x="282" y="332"/>
      <point x="282" y="328" type="curve" smooth="yes"/>
      <point x="282" y="323"/>
      <point x="299" y="305"/>
      <point x="323" y="305" type="curve" smooth="yes"/>
      <point x="360" y="305"/>
      <point x="383" y="336"/>
      <point x="383" y="370" type="curve" smooth="yes"/>
      <point x="383" y="433"/>
      <point x="310" y="465"/>
      <point x="237" y="465" type="curve" smooth="yes"/>
      <point x="150" y="465"/>
      <point x="56" y="422"/>
      <point x="56" y="333" type="curve" smooth="yes"/>
      <point x="56" y="156"/>
      <point x="326" y="221"/>
      <point x="326" y="103" type="curve" smooth="yes"/>
      <point x="326" y="53"/>
      <point x="288" y="25"/>
      <point x="226" y="25" type="curve" smooth="yes"/>
      <point x="154" y="25"/>
      <point x="119" y="52"/>
      <point x="119" y="90" type="curve" smooth="yes"/>
      <point x="119" y="120"/>
      <point x="142" y="133"/>
      <point x="142" y="137" type="curve" smooth="yes"/>
      <point x="142" y="142"/>
      <point x="125" y="160"/>
      <point x="101" y="160" type="curve" smooth="yes"/>
      <point x="64" y="160"/>
      <point x="38" y="133"/>
      <point x="38" y="95" type="curve" smooth="yes"/>
      <point x="38" y="25"/>
      <point x="115" y="-12"/>
      <point x="218" y="-12" type="curve" smooth="yes"/>
    </contour>
  </outline>
</glyph>
<glyph name="t" format="1">
  <advance width="379"/>
  <unicode hex="0074"/>
  <outline>
    <contour>
      <point x="300" y="411" type="line"/>
      <point x="307" y="411"/>
      <point x="312" y="427"/>
      <point x="312" y="441" type="curve" smooth="yes"/>
      <point x="312" y="451"/>
      <point x="309" y="461"/>
      <point x="297" y="460" type="curve"/>
      <point x="180" y="453" type="line"/>
      <point x="187" y="567" type="line"/>
      <point x="187" y="577"/>
      <point x="174" y="581"/>
      <point x="166" y="581" type="curve" smooth="yes"/>
      <point x="156" y="581"/>
      <point x="148" y="579"/>
      <point x="144" y="568" type="curve"/>
      <point x="125" y="514"/>
      <point x="113" y="469"/>
      <point x="39" y="455" type="curve" smooth="yes"/>
      <point x="30" y="453"/>
      <point x="25" y="443"/>
      <point x="25" y="432" type="curve" smooth="yes"/>
      <point x="25" y="423"/>
      <point x="30" y="414"/>
      <point x="39" y="414" type="curve"/>
      <point x="97" y="416" type="line"/>
      <point x="97" y="122" type="line" smooth="yes"/>
      <point x="97" y="28"/>
      <point x="156" y="-17"/>
      <point x="216" y="-17" type="curve" smooth="yes"/>
      <point x="258" y="-17"/>
      <point x="290" y="-12"/>
      <point x="331" y="15" type="curve" smooth="yes"/>
      <point x="337" y="19"/>
      <point x="338" y="23"/>
      <point x="336" y="29" type="curve" smooth="yes"/>
      <point x="332" y="38"/>
      <point x="327" y="49"/>
      <point x="317" y="49" type="curve" smooth="yes"/>
      <point x="312" y="49"/>
      <point x="306" y="46"/>
      <point x="301" y="44" type="curve" smooth="yes"/>
      <point x="279" y="34"/>
      <point x="261" y="33"/>
      <point x="246" y="33" type="curve" smooth="yes"/>
      <point x="202" y="33"/>
      <point x="188" y="71"/>
      <point x="188" y="110" type="curve" smooth="yes"/>
      <point x="188" y="414" type="line"/>
    </contour>
  </outline>
</glyph>
<glyph name="u" format="1">
  <advance width="596"/>
  <unicode hex="0075"/>
  <outline>
    <contour>
      <point x="494" y="441" type="line" smooth="yes"/>
      <point x="494" y="457"/>
      <point x="485" y="461"/>
      <point x="475" y="460" type="curve" smooth="yes"/>
      <point x="455" y="458"/>
      <point x="435" y="441"/>
      <point x="344" y="428" type="curve" smooth="yes"/>
      <point x="333" y="426"/>
      <point x="328" y="418"/>
      <point x="328" y="410" type="curve" smooth="yes"/>
      <point x="328" y="390"/>
      <point x="340" y="390"/>
      <point x="352" y="390" type="curve" smooth="yes"/>
      <point x="407" y="390"/>
      <point x="403" y="357"/>
      <point x="403" y="322" type="curve" smooth="yes"/>
      <point x="403" y="112" type="line"/>
      <point x="392" y="89"/>
      <point x="349" y="43"/>
      <point x="279" y="43" type="curve" smooth="yes"/>
      <point x="233" y="43"/>
      <point x="183" y="72"/>
      <point x="183" y="138" type="curve" smooth="yes"/>
      <point x="183" y="441" type="line" smooth="yes"/>
      <point x="183" y="457"/>
      <point x="174" y="461"/>
      <point x="164" y="460" type="curve" smooth="yes"/>
      <point x="144" y="458"/>
      <point x="124" y="441"/>
      <point x="33" y="428" type="curve" smooth="yes"/>
      <point x="22" y="426"/>
      <point x="17" y="418"/>
      <point x="17" y="410" type="curve" smooth="yes"/>
      <point x="17" y="390"/>
      <point x="29" y="390"/>
      <point x="41" y="390" type="curve" smooth="yes"/>
      <point x="96" y="390"/>
      <point x="92" y="357"/>
      <point x="92" y="322" type="curve" smooth="yes"/>
      <point x="92" y="137" type="line" smooth="yes"/>
      <point x="92" y="48"/>
      <point x="149" y="-12"/>
      <point x="240" y="-12" type="curve" smooth="yes"/>
      <point x="324" y="-12"/>
      <point x="362" y="28"/>
      <point x="401" y="65" type="curve"/>
      <point x="403" y="65" type="line"/>
      <point x="403" y="9" type="line" smooth="yes"/>
      <point x="403" y="-2"/>
      <point x="402" y="-11"/>
      <point x="412" y="-11" type="curve"/>
      <point x="573" y="0" type="line"/>
      <point x="585" y="2"/>
      <point x="590" y="8"/>
      <point x="590" y="17" type="curve" smooth="yes"/>
      <point x="590" y="26"/>
      <point x="588" y="36"/>
      <point x="573" y="36" type="curve" smooth="yes"/>
      <point x="519" y="36"/>
      <point x="494" y="56"/>
      <point x="494" y="95" type="curve" smooth="yes"/>
    </contour>
    <contour>
      <point x="280" y="490" type="move" name="top"/>
    </contour>
  </outline>
</glyph>
<glyph name="v" format="1">
  <advance width="551"/>
  <unicode hex="0076"/>
  <outline>
    <contour>
      <point x="294" y="-10" type="line"/>
      <point x="297" y="-9"/>
      <point x="445" y="359"/>
      <point x="445" y="359" type="curve"/>
      <point x="464" y="405"/>
      <point x="487" y="418"/>
      <point x="531" y="418" type="curve" smooth="yes"/>
      <point x="542" y="418"/>
      <point x="552" y="416"/>
      <point x="553" y="436" type="curve" smooth="yes"/>
      <point x="553" y="444"/>
      <point x="548" y="456"/>
      <point x="538" y="456" type="curve" smooth="yes"/>
      <point x="499" y="454"/>
      <point x="490" y="453"/>
      <point x="455" y="453" type="curve" smooth="yes"/>
      <point x="420" y="453"/>
      <point x="396" y="454"/>
      <point x="358" y="456" type="curve" smooth="yes"/>
      <point x="348" y="456"/>
      <point x="344" y="444"/>
      <point x="344" y="436" type="curve" smooth="yes"/>
      <point x="345" y="416"/>
      <point x="354" y="418"/>
      <point x="366" y="418" type="curve" smooth="yes"/>
      <point x="406" y="418"/>
      <point x="417" y="413"/>
      <point x="404" y="375" type="curve"/>
      <point x="305" y="113" type="line"/>
      <point x="302" y="113" type="line"/>
      <point x="265" y="188"/>
      <point x="225" y="305"/>
      <point x="197" y="368" type="curve" smooth="yes"/>
      <point x="167" y="435"/>
      <point x="125" y="461"/>
      <point x="43" y="457" type="curve" smooth="yes"/>
      <point x="23" y="456"/>
      <point x="7" y="458"/>
      <point x="8" y="436" type="curve" smooth="yes"/>
      <point x="9" y="418"/>
      <point x="14" y="420"/>
      <point x="31" y="417" type="curve"/>
      <point x="71" y="412"/>
      <point x="85" y="394"/>
      <point x="107" y="345" type="curve"/>
      <point x="151" y="253"/>
      <point x="202" y="100"/>
      <point x="252" y="-10" type="curve"/>
    </contour>
  </outline>
</glyph>
<glyph name="w" format="1">
  <advance width="798"/>
  <unicode hex="0077"/>
  <outline>
    <contour>
      <point x="198" y="368" type="line"/>
      <point x="168" y="435"/>
      <point x="126" y="461"/>
      <point x="44" y="457" type="curve" smooth="yes"/>
      <point x="24" y="456"/>
      <point x="8" y="458"/>
      <point x="9" y="436" type="curve" smooth="yes"/>
      <point x="10" y="418"/>
      <point x="15" y="420"/>
      <point x="32" y="417" type="curve"/>
      <point x="72" y="412"/>
      <point x="86" y="394"/>
      <point x="108" y="345" type="curve"/>
      <point x="236" y="-10" type="line"/>
      <point x="295" y="-10" type="line"/>
      <point x="394" y="317" type="line"/>
      <point x="521" y="-10" type="line"/>
      <point x="580" y="-10" type="line"/>
      <point x="691" y="359" type="line"/>
      <point x="703" y="405"/>
      <point x="729" y="418"/>
      <point x="777" y="418" type="curve" smooth="yes"/>
      <point x="788" y="418"/>
      <point x="798" y="416"/>
      <point x="799" y="436" type="curve" smooth="yes"/>
      <point x="799" y="444"/>
      <point x="794" y="456"/>
      <point x="784" y="456" type="curve" smooth="yes"/>
      <point x="745" y="454"/>
      <point x="735" y="453"/>
      <point x="700" y="453" type="curve" smooth="yes"/>
      <point x="665" y="453"/>
      <point x="640" y="454"/>
      <point x="602" y="456" type="curve" smooth="yes"/>
      <point x="592" y="456"/>
      <point x="588" y="444"/>
      <point x="588" y="436" type="curve" smooth="yes"/>
      <point x="589" y="416"/>
      <point x="598" y="418"/>
      <point x="610" y="418" type="curve" smooth="yes"/>
      <point x="647" y="418"/>
      <point x="656" y="411"/>
      <point x="648" y="375" type="curve"/>
      <point x="632" y="315"/>
      <point x="605" y="193"/>
      <point x="578" y="109" type="curve"/>
      <point x="575" y="109" type="line"/>
      <point x="438" y="453" type="line"/>
      <point x="390" y="453" type="line"/>
      <point x="374" y="393"/>
      <point x="320" y="193"/>
      <point x="293" y="109" type="curve"/>
      <point x="290" y="109" type="line"/>
    </contour>
  </outline>
</glyph>
<glyph name="x" format="1">
  <advance width="541"/>
  <unicode hex="0078"/>
  <outline>
    <contour>
      <point x="402" y="137"/>
      <point x="356" y="197"/>
      <point x="312" y="254" type="curve"/>
      <point x="349" y="299"/>
      <point x="379" y="339"/>
      <point x="396" y="359" type="curve" smooth="yes"/>
      <point x="432" y="404"/>
      <point x="442" y="416"/>
      <point x="483" y="418" type="curve" smooth="yes"/>
      <point x="494" y="419"/>
      <point x="504" y="416"/>
      <point x="505" y="436" type="curve" smooth="yes"/>
      <point x="505" y="444"/>
      <point x="500" y="456"/>
      <point x="490" y="456" type="curve" smooth="yes"/>
      <point x="451" y="454"/>
      <point x="439" y="453"/>
      <point x="404" y="453" type="curve" smooth="yes"/>
      <point x="369" y="453"/>
      <point x="358" y="454"/>
      <point x="320" y="456" type="curve" smooth="yes"/>
      <point x="310" y="456"/>
      <point x="306" y="444"/>
      <point x="306" y="436" type="curve" smooth="yes"/>
      <point x="307" y="416"/>
      <point x="316" y="418"/>
      <point x="328" y="418" type="curve" smooth="yes"/>
      <point x="381" y="417"/>
      <point x="378" y="411"/>
      <point x="353" y="375" type="curve"/>
      <point x="286" y="288" type="line"/>
      <point x="247" y="339"/>
      <point x="224" y="382"/>
      <point x="210" y="401" type="curve" smooth="yes"/>
      <point x="179" y="442"/>
      <point x="129" y="460"/>
      <point x="62" y="457" type="curve" smooth="yes"/>
      <point x="42" y="456"/>
      <point x="26" y="458"/>
      <point x="27" y="436" type="curve" smooth="yes"/>
      <point x="28" y="418"/>
      <point x="33" y="420"/>
      <point x="50" y="417" type="curve" smooth="yes"/>
      <point x="79" y="411"/>
      <point x="96" y="399"/>
      <point x="113" y="377" type="curve"/>
      <point x="227" y="216" type="line"/>
      <point x="189" y="169"/>
      <point x="151" y="122"/>
      <point x="126" y="94" type="curve" smooth="yes"/>
      <point x="93" y="55"/>
      <point x="81" y="35"/>
      <point x="39" y="35" type="curve" smooth="yes"/>
      <point x="28" y="35"/>
      <point x="18" y="37"/>
      <point x="17" y="17" type="curve" smooth="yes"/>
      <point x="17" y="9"/>
      <point x="22" y="-3"/>
      <point x="32" y="-3" type="curve" smooth="yes"/>
      <point x="71" y="-1"/>
      <point x="83" y="0"/>
      <point x="118" y="0" type="curve" smooth="yes"/>
      <point x="153" y="0"/>
      <point x="164" y="-1"/>
      <point x="202" y="-3" type="curve" smooth="yes"/>
      <point x="212" y="-3"/>
      <point x="216" y="9"/>
      <point x="216" y="17" type="curve" smooth="yes"/>
      <point x="215" y="37"/>
      <point x="206" y="35"/>
      <point x="194" y="35" type="curve" smooth="yes"/>
      <point x="147" y="35"/>
      <point x="141" y="42"/>
      <point x="169" y="78" type="curve"/>
      <point x="255" y="182" type="line"/>
      <point x="333" y="78" type="line" smooth="yes"/>
      <point x="353" y="52"/>
      <point x="352" y="35"/>
      <point x="326" y="35" type="curve" smooth="yes"/>
      <point x="314" y="35"/>
      <point x="304" y="37"/>
      <point x="303" y="17" type="curve" smooth="yes"/>
      <point x="303" y="7"/>
      <point x="309" y="-3"/>
      <point x="319" y="-3" type="curve" smooth="yes"/>
      <point x="358" y="-1"/>
      <point x="389" y="0"/>
      <point x="425" y="0" type="curve" smooth="yes"/>
      <point x="461" y="0"/>
      <point x="482" y="-1"/>
      <point x="521" y="-3" type="curve" smooth="yes"/>
      <point x="531" y="-3"/>
      <point x="537" y="7"/>
      <point x="537" y="17" type="curve" smooth="yes"/>
      <point x="536" y="37"/>
      <point x="526" y="35"/>
      <point x="514" y="35" type="curve" smooth="yes"/>
      <point x="480" y="35"/>
      <point x="455" y="64"/>
      <point x="434" y="94" type="curve" smooth="yes"/>
    </contour>
  </outline>
</glyph>
<glyph name="y" format="1">
  <advance width="552"/>
  <unicode hex="0079"/>
  <outline>
    <contour>
      <point x="299" y="-4"/>
      <point x="446" y="359"/>
      <point x="446" y="359" type="curve"/>
      <point x="465" y="405"/>
      <point x="488" y="418"/>
      <point x="532" y="418" type="curve" smooth="yes"/>
      <point x="543" y="418"/>
      <point x="553" y="416"/>
      <point x="554" y="436" type="curve" smooth="yes"/>
      <point x="554" y="444"/>
      <point x="549" y="456"/>
      <point x="539" y="456" type="curve" smooth="yes"/>
      <point x="500" y="454"/>
      <point x="491" y="453"/>
      <point x="456" y="453" type="curve" smooth="yes"/>
      <point x="421" y="453"/>
      <point x="397" y="454"/>
      <point x="359" y="456" type="curve" smooth="yes"/>
      <point x="349" y="456"/>
      <point x="345" y="444"/>
      <point x="345" y="436" type="curve" smooth="yes"/>
      <point x="346" y="416"/>
      <point x="355" y="418"/>
      <point x="367" y="418" type="curve" smooth="yes"/>
      <point x="407" y="418"/>
      <point x="418" y="413"/>
      <point x="405" y="375" type="curve"/>
      <point x="307" y="113" type="line"/>
      <point x="304" y="113" type="line"/>
      <point x="267" y="188"/>
      <point x="228" y="305"/>
      <point x="200" y="368" type="curve" smooth="yes"/>
      <point x="170" y="435"/>
      <point x="128" y="461"/>
      <point x="46" y="457" type="curve" smooth="yes"/>
      <point x="26" y="456"/>
      <point x="10" y="458"/>
      <point x="11" y="436" type="curve" smooth="yes"/>
      <point x="12" y="418"/>
      <point x="17" y="420"/>
      <point x="34" y="417" type="curve"/>
      <point x="74" y="412"/>
      <point x="88" y="394"/>
      <point x="110" y="345" type="curve"/>
      <point x="151" y="259"/>
      <point x="196" y="120"/>
      <point x="244" y="12" type="curve"/>
      <point x="250" y="-5"/>
      <point x="250" y="-19"/>
      <point x="245" y="-34" type="curve"/>
      <point x="219" y="-90"/>
      <point x="177" y="-163"/>
      <point x="122" y="-163" type="curve" smooth="yes"/>
      <point x="89" y="-163"/>
      <point x="73" y="-135"/>
      <point x="74" y="-111" type="curve" smooth="yes"/>
      <point x="75" y="-86"/>
      <point x="90" y="-78"/>
      <point x="90" y="-75" type="curve" smooth="yes"/>
      <point x="90" y="-68"/>
      <point x="76" y="-55"/>
      <point x="51" y="-55" type="curve" smooth="yes"/>
      <point x="57" y="-55"/>
      <point x="-11" y="-52"/>
      <point x="-13" y="-124" type="curve" smooth="yes"/>
      <point x="-14" y="-175"/>
      <point x="39" y="-218"/>
      <point x="97" y="-218" type="curve" smooth="yes"/>
      <point x="198" y="-218"/>
      <point x="261" y="-94"/>
      <point x="296" y="-10" type="curve"/>
    </contour>
    <contour>
      <point x="277" y="490" type="move" name="top"/>
    </contour>
  </outline>
</glyph>
<glyph name="z" format="1">
  <advance width="502"/>
  <unicode hex="007A"/>
  <outline>
    <contour>
      <point x="254" y="32" type="line"/>
      <point x="216" y="32"/>
      <point x="205" y="34"/>
      <point x="228" y="83" type="curve"/>
      <point x="365" y="370" type="line"/>
      <point x="387" y="412"/>
      <point x="396" y="418"/>
      <point x="434" y="418" type="curve" smooth="yes"/>
      <point x="446" y="418"/>
      <point x="456" y="416"/>
      <point x="457" y="436" type="curve" smooth="yes"/>
      <point x="457" y="446"/>
      <point x="451" y="456"/>
      <point x="441" y="456" type="curve" smooth="yes"/>
      <point x="402" y="454"/>
      <point x="396" y="453"/>
      <point x="360" y="453" type="curve" smooth="yes"/>
      <point x="86" y="453" type="line" smooth="yes"/>
      <point x="74" y="453"/>
      <point x="66" y="450"/>
      <point x="63" y="430" type="curve"/>
      <point x="46" y="307" type="line"/>
      <point x="46" y="295"/>
      <point x="58" y="289"/>
      <point x="68" y="289" type="curve" smooth="yes"/>
      <point x="82" y="289"/>
      <point x="97" y="294"/>
      <point x="98" y="305" type="curve" smooth="yes"/>
      <point x="111" y="405"/>
      <point x="134" y="421"/>
      <point x="197" y="421" type="curve" smooth="yes"/>
      <point x="239" y="421" type="line" smooth="yes"/>
      <point x="277" y="421"/>
      <point x="288" y="419"/>
      <point x="265" y="370" type="curve"/>
      <point x="127" y="83" type="line"/>
      <point x="105" y="41"/>
      <point x="97" y="35"/>
      <point x="59" y="35" type="curve" smooth="yes"/>
      <point x="46" y="35"/>
      <point x="37" y="37"/>
      <point x="36" y="17" type="curve" smooth="yes"/>
      <point x="36" y="7"/>
      <point x="41" y="-3"/>
      <point x="52" y="-3" type="curve" smooth="yes"/>
      <point x="90" y="-1"/>
      <point x="97" y="0"/>
      <point x="132" y="0" type="curve" smooth="yes"/>
      <point x="421" y="0" type="line"/>
      <point x="433" y="0"/>
      <point x="441" y="3"/>
      <point x="444" y="23" type="curve" smooth="yes"/>
      <point x="461" y="146" type="line"/>
      <point x="461" y="158"/>
      <point x="449" y="164"/>
      <point x="439" y="164" type="curve" smooth="yes"/>
      <point x="425" y="164"/>
      <point x="410" y="159"/>
      <point x="409" y="148" type="curve" smooth="yes"/>
      <point x="396" y="48"/>
      <point x="373" y="32"/>
      <point x="310" y="32" type="curve"/>
    </contour>
  </outline>
</glyph>
<glyph name="braceleft" format="1">
  <advance width="286"/>
  <unicode hex="007B"/>
  <outline>
    <contour>
      <point x="262" y="-218"/>
      <point x="267" y="-209"/>
      <point x="266" y="-200" type="curve" smooth="yes"/>
      <point x="265" y="-186"/>
      <point x="256" y="-186"/>
      <point x="246" y="-184" type="curve"/>
      <point x="181" y="-171"/>
      <point x="173" y="-133"/>
      <point x="173" y="-87" type="curve" smooth="yes"/>
      <point x="173" y="-24"/>
      <point x="187" y="65"/>
      <point x="187" y="133" type="curve" smooth="yes"/>
      <point x="187" y="190"/>
      <point x="162" y="239"/>
      <point x="100" y="252" type="curve"/>
      <point x="100" y="256" type="line"/>
      <point x="163" y="269"/>
      <point x="187" y="319"/>
      <point x="187" y="375" type="curve" smooth="yes"/>
      <point x="187" y="441"/>
      <point x="173" y="532"/>
      <point x="173" y="598" type="curve" smooth="yes"/>
      <point x="173" y="642"/>
      <point x="182" y="681"/>
      <point x="251" y="693" type="curve"/>
      <point x="262" y="695"/>
      <point x="266" y="703"/>
      <point x="266" y="711" type="curve" smooth="yes"/>
      <point x="265" y="729"/>
      <point x="256" y="727"/>
      <point x="246" y="727" type="curve"/>
      <point x="182" y="724"/>
      <point x="105" y="702"/>
      <point x="105" y="588" type="curve" smooth="yes"/>
      <point x="105" y="522"/>
      <point x="113" y="426"/>
      <point x="113" y="359" type="curve" smooth="yes"/>
      <point x="113" y="324"/>
      <point x="110" y="281"/>
      <point x="28" y="273" type="curve"/>
      <point x="21" y="272"/>
      <point x="17" y="260"/>
      <point x="17" y="254" type="curve" smooth="yes"/>
      <point x="17" y="247"/>
      <point x="21" y="236"/>
      <point x="28" y="235" type="curve"/>
      <point x="110" y="227"/>
      <point x="113" y="185"/>
      <point x="113" y="149" type="curve" smooth="yes"/>
      <point x="113" y="83"/>
      <point x="105" y="-12"/>
      <point x="105" y="-84" type="curve" smooth="yes"/>
      <point x="105" y="-196"/>
      <point x="184" y="-216"/>
      <point x="249" y="-218" type="curve" smooth="yes"/>
    </contour>
  </outline>
</glyph>
<glyph name="bar" format="1">
  <advance width="212"/>
  <unicode hex="007C"/>
  <outline>
    <contour>
      <point x="134" y="705" type="line"/>
      <point x="134" y="719"/>
      <point x="119" y="728"/>
      <point x="106" y="728" type="curve" smooth="yes"/>
      <point x="92" y="728"/>
      <point x="78" y="719"/>
      <point x="78" y="705" type="curve" smooth="yes"/>
      <point x="78" y="-195" type="line"/>
      <point x="78" y="-209"/>
      <point x="92" y="-218"/>
      <point x="106" y="-218" type="curve" smooth="yes"/>
      <point x="119" y="-218"/>
      <point x="134" y="-209"/>
      <point x="134" y="-195" type="curve"/>
    </contour>
  </outline>
</glyph>
